/* XPM */
static char *_3c9e715906c4af1b5da56135af0179bdhfuA1S7dUlEZGDJ[] = {
/* columns rows colors chars-per-pixel */
"64 64 226 2 ",
"   c None",
".  c #12131E",
"X  c #0F111C",
"o  c #151522",
"O  c #191725",
"+  c #1B1A23",
"@  c #191728",
"#  c #17192C",
"$  c #1B192C",
"%  c #161825",
"&  c #1B1B32",
"*  c #1D1E3B",
"=  c #241B2D",
"-  c #231B26",
";  c #231C34",
":  c #291D33",
">  c #261E39",
",  c #291F3B",
"<  c #3A1F2A",
"1  c #1F212D",
"2  c #1E203A",
"3  c #25242C",
"4  c #382626",
"5  c #242532",
"6  c #23213E",
"7  c #2B213D",
"8  c #2B2837",
"9  c #35273C",
"0  c #373338",
"q  c #2D313D",
"w  c #4C2B36",
"e  c #502E2E",
"r  c #68343B",
"t  c #713D2E",
"y  c #5D4C3A",
"u  c #704C38",
"i  c #211F46",
"p  c #252242",
"a  c #2C2242",
"s  c #222049",
"d  c #2D2749",
"f  c #332445",
"g  c #3B2542",
"h  c #34264C",
"j  c #392949",
"k  c #333443",
"l  c #3A3345",
"z  c #3D3B4C",
"x  c #3A3749",
"c  c #2A2856",
"v  c #362851",
"b  c #3B2954",
"n  c #3E2B58",
"m  c #352750",
"M  c #3B3D56",
"N  c #2C2866",
"B  c #2B2762",
"V  c #39366B",
"C  c #312D68",
"Z  c #1E1D43",
"A  c #432646",
"S  c #432749",
"D  c #45284B",
"F  c #482A48",
"G  c #562D4B",
"H  c #4A3648",
"J  c #432B54",
"K  c #4B2C53",
"L  c #432C5A",
"P  c #4D2E5B",
"I  c #532D54",
"U  c #532F5B",
"Y  c #5A2F58",
"T  c #453855",
"R  c #55315E",
"E  c #5C315D",
"W  c #5B3A5A",
"Q  c #5C324D",
"!  c #65364A",
"~  c #67375B",
"^  c #7D3955",
"/  c #71375E",
"(  c #75385C",
")  c #7A3A59",
"_  c #713655",
"`  c #733749",
"'  c #563160",
"]  c #5C3261",
"[  c #5B3862",
"{  c #663564",
"}  c #6A3663",
"|  c #683A68",
" . c #733860",
".. c #3C414E",
"X. c #48464B",
"o. c #544647",
"O. c #4A4C5B",
"+. c #464656",
"@. c #574856",
"#. c #57555C",
"$. c #725942",
"%. c #714654",
"&. c #4B4A64",
"*. c #554966",
"=. c #4E5264",
"-. c #535365",
";. c #575B68",
":. c #575873",
">. c #6A4664",
",. c #734B65",
"<. c #635C74",
"1. c #735A6F",
"2. c #5D6474",
"3. c #656C7D",
"4. c #676777",
"5. c #78777C",
"6. c #6A676B",
"7. c #6F655E",
"8. c #813C3D",
"9. c #87462E",
"0. c #914A34",
"q. c #BA5B37",
"w. c #A65234",
"e. c #BE673F",
"r. c #C76335",
"t. c #D96B39",
"y. c #D3673A",
"u. c #8D3D4E",
"i. c #83394A",
"p. c #913E4C",
"a. c #843B53",
"s. c #8A3D51",
"d. c #91404E",
"f. c #8F4A5A",
"g. c #8F4757",
"h. c #904453",
"j. c #95754E",
"k. c #977952",
"l. c #8B6646",
"z. c #B1714C",
"x. c #8B5569",
"c. c #B14D6E",
"v. c #88677A",
"b. c #D37845",
"n. c #E67B43",
"m. c #B68755",
"M. c #AF8958",
"N. c #A29A7C",
"B. c #96815E",
"V. c #C98D5D",
"C. c #D4844C",
"Z. c #E7864B",
"A. c #EB9757",
"S. c #E58E54",
"D. c #EDA25E",
"F. c #C39D66",
"G. c #DAA867",
"H. c #CDA063",
"J. c #E7A764",
"K. c #F1B56D",
"L. c #F1B96F",
"P. c #F2BC71",
"I. c #F1B478",
"U. c #EEAF6A",
"Y. c #E19E60",
"T. c #F3C278",
"R. c #6D7485",
"E. c #6C7585",
"W. c #757A8A",
"Q. c #6F6E85",
"!. c #817D86",
"~. c #8E6985",
"^. c #B3688C",
"/. c #D36A92",
"(. c #EF709B",
"). c #DD6C96",
"_. c #798295",
"`. c #7C8698",
"'. c #87868A",
"]. c #828D9D",
"[. c #898995",
"{. c #98979A",
"}. c #8C9199",
"|. c #8993A2",
" X c #999BA4",
".X c #848FA0",
"XX c #9CA2AB",
"oX c #97B4BA",
"OX c #8EAAB1",
"+X c #A7A6A8",
"@X c #A8ABB3",
"#X c #BABABB",
"$X c #B6B6B7",
"%X c #AFB0B2",
"&X c #D18DB3",
"*X c #C1BFBD",
"=X c #C7B88A",
"-X c #F7D28D",
";X c #F9DA97",
":X c #F4C985",
">X c #FAE09E",
",X c #C4C2BF",
"<X c #FCE4A4",
"1X c #FDEAAA",
"2X c #FDEEB1",
"3X c #FFF2B5",
"4X c #FFF4B8",
"5X c #DFD29E",
"6X c #A8BAC4",
"7X c #F39AC8",
"8X c #B0CACE",
"9X c #C5C3C2",
"0X c #CECBC7",
"qX c #CAC9C6",
"wX c #D0CEC9",
"eX c #D0CDC7",
"rX c #D4D1CD",
"tX c #D9D6D2",
"yX c #DDDAD6",
"uX c #D9D6D2",
"iX c #C1CDD4",
"pX c #E1DEDA",
"aX c #E5E2DE",
"sX c #EAE7E4",
"dX c #F1EEEB",
"fX c #F5F2EF",
/* pixels */
"                                                                                                                                ",
"                                                                                                                                ",
"                                              > ; o                                                                             ",
"                                            7 K ;                                                                               ",
"                                          ; R U @   . $ $ o                                                                     ",
"                                  $ ; ; ; g ] J > ; ; h 7                                                                       ",
"                                @ f n n n L L b b m 7 ;                 e j.j.j.j.$.+                                           ",
"                              % f n n n b d 7 > ; $ o X           @ 3 k.F.T.T.P.P.G.M.y                                         ",
"                              @ b n n b b b P E U f = = : : = $ : 0 B.<X2X2X;XP.P.P.P.H.y                                       ",
"                              @ b n b p h n P ] { { { { { { R K H N.2X4X2X;X;XT.L.P.P.P.M.+                                     ",
"                              @ h n n h p d v n P ] { { { { { H N.2X3X4X1X;X;X;XT.P.L.L.G.$.                                    ",
"                              o ; b n n v d p p v b L j E { E o.5X<X<X4X4X4X4X4X;XP.A.Z.K.k.                                    ",
"                                $ v n n n b d 2 6 6 * a ] { A M.T.-X3X3X1X<X<X<X;XP.K.Z.D.k.-               9 =                 ",
"                                o p n n n n v 6 * * > Y { { 9 M.P.-X3X>XT.J.V.V.V.V.G.A.Z.V.t           9 ! ) A                 ",
"                                  @ f n n n d * # > Y { { I $.G.P.T.-XT.J.z.q.q.q.w.z.J.b.z.t.w.4   - ` ^.^.w                   ",
"                                  . @ f b h * # = Y { { { S j.P.K.K.A.Y.z.q.r.r.r.q.0.m.z.q.t.r.u >.^.c.~ H                     ",
"                                      % $ * % = Y { } /  .F j.U.A.A.A.l.9.o.o.o.o.o.o.o.e w.0.! ` /.).Q                         ",
"                                        . @ 7 Y } ( a.p.i.r m.D.D.Z.m.7.5.#XrXrXwX,X9X%X8 < %.&X(.c.w                           ",
"                                        $ D ] } a.p.p.p.r u P.K.A.A.u +XsXfXfXfXsXtXrX'.~.c.(.7X/.8.e                           ",
"                                    6 = K { } a.p.p.p.p.r u L.P.K.z.7.qXsXfXdXsXtXpXyX}.7X(.c.! e r.t                           ",
"                                  6 J E { } a.p.p.p.p.i.e r.D.>X<Xj.5.rXyXsXyXtXyXsXtX@X&Xc.%.x 4 t.9.+                         ",
"                                6 K { { ( a.p.p.p.p.u.r 9.Z.K.<X1Xk.#.'.'.{.9XyXaXyXwXqX@X[.{.$X@.0.t.e                         ",
"                              6 K { } ) u.u.u.p.p.p.u.e r.U.-X<X1Xj.. . & d 3.#XwX0X0X0X0X0XwXqXE.t t.e                         ",
"                            6 K { ( ^ >.>.>.>./ i.u.i.e b.:X1X3X5X0 . . # s c Q.*XwXwX0X0X0XeX9XW.u t.q.e                       ",
"                          $ K } ( >.<.@XiX6X6XQ.R E A w.S.1X2X4X=X+ . . . * B *.|.#X#X0XwXwX9XXX].-.9.t.9.+                     ",
"                        % g { a.%._.oX8X8X8X8XoX1.J r r.A.;X;X3XF.+ . . . * N V _.|.|.@X%X{.4.R.].;.4 t 4                       ",
"                        ; E ( a.*.W.Q.OXoXoXoX[.W w q.n.I.-X1X2XF.+ . . . * N V _.].]._.O.8 * x R.;.% ; %                       ",
"                      @ K { ^ ~ ,.>.P ].OX].v.*.f u t.n.P.-X4X1XF.+ . o # * N V _.].`.+.. . s c +.=.$ v a o                     ",
"                      : E { ^ Y x.x.x.v.,.0 H f r r.n.J.L.:X<X:Xk.+ . o & * N V _.].`.q . . s N V T $ h h $                     ",
"                    @ K { { ^ ~ ~ >.>.,.G u k.$.C.S.J.P.P.P.P.G.4 . . % & s c 2.].].E.5 . . s N V z # 6 b a                     ",
"                    o I { { ^ a._ E P L f u D.J.D.K.P.P.P.P.K.l.+ . o # & B c E.%XXX+.. o % s C &.z # 2 d a                     ",
"                    o j ] { / a.u.s.^ ~ S y S.Z.A.D.P.P.P.K.j.0 . . % # i c 5.$XtX9X+.. % & s V &.5 # * p a                     ",
"                    @ a L L R } / a.( R 7 + l.Z.A.K.P.L.F.k.'.%XX.+ . o q 4.9XtXsX+XO.% # i c *.+.o # * p a                     ",
"                      % a n L R { } K 6 # . + $.j.j.j.l.3 #.uXsXqXW.;.6.XXqXwXtX Xd 4.-.$ Z M 3.5 . $ * p p                     ",
"                        % a b L R { R D @ . . . . . . . . q {.wXtXwXwXeXwX0XwX*X3.=.}.$X'.5.{. X5 . $ 2 h a                     ",
"                          o a b n R { { D @ o . . O . . . . 5 +.[.,X0XeX0X0X0X0X$X#X,XwXrXrXwX}.1 % * p b 7                     ",
"                            o $ a b R { { E g O l X.. . . . . 1 R. XrXwX0XrXrX0XeXeXeX0X#X+X'.k o # * h h @                     ",
"                                o $ a P { { { K !.;.. . . . . 1 _.#XsXtX0XuXpXrX0XrXrX9X2.1 + 8 $ * 6 b , o                     ",
"                                  . . ; P { { | 1.H . . . . . 1 [.yXsX$X0XaXpX0X$XsXpX$Xq . O @.= & h b @                       ",
"                                  o > & ; D { { { E 9 1 0 H . 5 +XrX*X6.*XdXyX+X6.rXwX}.5 . A ,.j h b ; o                       ",
"                                . $ f a p p J { { { { R.!.H . $ 5.+X;.5 %XtX$XX.q {.'.k . o h P L b ; .                         ",
"                                + q k +.z p p D { { { [ H O . . % + . + ;.!.X.. . + + o ; a b b a ; .                           ",
"                              o $ k l O.E.+.f h J { { { g . . o . . . . . . . . . $ 7 a h p > ; o                               ",
"                            . 7 I G I : ..W.O.K U E { { { g 5 ;.1 . . . . o H 9 a h d 6 $ %                                     ",
"                            = Q s.s.^ Y : ..E.x E { { { { { <.<.+ . . . . 8 ,.~ p * & %                                         ",
"                          $ G s.p.p.p.^ Y : ;.-.K { { { { { | g o . . . o 7 R { f o , , o                                       ",
"                        @ F s.p.p.p.p.u.} S O.E.9 ~ { { { { { R 7 . . $ f ] { { I 8 k h , o                                     ",
"                      o : _ f.x.d.d.p.u.} F 5 3.;.A { { { { { { K @ > b ] { { { Y l k 7 b >                                     ",
"                      % F s.x.x.f.f.p.u.} { 9 4.W.8 D { { / } { R b J ] { { { { { A z 8 f f o                                   ",
"                    . ; ~ f.x.x.f.f.p.u.} { g z 3.+.: A G u.( ' U P ] { { { { { { A k k ; b a %                                 ",
"                    ; J ^ f.x.g.h.p.p.u.} { j $ -.2.4.5.#.w Q { { { { { { { { { Y T 2.;.x a b &                                 ",
"                  o a E u.d.h.d.p.p.p.u.} { j 5 E.XXqXwX#X}.O.I } { { { { { { E l 4..X_.-.7 b h %                               ",
"                o > J { u.p.p.p.p.p.p.u.} E f 5 W.@XrXuXwX0XXX@.! / / } { { { g 2.`.].`.4.z D E ; .                             ",
"                $ h P } u.p.p.p.p.p.p.a.} D # k W. XaXdXyXwX0X}.+.` u.G S D S l _.].].W.<.z g { D o                             ",
"              o a d J } u.p.p.p.p.p.p./ { D . =.W.W.9XdXsX0X$X|.W.H w O.;.O.z O.3.Q.R.4.-.k a ] E ; .                           ",
"              $ h j E } u.p.p.p.p.p.u./ { D + &.4.4.[.XXXXXX|.].E.O.O.+.z l q 8 8 T -.-.&.k a L L b ;                           ",
"            @ f h 9 { } a.p.p.p.p.u.) { { D z <.4.4.4.<.;.3.E.4.l 8 9 I Y Y E E E F 8 8 k k a n n n 7 o                         ",
"          . 7 b p S { { / p.p.p.u.( { { { 9 O.W.`.3.z z g g g A E U U R ' ' ' ' ' R U P j > , b n n b , o                       ",
"          $ h h ; E { { / u.u.u.^ ( { { R & ;._.=.T A S { { ] R P L P R R R R R R R R R R P h 7 b n P U , o                     ",
"          ; b ; = { { { } / ( ) ^ } { { I % 8 l K Y { { ] P R ] ~ ~ } a.s.a.a.a.a.a.) { { { ] j , b R { j %                     ",
"        o 7 b $ = { { { { / a.^ } { { { K o g E { { { { R ] } ( s.u.u.u.p.p.p.p.p.p.u./ { { { { j ; b L b a %                   ",
"        $ b f $ 7 { { { { { } } { ] R ' h o S { { { { { { } a.p.p.p.p.p.p.p.p.p.p.p.a.} { { { { U $ ; b n n ; .                 ",
"      o a n ; % J { { { { { { { { E R L f o S { { { { { { ( p.p.p.p.p.u.u.u.p.u.^ ) } { { { { { { J $ f n n f @                 ",
"      @ b n ; % J { { { { { { { { { { ] h o S { { { { { { ( p.p.p.p.u.) ( ( ( / } { { { { { { { { ' > $ b n b ;                 "
};
