/* XPM */
static char *_45b12449e614bafc9bfeb52fa12368cw3ZcVUXwcIgHiATO[] = {
/* columns rows colors chars-per-pixel */
"64 64 256 2 ",
"   c #0D0C1B",
".  c #080B16",
"X  c #140E1B",
"o  c #1C0D1C",
"O  c #180C14",
"+  c #0C121C",
"@  c #091418",
"#  c #14131D",
"$  c #1A141D",
"%  c #17161A",
"&  c #140F0E",
"*  c #250E19",
"=  c #23151D",
"-  c #28181A",
";  c #37171B",
":  c #24100B",
">  c #2E281C",
",  c #170D26",
"<  c #0C1322",
"1  c #0B1728",
"2  c #141423",
"3  c #1B1323",
"4  c #141A22",
"5  c #1D1B23",
"6  c #1B152C",
"7  c #17172A",
"8  c #0F1029",
"9  c #231422",
"0  c #2C1B24",
"q  c #281926",
"w  c #331322",
"e  c #331B24",
"r  c #331D2A",
"t  c #3C1D2C",
"y  c #3A1925",
"u  c #381E32",
"i  c #291A30",
"p  c #192728",
"a  c #13262F",
"s  c #2A2427",
"d  c #3A232C",
"f  c #362729",
"g  c #3A342A",
"h  c #292435",
"j  c #382935",
"k  c #3C3436",
"l  c #2E3D2A",
"z  c #0E291D",
"x  c #46161B",
"c  c #441C2C",
"v  c #4C1D2B",
"b  c #461A24",
"n  c #571E2C",
"m  c #4B1D33",
"M  c #541F31",
"N  c #621E2C",
"B  c #44232C",
"V  c #4C222C",
"C  c #472628",
"Z  c #54232C",
"A  c #5C232B",
"S  c #592629",
"D  c #49372B",
"F  c #58322D",
"G  c #492836",
"H  c #542533",
"J  c #5C2533",
"K  c #532B33",
"L  c #5C2B34",
"P  c #59293A",
"I  c #483538",
"U  c #593538",
"Y  c #66272C",
"T  c #632B34",
"R  c #6B2C3A",
"E  c #662836",
"W  c #762D39",
"Q  c #6C333A",
"!  c #683638",
"~  c #74343B",
"^  c #7B353C",
"/  c #743A3B",
"(  c #7C3A3C",
")  c #783735",
"_  c #79362F",
"`  c #45241D",
"'  c #354B32",
"]  c #3B5B2C",
"[  c #484636",
"{  c #584A3A",
"}  c #5B4C2F",
"|  c #68463A",
" . c #744F3C",
".. c #50723C",
"X. c #3B364A",
"o. c #452C46",
"O. c #443743",
"+. c #533749",
"@. c #6A3544",
"#. c #7C3442",
"$. c #753C41",
"%. c #7B3A43",
"&. c #763646",
"*. c #713047",
"=. c #244643",
"-. c #307246",
";. c #1D5A54",
":. c #4C4946",
">. c #594945",
",. c #5A5646",
"<. c #48485B",
"1. c #555451",
"2. c #774546",
"3. c #6B5747",
"4. c #745C45",
"5. c #755C4D",
"6. c #795D4D",
"7. c #745649",
"8. c #675955",
"9. c #765C51",
"0. c #795E52",
"q. c #7A5D5A",
"w. c #755955",
"e. c #6C4A49",
"r. c #68654A",
"t. c #75624C",
"y. c #7B634D",
"u. c #7B6B4C",
"i. c #766152",
"p. c #7B6253",
"a. c #7D6953",
"s. c #7C6359",
"d. c #796859",
"f. c #726F54",
"g. c #58556A",
"h. c #554E6B",
"j. c #695C6C",
"k. c #67687A",
"l. c #736D6F",
"z. c #546767",
"x. c #823A3D",
"c. c #873939",
"v. c #963C3A",
"b. c #873733",
"n. c #98442C",
"m. c #88453A",
"M. c #93433C",
"N. c #9B443C",
"B. c #994737",
"V. c #96543B",
"C. c #8D4A2F",
"Z. c #A64538",
"A. c #A5432E",
"S. c #843B44",
"D. c #883B46",
"F. c #913947",
"G. c #864648",
"H. c #964745",
"J. c #8C5647",
"K. c #985748",
"L. c #8B4551",
"P. c #895957",
"I. c #995B55",
"U. c #934052",
"Y. c #A45B56",
"T. c #A45247",
"R. c #86644D",
"E. c #9A6449",
"W. c #88764B",
"Q. c #836C54",
"!. c #846C5B",
"~. c #856655",
"^. c #946552",
"/. c #9C6554",
"(. c #976A57",
"). c #867355",
"_. c #8A745C",
"`. c #8E7A5B",
"'. c #887658",
"]. c #927D5C",
"[. c #967B58",
"{. c #A4674B",
"}. c #A76A56",
"|. c #B36B57",
" X c #A97558",
".X c #B37757",
"XX c #8A7763",
"oX c #927C61",
"OX c #947A64",
"+X c #856E6B",
"@X c #AF7862",
"#X c #5A854F",
"$X c #948355",
"%X c #95845C",
"&X c #9A855C",
"*X c #94895C",
"=X c #9B8A5C",
"-X c #9A8555",
";X c #8C8756",
":X c #A68559",
">X c #B88359",
",X c #8D8662",
"<X c #958462",
"1X c #9A8663",
"2X c #9B8A64",
"3X c #9C8A6A",
"4X c #988767",
"5X c #9A8E6C",
"6X c #A38C64",
"7X c #A58969",
"8X c #B68C64",
"9X c #A59169",
"0X c #C48664",
"qX c #C8895E",
"wX c #787987",
"eX c #797B93",
"rX c #6B6C84",
"tX c #5D6E80",
"yX c #837984",
"uX c #7A8597",
"iX c #7C868F",
"pX c #758EA4",
"aX c #858A98",
"sX c #8B9599",
"dX c #96999B",
"fX c #8E8689",
"gX c #878EA2",
"hX c #8895A5",
"jX c #969BA6",
"kX c #9AA5AC",
"lX c #A6A9AA",
"zX c #A7ABB6",
"xX c #AEB2B9",
"cX c #B4B7B7",
"vX c #B1ACB0",
"bX c #A1A1A4",
"nX c #BCC4B7",
"mX c #C6C8BC",
"MX c #B7BAC2",
"NX c #A6AAC5",
"BX c #C0BBC2",
"VX c #BDC1C5",
"CX c #C8C8C6",
"ZX c #D3CCC9",
"AX c #D8D3CD",
"SX c #CACBD1",
"DX c #D7D5D3",
"FX c #CDD1CD",
"GX c #E1DDDB",
"HX c #E6E2DC",
"JX c #E9E8E6",
"KX c #F3EEEA",
"LX c #F8F3EA",
"PX c #FAF8F6",
"IX c #EBF1F0",
"UX c #DDE1E4",
/* pixels */
"0.0.0.0.0.0.0.0.0.6.p.5.p.9.9.p.0.0.6.0.0.0.p.5.t.3.p.9.5.p.6.6.9.0.p.7.6.p.3.0.5.9.5.p.9.6.t.6.0.6.6.y.6.6.9.0.0.0.0.0.0.0.0.0.",
"0.0.0.0.0.0.0.0.0.6.9.9.0.6.0.5.p.6.5.p.6.7.6.0.q.q.0.9.i.s.w.s.p.3.a._.Q.Q.!.!.Q._.p.9.9.0.0.0.0.0.6.6.6.0.0.0.0.0.0.0.0.0.0.0.",
"0.0.0.0.0.0.0.0.9.0.6.0.0.0.p.0.0.q.w.w.w.s.s.9.0.7.p.~.p.0.w.q.4.Q.oX2X2X1X4X4X3X<Xy.0.0.s.9.0.9.0.0.9.9.0.0.9.0.0.0.0.0.0.0.0.",
"0.0.0.0.0.0.0.0.0.0.0.0.5.5.5.5.4.y.~.p.p.p.~.6.p.p.0.9.3.5.a.3.y.oX<X%X&X%X%X<X<X_.4.5.5.5.5.y.9.9.0.0.0.6.9.0.0.0.0.0.0.0.0.0.",
"0.0.0.0.0.0.0.0.9.0.p.5.0.0.5.p.a.3.{ >.3.>.{ ,.>.8.j 5 $ f Q.[.1X1X&X=X-X$X&X%X2X<X).!.6.6.0.6.a.i.5.9.0.9.6.0.0.0.0.0.0.0.0.0.",
"0.0.0.0.0.0.0.0.9.9.p.7.p.p.9.9.:.I 0 w e w = 9 - - t G B 3.3X*X].<X4X<X<X<X<X4X$X%X%X<XQ.7.w.!.XXQ.4.5.0.0.0.6.0.0.0.0.0.0.0.0.",
"0.0.0.0.0.0.0.0.p.9.p.7.6.5.i.D : d K J E E E E E T b - >.XX`.=X=X*X=X*X4X2X*X2X4X2X$X&X4XoXp.5.<X`.Q.t.9.0.0.0.0.0.0.0.0.0.0.0.",
"0.0.0.0.0.0.0.0.i.7.6.0.0.i.+Xf v L J A Z b e q 5 5 O I 8.3.6.oXd.D g I j k k f D OX3X$X%X2X$X].&X4XoXa.5.9.0.0.0.0.0.0.0.0.0.0.",
"9.p.7.0.q.q.9.5.p.6.q.5.p.!.2Xg v L Z L L S Q W *.B q s 0 0 q q j Q W E *.W R U , k ).-X4X;X$X7X1X&X;X$Xq.9.i.0.6.6.6.6.0.0.0.0.",
"p.6.5.p.5.y.!.Q.5.p.s.y.1X<X4Xj V L L ; V L T $.( %.#.%.#.#.~ T ~ ~ %.2.) ) G.^ V ; O :.3X:X$X%X,X4X&X3Xs.6. .t.p.p.0.9.6.5.5.p.",
"0.7.0.0.4.W.6X<Xs.5.Q.$X=X%X3Xj V A Y K t c L Z F ~ ^ %.( W S.%.x.x.%./ ) x.T J L Y V 3 :.5X,X,X%X5X-X_.6.9.6.q.9.9.9.0.p.0.9.p.",
"0.6.p.5.y.W.=X!.5.u.1X=X%X1X2Xg e J N L G m b B Z n R n Q S.#.~ / &.#.( 2.L w = 9 e S V o ,.7XOX].3X_.8.9.r.t.0.9.p.0.9.9.0.0.6.",
"6.6.0.p.oX6X<Xs.!.%X$X$X4Xa.W.'.5 H Y S S J v y m t r B ! / %.~ ^ / x.H.L , 7 @ w u c T y g [ > ] s.3.f j y.t.4.7.0.0.0.0.9.9.6.",
"p.6.6.Q.4XoXt.5.oX%X2X].0.p.-X;X4 t T A Y n H t c r ; ~ F.c.x.x.) ) M._ =   2 + = i d C A r . f.-.l D 6.k R.q.w.!.y.4.6.p.0.9.p.",
"6.9.p.`.2XXX9._.1X2X_.6.9.~.$X4X:.: G L A A V r = - G R ^ L.S d / v.( - @ 7 X 4 3 9 0 B H u @ ..-.=.} e.8.%X~.p.3X].a.5.5.9.0.0.",
"0.q.!.%X$Xa.5.].=X'.s.9.p.].:XOX5X{ O t L H y q = P Q E A Z U q ! D.b @ 7 . @ 2 + < # = t V - p -.1.7Xf f { _.u.W.<X<XQ.6.0.0.0.",
"p.3.'.2X).6.0.0.].).5.w.a.2X=X%X%X2X{ h 3 s 3 9 #.%.c p h y e.> S K 2 @ O y w s s h s f . 3 $ . k 8X XE.H.2.D [ C >.oX1Xp.0.4.0.",
"w.6._.<XQ.5.0.p.t.p.9.7.!.`.].1X%X4X=X$X0 , e ! ( c.F ' -.z F ! s 7   j U (.@X X{.{.}.^.U B I O.{. XT.Y.| 3.8.| >.; } 4X0.0.y.0.",
"0.9.Q.!.y.6.0.4.9.w.9.`.].4._.2X1X-X%X,.: L %.( v.B.Z.R ' r.L.|.% 5 U I.0X8X8X0X:X X{.E.}.E.|.|./.#X[ t O.+.1.{ } D 3.XX5.6.6.w.",
"0.6.6.0.0.p.0.7.q.9.t.'.Q.5._.%X7Xt.I * F  .^ M.H.N.n.L -.' s W.J.( Y.{.:X:X8X>X{. X@XE.K.m.K.G.f -.;.;.k Q.;X9X9X4Xi.3.p.y.6.w.",
"4.y.0.0.0.9.9.0.0.4.).!.5.p.'.9X9.B L &.&.R M.Z.Z.T.C ..#X=.- 7.Y.H.K.}..X8X X{. X>X XK.}.I.L.G.5 ..-.=.q 9.'.:X`.<X!.9.p.7.9.p.",
"6.p.p.9.6.6.6.p.0.4._.!.w.Q.3Xy.c E x.( c.v.Z.B.C.Z.V ] ' Y x.X  .I.P.| | G.Y. X.X X{.{.{.{.K.K.8.yX. j F 0.!.*X%X2X!.0.5.p.9.5.",
"6.0.5.4.u.).).a.0.0.0.5.6._.!.; W / $.c.n.N.H.n.A.A._ A x.m.: U E.C $ < 7 i @.K. X:X}.E.{.}.H.K./ : f a.'.q.XX=X<X=XQ.p.6.0.w.y.",
"0.q.0.p.'.2X2X`.p.w.w.y.Q.0.y U / ( K.I.I.K.V.N.H.N.Z.H.C.% o G.j   2 # 4 h i +.}.{.}.I.K.K.G.I.Q t H C `. .XX=X<X=X%Xa.6.w.q.4.",
"0.5.y.].%X$X4X`.0.6.4.P.>.= R S.b.K.(.(.^.(.(.R.Z.B.b.! $ . L ! # 4 X 3 + i o.o.G.Y.Y.H.H.U.K.J.F.H y q f.-X<X<X<X&X<Xa.p.Q.4.0.",
"9.~.XX1X&X%X<XQ.5.0.p.w.% V ) H.K.^.~.~.^./.(.^.M.M.$.q 2 5 +.r   < # $ + 3 G j S.m.m.K.L.@.U ! L.K d y g 3X%X1X4X=X2Xp.p._.y.0.",
"5.!.4X1X%X%X1X).0.9.s.[ = #.F.B._.^./.(.(.^.^.^.H.c.G 2   f I 6 7 + # # + h j I D.D.G.$.B q 3 r 2.P - J $ 5.2X<X%X%X2Xy.a.oX4.9.",
"6.Q.4X%X%X%X4X1Xp.5.w.p K ~ v.V.^.(.(.R.R.(.^.J.H.S % 3   f f 2 2 # 2 7 2 h j j %.F.G.y # # h h G G = J e g 5X<X1X%X2X`.oXXX7.p.",
"t._.2X&X&X%X<X1X].).D 0 #.%.F.V.K.K.E.^.).^.H.b.@.; @ o . f j . # $ 2 2 7 , o.G G.F.L.0 + . h j o.C 9 H L O 3.=X%X%X%X1X3X_.5.p.",
"p.oX2X%X%X4X<X%X%X7X[ P x.~ G.{./.K.B.K.K.G.( W u $ + 7 . d H . # # # 7 6 h j +.x.D.@.q < + i G o.C 9 c E 0 ,.6X$X4X%X%X1X_.6.6.",
"a.4X%X%X%X4X4X&X<X6X[ P x.) D.B.V.K.H.M.v.#.K q X # < 7 r U @.3 + X 7 7 6 X.0 @.K.K.c   1 6 r j +.j % B H e ,.6X%X4X<X-X2XXX9.p.",
"a.4X$X=X<X4X<X%X<X6X[ V ( ) x.n.Z.N.N.v.~ v 9 < = # 1 3 G.K./.B . 3 7 2 j q +.I. X}.B @ a 6 u X.P 6 s b c x ,.6X%X<X<X$X=XoX3.p.",
"a.%X%X%X%X<X<X&X$X5XI ; J J R x.c.B.m.R u @ % o # o + # ! @X8XE.e , < + q F {.|.>X+XG < 6 r j +.j O r t c ; | 7X<X4X%X%X2X`.4.w.",
"p.2X2X<X=X%X4X%X&X2Xr.& u V b F @.R S e q # 2 1 < X 2 < s J.0X8X Xe.B K G.}.E. Xa.1 @.L 8 6 d &.f # o r d O 3.6X].).<X2X&X_.6.9.",
"p.<X].<X2X%X4X%X4X[.3X8.$ t H v m Q R P = . +   + X 3 7   - 7.@X XI.H.Y.M.{.E./.U o.e.K.! I G.H.G 4 # - P w ,.2X].t._.=X&X_.5.t.",
"!.`.u.<X2X1X<X=X4X4X%X2X3.& t P Y Q ~ %.J * % # 4 o # 2 6 + % ! / G.H.K.K./.}.T.I.K.E.}.K.T.Y.G.q o d b @.q >.6X].5.p.$X6XXX5.y.",
"!.).4._.%X1X<X%X&X4X<X=X2Xr.s = y H &./ %.&.t 2 1 o $ @ 2 7 X G &. .}.^././.{.{./.{./.H.L.e.e.q   r t N M % d.=X].9.9.].2X!.9.4.",
"p.a.i.p.%X%X4X%X*X[.1XoX4X&X3X,.s w c *.^ ~ G.S 2 . 2 # X # $ I L.V.>X X/.}. X{.E.}.J.c.@.1 X < 4 r e P ; g 4X*X].9.9._.!.6.p.4.",
"9.6.p.6.%X&X4X%X,X2X[.7X].&X:X7X+X. . w R S.c.n.T r + $ $ 2 # e x..X@XJ.}. X X}.T.8X.Xm.3 8 X $ X ; J G - r.2X1X!.9.5.d.5.7.p.0.",
"0.4.9.i.%X2X%X%X~.!.5X;X-X<X3XW.' k.wXp q P #.x.Z.G.r @ X 2 1 $ K.}.(.V E.qX.XJ.I {.|.2.= 1 + $ V C E 9 g 7X*XOX6.6.9.9.0.p.5.0.",
"6.5.q.9.Q.4X<XQ.7.a.1X<X<X-XOX' h.wXaXuXiXf b #.x.H.x.0 3 3 @ 3 / P.D O I.|.^.s 5 7.m.0 1 X b ~ ^ P 9 s XX%X2X`.p.5.0.p.6.6.p.9.",
"6.s.9.5.u.%X2Xy.i.5._.*X*X'.k h.g.h.g.aXMXsX8.I / ( ( L X 4 o 4 O O + 2 U | d . , 7   o 0 K / #.B o f XX:X:X&Xy.9.9.0.0.6.6.0.0.",
"5.0.0._.].%X1XQ.5.0._.=XW.:.k.aXlXjXwXuXuXhXSXfXf T S.S.G @ 2 o + 7 1 7 O . < 2 @ 9 t b @.m y $ $ ,.a.=X-X6X_.d.9.0.0.6.6.0.0.0.",
"p.9.6.].1X%X&X].6.0.p.-Xy.X.hXkXCXcXMXSXMXaXcXGXfXy L / ^ c 4 X 2   3   2 a < 5 v H G B ; g f.f.'.4X=X*X<X_.5.9.0.9.6.a.6.0.0.9.",
"p.9.5.y.`.1X1X].R.9.q.[.f.  h j C C C fXcXCXcXJXPXk.; Y _ &.G @ 3 O $ # 4 . * G E c h 4 ,.*X:X:X=X-X=X%X,Xd.9.P.0.6.!.oXp.9.0.6.",
"5.9.p.6.a.oX<X1X`.i.q.s.:.# T c.C.N.M.S k dXvXUXPXlXB W T L *.f . 4 # + # d @.J ` Z H 0 s XXoX&X4X4X&X&X4X_.6.4.5.Q.oX3Xp.9.0.9.",
"0.p.9.5.9.p.`.2X<X4.6.I o K x.v.Z.n.n.Z.M.D jXNXIXPXlXI Q W Y K d . < 0 y T R R W R Y E w % f.2X<X<X4X&X[.6XOXy.6.`.1X<Xt.w.9.i.",
"6.p.5.q.s.9.p.u.y.6.d.0 L M.( G.v.N.B.B.Z.H.Z bXcXZXAX:.L D./ *.S 3 i H ~ ~ ^ _ b.&.U S F e >.9X-X$X<X%X%X&X4Xa.p.4X%X).5.s.9.i.",
"p.5.0.y.%X%X).7.8.P.5.s c A 7.K.H.G.N.B.B.M.x yXkXCXlXjX:.F D.D.! V c L ( S.^ / $.~ ^ L E E : 8.&X*X&X4X,X:X&Xf.u.4X3Xp.5.p.5.0.",
"5.0.0.4.'.3X4X_.4.e.f 0 H v y V / e. .I.K.G.P.k lXvXxXjXlX>.; Q c.Z G b G.b.^ &._ v.S.R H G e q 5X%X%X*X4X&X=X<X%X4X`.y.6.0.5.p.",
"9.p.5.p.t._.3X[.7X:.3 H R Q P P V b ; S 2.! U f cXvXBXxXjXjX+XU S A @.b T G.) D.c.S.K P b B E = [ 7X*X%X&X4X].4X%X4X).6.9.0.0.0.",
"p.6.5.p.9.6.`.2Xa.s t ~ b.B.M.x.~ #.@.R L V b e 8.xXxXDXaXuXSXvXa y &.L V D.M.Y Z x d v b Z Y V s <X*X%X=X'.p.].&X1XQ.6.9.9.p.6.",
"0.5.p.7.s.0.4.).s ; T ^ v.A.v.v.H.m.x.%.&.*.H x O.zXdXZXCXgXiXMXMXsXk G x x F v C R ) S.K e R %.* { 7X&X<X4.p.].6X`.4.6.p.9.9.p.",
"0.0.i.5.0.9.d.[ 5 Z Y ( H.N.V.T.B.v.N.( %.R b R O.SXsXnXAXCXsXuXsXCXDXwX1.- e 9 w G.2.D.@.r Q ) K s OX6X+X5.y.~.'.Q.6.6.0.9.0.0.",
"5.0.9.a.6.6.d.s e n Y ( H.N.K.M.Z.Z.N.x.~ L G L O.FXzXjXCXAXcXsXaXsXcXPXIXsXdXfXl.w - B w o b / $.* f t.0.9.4.p.7.0.p.6.6.p.0.9.",
"0.0.w.5.y.5.I 6 Z H @.b.n.B.K.B.B.Z.M.x.S.T A ~ l AXlXgXCXmXZXVXhXpXhXlXAXPXPXKXDXlXdXdXsX<.4 P E L % >.R.6.q.4.s.9.0.9.0.p.6.0.",
"9.0.t.7.!.:.  A m B S.! H.T.V.n.A.H.x.) c.V L T 1.DXzXaXCXZXZXZXVXaXaXgXuXkXSXCXJXGXHXJXVXgXeXX.t S e 6 1.R.6.w.0.0.0.p.0.9.9.0.",
"9.0.p.p.5.f u T w C ( / c.Z.B.Z.n.) %.^ S.f w >.SXCXaXaXCXZXCXCXAXmXjXaXaXuXgXaXjXvXbXjXwXwXk.g.j V L e o ,.~.0.0.9.9.0.0.0.0.0.",
"5.0.5.R.>.o H V r Q x.^ x.H.M.N.M.G.~ #.R 9   k.MXyXg.aXCXAXAXDXKXDXGXCXxXlXiXaXrXk.j.g.g.k.k.k.<.i W Q r s 0.6.0.9.6.0.0.0.0.0.",
"0.~.9.Q.:.0 E 0 q #.^ ^ / c.b.c.D.^ S.D.R # <.gXiXk.g.aXCXCXCXcXDXKXGXJXKXCXVXVXhXuXgXuXuXeXeXuXk.X &.S.c $ >.0.0.9.9.9.0.0.0.0.",
"6.5.q.i.s t Y # % %.( ^ %.c.v.H.c.%.%.( T . <.rXk.h.k.aXSXZXAXbXjXCXJXKXLXKXKXPXJXDXSXxXjXkXjXlXaXk r L T c $ 8.p.0.0.0.0.0.0.9.",
"i.i.s.[ = P V 4 e #./ ~ %.) x.( ^ Q ! / V < O.j.g.rXeXaXxXZXZXCXaXjXSXJXJXPXLXLXLXLXLXLXPXIXCXCXFXMXz.t S E 3 I 0.0.0.0.0.0.0.9.",
"9.6.5.s y E 0 # T S.^ $.S./ ( ~ ~ Q T S Z . X.k.wXeXk.wXjXDXZXFXzXaXrXaXlXCXDXKXPXLXHXDXGXDXZXAXCXjXuXj n R B = 5.9.0.0.9.0.0.0.",
"9.6.P.s H Y i X E ( ) $.S.) ( #.%.%.%.%.n   <.k.k.rXrXsXaXvXZXCXFXlXiXwXk.k.wXfXkXzXkXjXjXjXjXfXl.k.k.q H Z A s 7.6.0.0.9.0.0.0."
};
