/* XPM */
static char *_e2df10cfa8c478296a57771e266c23eGPgBhI7negV5cV04[] = {
/* columns rows colors chars-per-pixel */
"64 64 221 2 ",
"   c #30382E",
".  c #4D321A",
"X  c #593A1B",
"o  c #613D1F",
"O  c #442F21",
"+  c #463525",
"@  c #4E3E29",
"#  c #493726",
"$  c #543C24",
"%  c #513E28",
"&  c #533720",
"*  c #443E30",
"=  c #613E22",
"-  c #2D4437",
";  c #2E4639",
":  c #33463B",
">  c #3C453A",
",  c #334A3B",
"<  c #3B4A3E",
"1  c #314637",
"2  c #46412F",
"3  c #54422A",
"4  c #5A442A",
"5  c #5A4325",
"6  c #444234",
"7  c #4A4534",
"8  c #444A3C",
"9  c #494B3B",
"0  c #43473A",
"q  c #574834",
"w  c #58513A",
"e  c #69472C",
"r  c #654D2A",
"t  c #6B4C2C",
"y  c #634527",
"u  c #734E27",
"i  c #66512A",
"p  c #6A512C",
"a  c #634B32",
"s  c #6A5335",
"d  c #745432",
"f  c #7B5733",
"g  c #7B5B36",
"h  c #7D5C39",
"j  c #735B3C",
"k  c #7A5328",
"l  c #78603A",
"z  c #354C42",
"x  c #3B4D42",
"c  c #3B4E4D",
"v  c #334945",
"b  c #355146",
"n  c #3B5345",
"m  c #36544A",
"M  c #3E5649",
"N  c #3D594B",
"B  c #494B41",
"V  c #405649",
"C  c #41594C",
"Z  c #4A594E",
"A  c #495346",
"S  c #5B5947",
"D  c #4B5952",
"F  c #425657",
"G  c #525E58",
"H  c #655B45",
"J  c #6B5B52",
"K  c #56645C",
"L  c #5E6249",
"P  c #7D6745",
"I  c #7B6B59",
"U  c #5D6A63",
"Y  c #566A70",
"T  c #68726C",
"R  c #6A7570",
"E  c #825F39",
"W  c #825C36",
"Q  c #835929",
"!  c #85633D",
"~  c #8A653C",
"^  c #8E6738",
"/  c #946D3B",
"(  c #9A6D37",
")  c #95733E",
"_  c #9D733D",
"`  c #9D793F",
"'  c #A2743B",
"]  c #A27A3F",
"[  c #876540",
"{  c #896741",
"}  c #896845",
"|  c #936D42",
" . c #9B7643",
".. c #9E7A4A",
"X. c #947546",
"o. c #987854",
"O. c #88794A",
"+. c #A37A43",
"@. c #AB7D43",
"#. c #A37A48",
"$. c #B07F45",
"%. c #907B6A",
"&. c #79827D",
"*. c #88965A",
"=. c #8C8952",
"-. c #A88149",
";. c #BD8B47",
":. c #BC8E4A",
">. c #B58747",
",. c #B88F53",
"<. c #BA9654",
"1. c #AE8E52",
"2. c #BCB05E",
"3. c #998668",
"4. c #92907C",
"5. c #B29567",
"6. c #AE9775",
"7. c #B39A77",
"8. c #A4B668",
"9. c #C3934B",
"0. c #CA9B4D",
"q. c #C8964D",
"w. c #CD9E55",
"e. c #C59956",
"r. c #C18F46",
"t. c #CEA159",
"y. c #C1A75C",
"u. c #D4A356",
"i. c #D5A559",
"p. c #DAA659",
"a. c #DBAA5C",
"s. c #D8A85A",
"d. c #E3AD5B",
"f. c #DBAD65",
"g. c #C9BF60",
"h. c #E3B76C",
"j. c #B1C475",
"k. c #C2D77C",
"l. c #6A7C8C",
"z. c #6E7F91",
"x. c #758593",
"c. c #75879B",
"v. c #77858B",
"b. c #7B8DA3",
"n. c #7E91A6",
"m. c #7DADFB",
"M. c #7CA4E9",
"N. c #858A8A",
"B. c #959896",
"V. c #AA988B",
"C. c #9CA09E",
"Z. c #ADA89A",
"A. c #BBA99A",
"S. c #BBA38B",
"D. c #8496AA",
"F. c #929BA3",
"G. c #8A9DB5",
"H. c #98A9BC",
"J. c #9CA3A9",
"K. c #ACADAC",
"L. c #A4A4A4",
"P. c #B6ABA6",
"I. c #ADADB4",
"U. c #B7B7B7",
"Y. c #B1B3B3",
"T. c #C3B3A8",
"R. c #D1E889",
"E. c #C9C4BB",
"W. c #88A9DE",
"Q. c #9AAEC9",
"!. c #B5BBC8",
"~. c #A8B9D5",
"^. c #86ACEA",
"/. c #98B7E8",
"(. c #83B1FB",
"). c #8CB6FB",
"_. c #8EB8FA",
"`. c #96BCFC",
"'. c #82ACF4",
"]. c #B9C6D9",
"[. c #99C1FE",
"{. c #ADC1E4",
"}. c #A3C5FD",
"|. c #ABCAFC",
" X c #A9C7F6",
".X c #B1CDFD",
"XX c #B3CBF1",
"oX c #BCD5FD",
"OX c #B6D3FF",
"+X c #B4C8E9",
"@X c #CBCBCB",
"#X c gray76",
"$X c #D4D4D4",
"%X c #D8D9DB",
"&X c #CDD0D4",
"*X c #E3DEDB",
"=X c #E8E4DA",
"-X c #F1E8DA",
";X c #C5D3EB",
":X c #C5D9FA",
">X c #DEDDE2",
",X c #E1DFE2",
"<X c #D2E2FD",
"1X c #DCEAFE",
"2X c #D8E7FE",
"3X c #D7E1F3",
"4X c #E3E3E3",
"5X c #EDEAE2",
"6X c #ECECEC",
"7X c #E9E7EA",
"8X c #F6F3EC",
"9X c #E2EDFF",
"0X c #EAEEF7",
"qX c #E4F2FF",
"wX c #ECF4FE",
"eX c #EEF6F9",
"rX c #F4F4F4",
"tX c #F5FAFE",
"yX c #FEFEFE",
"uX c #F7F6F9",
"iX c #F2EEEF",
/* pixels */
"M M M M M M M M M M M M M M M M M M M M M M M M M M M M M M M M M M M M M M M M M M M M M M M M M M M M M M M M M M M M M M M M ",
"M M M M M M M M M M M M M M M M M M M M M M M M M M M M M M M M M M M M N M M M M M M M M M M M M M M M M M M M M M M M M M M M ",
"M M M M M M M M M M M M M M M M M M M M M M M M M M M M M M M M M M M M M M V V M M M M M M M M M M M M M M M M M M M M M M M M ",
"M M M M M M M M M M M M M M M M M M M M M M N M M M M M M M M M M M M M M V N m C M M M M M M M M M M M M M M M M M M M M M M M ",
"M M M M M M M M M M M M M M M M M M M M M N b N N M M M M M M M M M M M V N 8 w x C V M M M M M M M M M M M M M M M M M M M M M ",
"M M M M M M M M M M M M M M M M M M M M M x q q x M M M M M M M M M M M N < $.d.j b C M M M M M M M M M M M M M M M M M M M M M ",
"M M M M M M M M M M M M M M M M M M M V N 7 +./ 7 N M M M M M M M M M M C x +.p.j b C M M M M M M M M M M M M M M M M M M M M M ",
"M M M M M M M M M M M M M C C M M M M M M 8 d u > N V M M M M M M M M M C , ~ ' > N M M M M M V M M M M M M M M M M M M M M M M ",
"M M M M M M M M M M M M M n x M M M M M V N * f q m M M M M V V M M M C b s d.p.w m V M M M n N N M M M M M M M M M M M M M M M ",
"M M M M M M M M M M M N x s d 8 M M M M M n a | W 0 N M M M V V M M V N 0 q.s.a.l b C M M M n 9 9 n M M M M M M M M M M M M M M ",
"M M M M M M M M M M V N 6 ' _ 6 N V M M N > t { ~ d z N M M V V M V N : @.d.u.a.+.< C M M N 9 @.@.9 N V M M M M M M M M M M M M ",
"M M M M M M M M M M M N x a =   N M M M N 2 p { ! ~ 4 n M M C M M C z ! d.u.i.s.r.w m V V N 9 -.,.A N V M M M M M M M M M M M M ",
"M M M M M M M M M M M M M b 0 & : N M V n 3 p ! ! ~ ~ 7 n n n M V b s p.i.i.p.i.q.~ z N M N x a 9 n V M M M M M M M M M M M M M ",
"M M M M M M M M M M M M M C n 4 + > N N > y i g { ! { f B Y c c m 7 q.s.i.i.s.i.9.;.9 N C z H H b M M M M M M M M M M M M M M M ",
"M M M M M M M M M M M n M V N 7 % O 6 m 2 r r d ! ! ! ! j !.wX0XI.@.d.u.i.i.a.t.:.q./ z N 7 3.A M M M M M M M M M M M M M M M M ",
"M M M M M M M M M M M M M M M 8 $ + 5 + % p r p ! ! ! [ ! d *X6X| u.i.i.i.u.f.t.9.9.q.w 6  .3.: C M M M M M M M M M M M M M M M ",
"M M M M M M M M M M M M M M V n 3 + 4 r % p r p ! ! ! ! ~ E } o.] w.i.i.p.u.f.w.9.9.q.9.' 5.I z C M M M M M M M M M M M M M M M ",
"M M M M M M M M M M M M M M V N q % @ p % r i i ! ! ! ! ! !  .+.#.w.i.u.i.u.f.e.9.9.q.i.` 5.S b C M M M M M M M M M M M M M M M ",
"M M M M M M M M M M M M M M M N 9 $ # r 3 r p i ! { { { { ! ..-.-.u.a.s.s.p.h.t.9.9.0.9.) 7.A N M M M M M M M M M M M M M M M M ",
"M M M M M M M M M M M M M M M M 8 4 + r 4 4 r y d h f d d d W ~ ~ @.>.>.>.:.e.,.>.:.u.>.#.6.< M M M M M M M M M M M M M M M M M ",
"M M M M M M M M M M M M M M M M n 4 # 4 $ . $ $ y e e e e e d W W / _ _ / / #.| ^ / +.~ o.3.< N M M M M M M M M M M M M M M M M ",
"M M M M M M M M M M M M M M M N x y $ $ & & 5 5 t h h E E h | / +.e.w.e.:.:.e.@._ _ _ f P P x N M M M M M M M M M M M M M M M M ",
"M M M M M M M M M M M M M M M M n 4 O @ r 3 p r O.{ { ! ! [ ) 1...u.i.w.s.a.f.;.q.0.q.^ ^ H n M M M M M M M M M M M M M M M M M ",
"M M M M M M M M M M M M M M M V m q 3 @ r % i r 2.} E h ! ! ) g.#.w.a.s.i.i.y.<.;.0.q.) -.S N M M M M M M M M M M M M M M M M M ",
"M M M M M M M M M M M M M M M N Z =.# @ p 3 p i h { [ ! ! ! | {  .:.u.t.u.a.y.<.9.u.q.)  .O.n M M M M M M M M M M M M M M M M M ",
"M M M M M M M M M M M M M M M n C P # @ y & X X y o X o = o u k u Q ( ( ( ' +.( ' >.-./ ..L N V M M M M M M M M M M M M M M M M ",
"M M M M M M M M M M M M M M M V n # . . $ q P I %.4.V.Z.A.P.T.T.T.T.T.A.S.7.6.o.| / ^ u ! 8 N V M M M M M M M M M M M M M M M M ",
"M M M M M M M M M M M M M V V m q e G P.*XrXyXyXyXyXyXyXyXyXyXyXyXyXyXyXyXyXyXyXrX*XE.V.3.H n M M M M M M M M M M M M M M M M M ",
"M M M M M M M M M M M M M M M M < A :XyXyXyXyXyX4X7X7X6XrXyXyXyXyXyXtXyXyX-X{.+X5X8XrXyX$X; C M M M M M M M M M M M M M M M M M ",
"M M M M M M M M M M M M M M M N n F ;XtXyXyXwX4X$XM.5X4X].$XyXyXyXyXyX`.<X=X'.XX8X/.].rX4X, M M M M M M M M M M M M M M M M M M ",
"M M M M M M M M M M M M M M M M n c ;XyXyXyX|.^.}.|.OX}.[.=XuXyXyXyXyXoX_.W.<X|.}.[.-XyX7Xx M M M M M M M M M M M M M M M M M M ",
"M M M M M M M M M M M M M M M N - l.9XyXyXyX1X:X2XtX2X_.4X$XyXyXyXyXyXtX}.<XyX1X|..X{.tXiXV N V M M M M M M M M M M M M M M M M ",
"M M M M M M M M M M M M M M C , D.yXyXyXyX|.(.oXyXyXyXXX{.@XyXyXyXyX|.).oXyXyXyXwX_.W.yXrXV n M M M M M M M M M M M M M M M M M ",
"M M M M M M M M M M M M M C , Y tXyXyXyXyXtX}.wXyXyXyX1X_.^.yXyXyXyXtX.X<XyXyXyXtX}.-XyXuXD n M M M M M M M M M M M M M M M M M ",
"M M M M M M M M M M M M M C - F.eX!.yXyXyXyX<XoXyXyXyX|.;X&XyXyXyXyXyXyX_.wXyXyX9X(.^.yXuXD n C M M M M M M M M M M M M M M M M ",
"M M M M M M M M M M M M M C - F.yX!.iXyXyX1X(.oX<X1X`..X/.8XyXyXyXyXyX|.).|.9XoXoX:X:XyXuXZ n M M M M M M M M M M M M M M M M M ",
"M M M M M M M M M M M M M C ; x.yXyXyXyXyX<XoX1X}.}.tX:X}.yXyXyXyXyXyXwXyX1X_..Xm.wXyXyXuXZ n M M M M M M M M M M M M M M M M M ",
"M M M M M M M M M M M M M M n F ;XyXyXyXyXyXyXyX|.[.yXyXyXyXyXyXyXyXyXyXyXwXm.yXoXqXyXyXuXD N M M M M M M M M M M M M M M M M M ",
"M M M M M M M M M M M M M M C n c x.!.yXyXyXyXyX9XwXyXyXyXyXyXyXyXyXyXuXyXyXyXyXyXyXyXyXiXV n M M M M M M M M M M M M M M M M M ",
"M M M M M M M M M M M M M M M M C   n.yXyXyXyXyXyXyXyXyXyXyXyXyXyXyXU.Y.K.Y.6XyXyXyXyXyX6XV M V M M M M M M M M M M M M M M M M ",
"M M M M M M M M M M M M M M M M C , G.yXyXyXyXyXyXyXyXyXyXyXyXyXyXJ.&XyXyX4XK.yXyXyXyXyX7Xx M M M M M M M M M M M M M M M M M M ",
"M M M M M M M M M M M M M M M M C 1 n.tXyXyXyXyXyXyXyXyXyXyXyXyXyXY.H.6X6XL.%XyXyXyXyXyX%Xz C M M M M M M M M M M M M M M M M M ",
"M M M M M M M M M M M M M M M M C , c.wXyXyXyXyXyXyXyXyXyXyXyXyXyXyX$XI.U.4XyXyXyXyXyXyX$X, C M M M M M M M M M M M M M M M M M ",
"M M M M M M M M M M M M M M M M C , c.qXyXyXyXyXyXyXyXyXyXyXyXyXyXyXyXyXyXyXyXyXyXyXyXyX@X; C M M M M M M M M M M M M M M M M M ",
"M M M M M M M M M M M M M M M M C , x.qXyXyXyXyXyXyXyXyXyXyXyXyXyXyXyXyXyXyXyXyXyXyXyXyXU.; C M M M M M M M M M M M M M M M M M ",
"M M M M M M M M M M M M M M M M C , z.1XyXyXyXyXyXyXyXyXyXyXyXyXyXyXyXyXyXyXyXyXyXyXyXyXK.- C M M M M M M M M M M M M M M M M M ",
"M M M M M M M M M M M M M M M M C , l.1XyXyXyXyXyXyXyXyXyXyXyXyXyXyXyXyXyXyXyXyXyXyXyXyXB.; C M M M M M M M M M M M M M M M M M ",
"M M M M M M M M M M M M M M M M C , l.1XyXyXyXyXyXyXyXyXyXyXyXyXyXyXyXyXyXyXyXyXyXyXyXyXv., C M M M M M M M M M M M M M M M M M ",
"M M M M M M M M M M M M M M M M C , l.1XyXyXyXyXyXyXyXyXyXyXyXyXyXyXyXyXyXyXyXyXyXyXyXyXR , C M M M M M M M M M M M M M M M M M ",
"M M M M M M M M M M M M M M M M C , l.1XyXyXyXyXyXyXyXyXyXyXyXyXyXyXyXyXyXyXyXtXyXyXyXyXK n M M M M M M M M M M M M M M M M M M ",
"M M M M M M M M M M M M M M M M C , l.1XyXyXyXyXyXyX@X@X#XK.U.K.K.$X6X$X$XU.K.6XyXyXyX$X1 C M M M M M M M M M M M M M M M M M M ",
"M M M M M M M M M M M M M M M M C , l.1XyXyXyXyXyXyXyX@X%XuX7XuXyXL.*.8.*.4.rXyXyXyXyXN.; C M M M M M M M M M M M M M M M M M M ",
"M M M M M M M M M M M M M M M M C , l.1XyXyXyXyXyXyXyXyXyXyXyXyXyXE.8.R.k.Z.yXyXyXyX%X: C M M M M M M M M M M M M M M M M M M M ",
"M M M M M M M M M M M M M M M M C , x.1XyXyXyXyXyXyXyXyXyXyXyXyXyX4X*.R.j.Y.yXyXyXyXK z C M M M M M M M M M M M M M M M M M M M ",
"M M M M M M M M M M M M M M M M C , x.9XyXyXyXyXyXyXyXyXyXyXyXyXyXyX#X*.4.7XyXyXyXT , C M M M M M M M M M M M M M M M M M M M M ",
"M M M M M M M M M M M M M M M M C , c.qXyXyXyXyXyXyXyXyXyXyXyXyXyXyXyX>XrXyXyX@XG , C n M M M M M M M M M M M M M M M M M M M M ",
"M M M M M M M M M M M M M M M M C 1 b.qXyXyXyXyXyXyXyXyXyXyXyXyXyXyXyXyX4XK.T : z C n M M M M M M M M M M M M M M M M M M M M M ",
"M M M M M M M M M M M M M M M M C 1 n.wXyXyXyXyXyXyX%XN.B.C.C.B.N.&.T G z - , C C M M M M M M M M M M M M M M M M M M M M M M M ",
"M M M M M M M M M M M M M M M M C 1 D.wXyXyXyXyXyXyXuX!.v - ; - - , , n C C C M M M M M M M M M M M M M M M M M M M M M M M M M ",
"M M M M M M M M M M M M M M M M C 1 G.tXyXyXyXyXyXyXyXyXU n C C C C C M M M M M M M M M M M M M M M M M M M M M M M M M M M M M ",
"M M M M M M M M M M M M M M M M C 1 H.tXyXyXyXyXyXyXyXuXD n M M M M M M M M M M M M M M M M M M M M M M M M M M M M M M M M M M ",
"M M M M M M M M M M M M M M M M C : Q.yXyXyXyXyXyXyXyXuXD n M M M M M M M M M M M M M M M M M M M M M M M M M M M M M M M M M M ",
"M M M M M M M M M M M M M M M M C z ~.yXyXyXyXyXyXyXyXyXG n M M M M M M M M M M M M M M M M M M M M M M M M M M M M M M M M M M ",
"M M M M M M M M M M M M M M M M C z ].yXyXyXyXyXyXyXyXyXU b C M M M M M M M M M M M M M M M M M M M M M M M M M M M M M M M M M "
};
