/* XPM */
static char *_2d7b07c934c4e629290a3bacfba9943zm4ltShJYzuFGHLK[] = {
/* columns rows colors chars-per-pixel */
"64 64 255 2 ",
"   c #04090D",
".  c #090917",
"X  c #130D1C",
"o  c #180C18",
"O  c #0D1319",
"+  c #13131D",
"@  c #1A181C",
"#  c #130D0F",
"$  c #2F161C",
"%  c #31291D",
"&  c #0A0A25",
"*  c #160E26",
"=  c #0D1322",
"-  c #0E1A25",
";  c #141422",
":  c #1C1B2B",
">  c #171628",
",  c #1A1835",
"<  c #0A1032",
"1  c #241A2B",
"2  c #231C35",
"3  c #2A1C34",
"4  c #231B3C",
"5  c #271837",
"6  c #371C3A",
"7  c #2D1529",
"8  c #19232C",
"9  c #1C2238",
"0  c #1A3236",
"q  c #27262C",
"w  c #37292C",
"e  c #282638",
"r  c #37273A",
"t  c #39353C",
"y  c #2D3038",
"u  c #4F1C32",
"i  c #4B3033",
"p  c #713334",
"a  c #602C1F",
"s  c #5A4D3A",
"d  c #764C2D",
"f  c #786930",
"g  c #191D44",
"h  c #261D45",
"j  c #351D48",
"k  c #271756",
"l  c #1D2245",
"z  c #2A2547",
"x  c #382749",
"c  c #393849",
"v  c #3C2B54",
"b  c #392956",
"n  c #3A3557",
"m  c #2A294E",
"M  c #312C6A",
"N  c #481D4B",
"B  c #462849",
"V  c #552A48",
"C  c #463848",
"Z  c #56364B",
"A  c #442B5B",
"S  c #472957",
"D  c #552C58",
"F  c #47345A",
"G  c #5B335C",
"H  c #563459",
"J  c #642D5C",
"K  c #64335C",
"L  c #69375B",
"P  c #763859",
"I  c #6E344D",
"U  c #4B2C64",
"Y  c #483362",
"T  c #5D3463",
"R  c #583764",
"E  c #592F66",
"W  c #662E64",
"Q  c #633464",
"!  c #6A3464",
"~  c #653965",
"^  c #6B3A65",
"/  c #64336A",
"(  c #6C356A",
")  c #6A3A6B",
"_  c #643A6A",
"`  c #733767",
"'  c #6A3972",
"]  c #773873",
"[  c #6D2B73",
"{  c #3C414F",
"}  c #474959",
"|  c #544854",
" . c #5A575C",
".. c #4F4B4D",
"X. c #6A5051",
"o. c #585867",
"O. c #505169",
"+. c #785967",
"@. c #6D506B",
"#. c #5B6674",
"$. c #56636C",
"%. c #676777",
"&. c #726E72",
"*. c #74614D",
"=. c #883C2E",
"-. c #B1532D",
";. c #8F4532",
":. c #D06A34",
">. c #F27232",
",. c #D45E3A",
"<. c #8D3D4B",
"1. c #883C48",
"2. c #933D4C",
"3. c #963B47",
"4. c #8B3D52",
"5. c #853A55",
"6. c #943C52",
"7. c #8D3E61",
"8. c #A53460",
"9. c #8B434A",
"0. c #94414A",
"q. c #8B4458",
"w. c #934555",
"e. c #905850",
"r. c #B94E4A",
"t. c #8E714E",
"y. c #B6684C",
"u. c #8D4F6A",
"i. c #85697A",
"p. c #8B757A",
"a. c #926D71",
"s. c #BD4779",
"d. c #D26E47",
"f. c #F27847",
"g. c #9C8152",
"h. c #B08857",
"j. c #908B7D",
"k. c #CA8C59",
"l. c #EE9052",
"z. c #CDA767",
"x. c #EAB86C",
"c. c #F5B96A",
"v. c #F7B976",
"b. c #EDAD6D",
"n. c #E7A65F",
"m. c #FBCA78",
"M. c #F3C66B",
"N. c #6A7684",
"B. c #757A88",
"V. c #73738E",
"C. c #8D7887",
"Z. c #AB788E",
"A. c #BC5081",
"S. c #E66F9E",
"D. c #7C8798",
"F. c #768C93",
"G. c #7E8BA2",
"H. c #7E91A2",
"J. c #868B99",
"K. c #9B9897",
"L. c #8E8A8E",
"P. c #A8979A",
"I. c #B08D96",
"U. c #8A96A4",
"Y. c #8F95A5",
"T. c #B199A4",
"R. c #97A8B1",
"E. c #BAA8A9",
"W. c #AFB0B4",
"Q. c #AAA396",
"!. c #D895B2",
"~. c #E79BB1",
"^. c #DDB7B8",
"/. c #CDB0B4",
"(. c #EAA4B5",
"). c #EBACBB",
"_. c #E7A6B8",
"`. c #F1A7B8",
"'. c #E4B4BB",
"]. c #EBB3BC",
"[. c #E4BABD",
"{. c #EBBABD",
"}. c #E2B6B7",
"|. c #F2B5BC",
" X c #DABA94",
".X c #BAC0BC",
"XX c #F5D38E",
"oX c #FEE79F",
"OX c #C8C6BC",
"+X c #D9C2BA",
"@X c #D7D7B0",
"#X c #E7C2BE",
"$X c #FDDBA5",
"%X c #FBE7A7",
"&X c #FCF4AD",
"*X c #FDF7BA",
"=X c #F7E9B4",
"-X c #B2BCC6",
";X c #99B3C0",
":X c #ECB5C2",
">X c #EBBCC2",
",X c #E8BBC6",
"<X c #F2B4C2",
"1X c #F2BCC4",
"2X c #F4BCCA",
"3X c #F9BAC7",
"4X c #F1B4CE",
"5X c #D5ACC4",
"6X c #AFC7C9",
"7X c #94C6CB",
"8X c #CBCAC7",
"9X c #D4CBC7",
"0X c #D5D4CB",
"qX c #D9D7D5",
"wX c #CBCFCE",
"eX c #ECC3C5",
"rX c #EDC4CA",
"tX c #EDCACC",
"yX c #E6C8C5",
"uX c #F3C2C6",
"iX c #F3C4CB",
"pX c #FAC4CC",
"aX c #F4CBCD",
"sX c #FACBCE",
"dX c #F7C6C4",
"fX c #EDD2CE",
"gX c #E8DBCA",
"hX c #F3D3CE",
"jX c #FAD3CD",
"kX c #F4DACB",
"lX c #EECDD1",
"zX c #F4CBD2",
"xX c #FBCDD2",
"cX c #FAC6D4",
"vX c #EED4D1",
"bX c #E8DAD6",
"nX c #F4D4D2",
"mX c #FBD4D4",
"MX c #F5D9D5",
"NX c #FBDAD5",
"BX c #F5D5D9",
"VX c #FDD5DA",
"CX c #F5DCDA",
"ZX c #FCDBDB",
"AX c #DBE3D6",
"SX c #DDE2CC",
"DX c #FDE2DD",
"FX c #F7E4DB",
"GX c #F0EED5",
"HX c #FEDCE2",
"JX c #FBD5E5",
"KX c #FBE6E6",
"LX c #FBF5F7",
"PX c #EFECE9",
"IX c #CDDEE5",
/* pixels */
"nXMXnXmXZXiXzXrXtXxXMXnXnXVXmXkXnXnXCXmXrXlXrXVXHXNXkXjXmXnXMXxXHXzXxXiXiXzXmXnXzXmXnXhXVXzXHXnXzXaXtXzXlXNXmXmXvXnXVXnXnXCXnXtX",
"nXmXVXuX>X1X<X3X'.uX3XnXCXnXfXmXNXpXcX].1X|.cXZ.L.E.vXBXVXhXhXjXrX#X}.2X4X:X{.pXJXNXjXhXMXMX#X3X1X1XuX].|.3XnXMXVXhXfXDXnX{.3X1X",
"NXnXuX>XiXnXNXnXZXxX].uXxXMXMXNXsX>X:XzXMXFXP.y   | ZXVXnXNXsXiX{.zXNXkXMXVXzX>XrXVXNXnXnXzX,XuXmXnXmXZXsX>XeXxXNXnXNXsX1XuXsXmX",
"nXaXyXnXZXCXCXvXfXnXKXpX].NXVXvX'.NXDXZXHXT.r B ..tX{.eXfXtXiX,XNXnXnXBXVXnXNXmX#X{.BXVXBX,XzXZXMXMXaXnXMXFXaX].tXmXmXuXrXZXZXMX",
"iX>XVXBXzX:X(.`.|.nXtXZXaX{.VX].HXtXE./.C.7 G W w +X+.3 e | nXmXtXnX:X_.(.3XJXJXKXaX{.xX,XmXmXpXiX).(.).cXaXVXVX>XVX>XiXVXaXaX'.",
"zX>XpX)._.).|.:X`.(.(.1XiX#XZXpXT.@.* : > x R A 4 , 4 m 2 C.iXpX`._._.iX#Xa.i.p.C.T.KXmX{.uX]._.(.<X:X).(.(.1XrX1XVXtX,X3X(.).].",
"MXzX].(.(.cXZXbXnX3X_.(.3XnXZXp.  z F b v H S A A n e 1 P.KXpX<X`.].KXp.X.t.t.t.t.t.X.+XZX4X_.).pXVXbXHXuX_.).>XmXMXNX>X`.(.].VX",
"mXnXnXaX^.ZXnXmXNXyX,XzXmXmXFXt h n b U A h 9 : 6 ; . L.vX#XyXyX/.Z i t.z.XXm.m.M.z.g.*.+XZXpX<XnXMXMXnXpX].iXnXNXhXnXZXaX,XrXZX",
"mXnXmXxX^.mXnXCXnXiX2XnXMXjXZX| m b A v b b S Q E r > x e i e q r 3 t.%X*X*XXXc.x.v.m.z.*.+XmX1XcXNXjXNXiX{.NXBXVXnXvXNXnXeXtXMX",
"MXMXZX'.sXiXuX1XtXpX:XtXhXmXHX..j F v h m n F T _ ! Q T ) W G A x Q.GX*X=X$XXXM.M.c.b.m.h.| mX4XdXzXiXlX1XyX|.CXaXnXNXVXpX1XpXpX",
"mXnXxX>XxXVXxXeXCXVX2XrXmXVXMX..j v v x g z v B S ! ( T J ) ` S j.*X&X*X&XXX$XXXv.v.M.c.x.t.Z.VXkXtX3XhXFX2X<XDXNXnXnXnXrXeXnXZX",
"mXVXnXsX>XzXzXmXhXeXuXmXhXmXMX| 5 F v b b z , z b v b b ~ ~ G i &XoXXX&X*X*X*X*X%XM.n.f.m.t.p.xXiXmXNXtXaXcXyXaXjXnXmXVXsXuXaXhX",
"vXMXMXnXaX>X'.>X}.aXxXnXMXnXZX^.2 x F v A F z l z e 8 j K I 6 h.v.XX*X*X%XoX&X&X%XM.c.d.c.t.&.JX,X}.'.cX<XE.p.e yXMXnXhXVXxXeX'.",
"HXBXnXmXmXnXmXmXZXsXnXMXnXmXHXsX1 2 v b U b b 9 g , 2 E ( ] , h.v.XXGX=XM.n.h.k.k.h.x.l.l.k.a p.JXZXKXT.i.p P i.yXCXNXmXNXnXnXNX",
"].>XiXZXhXnXCXnXnXmXVXmXrX,X>X{.+.o v Y b Y h 9 - 3 H ~ ! D ..z.c.m.XXv.b.y.y.-.-.-.e.c.d.y.:.;.Z.E...5.Z.S.+.,X3X<X].1XxXnXnXhX",
"pXcX>X}.nXmXmXmXvXNXeX].3XpXiXiXxX+.. z b x e > : J [ L ( h g.m.x.v.l.n.d.-.:.d.,.:.=.k.d.r.>.:.p &.Z.s.@. ._.pXrXiXcXpX[.eXNXmX",
"ZXCXvXaXeXsXmXNXNX>XeXsXnXbXDXMXmXZXp.3 4 , = 2 G ' Z ] P j t.c.l.l.l.e.=.y Z i t ..c c i y.d C I S.S...T.#XjXBXVXMXFXMXaXeXrXVX",
"uXcXVXZXtX>XxXnX1XsXsXNXZXiXiX2XNXkXjXtX1 + 6 D ! P q.3.X.i k.b.n.l.h. .+.wXSXAXbX9X0X8X- # P _.~.8.X.,XpXjXgXZXiXuX>XxXZXVX>X>X",
"_.).2X,XVXpX>XZX,XBXxX,X:X~.~.`.,X4XJXC.> B _ H 5.2.<.3.p s m.c.l.b.a K.LXLXPXLXPX0XqX&.C.A.S.4XS.p e.5XmXpXuX<X(.(.~.3X:XiXHX,X",
"pXuX_.(.<X>XnXnXiX].`.(.].xXmXuX3XZ.C 1 V ) K 5.3.9.9.w.p d M.x.v.g.$.0XFXPXPXFXwXbXPXB.4XS.r.V u :.a Y.2X_.~.).zXzXzX].~.(.<XuX",
"ZXmX>X).].sXCXnXxXpX_.].aXMXnXZXP.q x T ) ! 5.2.9.9.2.1.i :.b.%X&Xf B.GXAXLXqX0XAXPXqXW.!.s.I z % f.d y :X4X).tXMXCXMXsX<X).uXVX",
"nXZX[.aXNXnXVXnXvXZXCX^.NXhXZXE.g A ) Q P 5.6.9.<.6.=.p =.l.x.%X*Xt.| L.&.P.wXbXFXqX9XOXR.B.K.wX{ ;.f.i +XKX<XiXNXhXVXxX[.nXfXCX",
"ZXiX>XtXfXnXnXmXMXmXrX1X{.HXP.9 U Q L P 6.2.<.3.9.6.0.q ,.n.XX$X*Xt.  & * , N.OX9X0X9XOX0XbX9XOXN.p >.% yXmX{.3XfXZXnXrXeXaXmXmX",
">XmXxX).cXZXvXnXnXmX<XsXCXE.2 A ` P I P H | H Q 4.1.<.w :.XX&X*X@X% ; : : l k &.OXwXwX0X8XOX8XwX%.p >.y...+.sXzXsX}.aXzXpX'.VXnX",
"nXNXnX[.xXZXMXnXjXVX2XuXP., N X.I L R -XIX-X6XN.v T x -.l.=X&X*X X  > + # z M O.Y.-X6X8X0X0XqXY.U.} =.f.d +.dXMXmXZXvXCXrX[.ZXjX",
"3XpX{.xXnXsXmXNXCXmXNXuXq 6 ] 5.` F.7X6XwX6X6X;Xi.x i :.l.$XXX*Xz.O + @ + , M M D.Y.J.W.W.K.o.N.Y.O.$ p s LXpX:XuX1XpX1XuXZXmXnX",
"1X{.sXMXnXDXnXnXnXnXkXp.2 T P 5.| C.#.R.;XR.R.K.R i :.f.v.XX=X*Xz.; X @ + 2 M M D.U.J.J.} : * m B.#.& : 8 P.VXcXeXeX].uXnXvXvXMX",
"ZXMXMXMXnXtXnXmXxXsXMXt S ) P I +.@.6 G.7XD.i.@.g d >.f.XXXXGX&Xz.+ @ + = , M M D.G.G.{ . > z g } o.< n :  .CXhXnXNXZXCXCXnXnXxX",
"hXmXnXsXiX].].].}.cX&.* / L 5.V u.i.i.p.@.w i , a d.>.n.x.XX$Xm.g.+ ; & 9 , M M D.D.R.y   > h M Y c , b x X K.DXVXhXhXnXxXpX3X].",
"VXmXsX{.>XVXnXmXbXxX@.B ' K P I L @.@.u.u s h.s l.l.n.m.x.v.c.x.$ . ; , - z k %.J.D.N.q # + g M M } & h F , C.VXnXnXNXVXuX].aXCX",
"mXaX[.nXZXmXZXBXvXZX&.N _ J u.5.G F S A g *.c.c.n.M.M.c.v.v.m.t.@ O ; q , M h %.W.W.c . @ ; h M O.{ > h x 4 C.xXnXnXmXeXrXZXnXMX",
"sX>XnXZXnXeX<X).,XDX+.3 ) / L <.9.6.1.^ m X.l.:.l.n.v.x.M.c.t.: & = 2 @ l k %..XqXqX{ . : : z M o.1 , 9 z 5 L.NX}.VX>XiXmXaXxX|.",
"sX^.xX:X(.).].)._.2X@.1 Y A D ! ( 4.5.H e   t.l.l.M.M.m.z.t.L./.c X . . : %.0XbXPXW.} . : z m O.| O : 2 m 4 C.VX'.mXeXuXcX(.(.<X",
"mXxX).~.(.rXCXnXnX<XZ.X z Y b D ! ) v < , , X *.g.t.t.t.o | PXLXqX&. .$.W.qX8XbXR.& N.o.. , m V.: . : 9 z , i.pXmXnXNXuX(.`.:XlX",
"nXZXiXuX,XnXnXxXZX1X3XP.= 4 A b H Q D S * = = X & . . . . y K.SXqXqXqXqX0X8X8XOX$.} J.8XB.&.W.W.8 + - , b 5 C.VXnXMXMXVX3X<XiXCX",
"nXvXNXxX:XxXMXCXMXuXuXZXP.+ , v A G ! ` V o + ; > + @ - ; . , n L.8X8XOX9X8X0X8XW.W.OX8XSXAXqXK.; * 9 h F > L.KXnXnXnXnXNXiX>XVX",
"VXnXnXeX1XiXnXyXlX>X1XaXKXK.C 7 1 Y U ~ J K B O i | O O * ; # > B.L.qX8X8X0X8X8XwX0X9X0XW.R.J.e + 2 , b x ; T.FXmXnXnXnXtXeXaXaX",
"mXmXVX}.aXnXiX|.BXZX|.iXbXmXHXC...& x H ' ( Q x L.&.. > ; ; ; @ D.-XPX0XOXqXAX0XwX9X9X8Xo.= ; 6 : , , F 1 Z xXMXnXNXhXZXiX'.VXhX",
"nXnXmX|.iXNXvXZXZXiXuXvXhXVXnXKXZXo.  3 A ^ L ' C.B X + O + X : J.PXPXW.8XAXPX8XW.PXGX8X9 + o @.: , b v 1 I.ZXsXmXnXnXnXcXiXiXZX",
"hXMXfXZXuX].:X<X|.#XVXVXMXhXjXvX/.c e 1 , B L W W Q 6 : y C o 8 W.qX8X..OXLXbXW.o.qXqXY.9 + i u.x x Y & | HXfXmXBXmXjXnXCXnX>X].",
"NXCXnXnXVXsXtXvXaXmXmXsXMXMXZXhXq . x h e 4 B ) ! ! L B.Y.Z o ; &.-X .o /.bXOXt 9 E.L.0 # * z F U Y * w 9XVXmXvXCXZXVXmXvXvXnXsX",
"3X1XsXnXMXnXNXmXZXaXMXZXpX3XzXP.> c c } n e h b T ( Q H C ; X O + . ; +  .L.{   ; . o + 1 x n M z & t 9XDXnXnXpX[.uX1XuXVXZXmXmX",
">XiX1X1XnXNXnXVXhXZXzX:X{.pXZ.X = c y O.J.c z x S Q ^ L 6 = ; O X ; + O .   . ; # 2 z z b 4 1 5 q i.+XDXnXaX1XuXiX>XeXuX{.uXnXnX",
"CXCXsXiX>XnXMXMXhXzX,XzXMXFX .5 G B B * c Y.C V D E ` ! ^ r - %.q X > + ; ; C r q v m m 3  ./.I./.KXCXnXuX>XyXnXNXNXBXmXsX>XiXVX",
"iXmXZXZXlXiXsXnXdX{.HXZXmXj.+ G 6.7.q.Z * c J.r T T ` Q ^ K V.%.; + X : ; 3 +.^ l h 5 ; P.DXVXNX2XxXaXxX1XVXZXCXsXsXzXZXZXBXiX1X",
"(.|.iXtXVX>XeXnX:XmXdXdXC.X V 4.3.2.1.7.G * #.$.B ! Q Q ~ K K r O > + X ; r D L z . r 3 q /.cXjXlX:XVX'.zXxX1XuX(.~._.>XeXmXVX:X",
"pX)._._.:X>XnXnXpX^.|.~.: x 7.w.9.1.w.q.P B O.F.3 ^ G Q Q ! ! G 3 . - : x T Q ^ Z 8 y v 9 * I.|.,XtXnXiX2X'._.`.3XpX1X)._.).>X,X",
"CXVX:X_.).xXnXnXmX,X:X@.3 L u.u.q.6.6.1.P C + B.%.6 ! ^ T ! ) ! D * e x G ] ( _ V n c 1 U , +.3XiXZXhXnXuX_._.2XCXBXZXcX(.(.2XBX",
"hXZX,XiXZXnXfXnXnXNXtX9 B w.e.i.q.q.1.4.( ( 3 %.J.: S ] ` L K ( U b v Q ` Q _ T ' x C e z v * P.ZXhXMXMXBXBX>XiXmXmXnXmX>XmXnXMX",
"NXzX>XuXsXZXNXnXNX^.C , I w.a.u.w.q.0.6.L ' x y %.} * 6 u u.P F F S ~ Q G ~ K ! ` r y y * F 2 1 vXCXjXhXnXVX,XuXMXNXNXyX>XrXnXMX",
"rXsXxX[.nXhXhXnXKXj.* F 5.9.u.w.9.q.<.<.L / x ; O.o.%.B.| w V ` Q ! ! ( ~ ^ ` L G c #.#.v 5 F 2 p.CXaXMXDX{.>XxXaX}.aXiXuX>XVXsX",
"sXxXVX'.aXNXmXNX/.y h G 1.w.q.<.<.w.<.<.L / v : V.W.qXbX8XJ.c S ^ ^ Q T T / Q T 7 %.U.D.O.3 S j q lXVXjXMXeXiXVXVXaXmXZXrX[.NXmX",
"iXxXeXzXmXhXnXnXw * U L w.2.1.2.3.2.0.9.L / z : V.W.qX9XOXAXR.} V P P ^ ) ] ) 6 #.J.G.J.%.c x ' + p.HXaXmXmXuXtXiXmXuXrXtXhXnXnX",
">X^.aXnXnXmXBXP.1 b U L 4.3.1.<.3.2.<.P Q D = x B.K.PXPX0XOXbXY.i I u.V 3 B N y J.U.U.V.#.c x ) r C lXZXnXmXfXeX].1X].{.nXZXVXmX",
"VXmXmXZXnXmXKXi 5 z S L 4.2.w.0.2.2.1.P ' B   o.D.&.9XLXPXqXW.Y.F.r w  .$.O.c } N.N.V.%.} c 5 T R * r yXZXVXnXZXZXnXZXZXnXfXBXVX",
"nXnXZXnXiX,X&.1 b x R ` 1.2.q.1.6.3.9.L ' B O O.V.#.B.R.R.R.U.H.V.O.} } c n z 3 3 c O.o.o.c 4 Y S F O I.sXyXNXnXnXnXnXVXnXVX>X].",
"mXMXxX:XcXI.. b m j ) ! q.<.2.=.2.q.P ( ( B c #.%.%.%.%.O.#.N.%.e 3 x D J J J J W B 1 3 r t r A v F z : /.3X3XJXnXMXnXVXpX].uXhX",
"nXZX^.BXvX .: A 2 N / Q P 4.q.2.4.P L W _ 2 } B.U.N.c c 3 x 6 6 G D D H H H H H U R H F v e 4 b A S F > q /.xX{.NXnXnXiXrXzXZXMX",
"aX>XnXKXE.. n v : R _ L P 4.9.<.P P ^ / R ; $.Y.} c 6 V Q _ T T A A S E G H D F D D D U R S x h m A E T *  .FXuX>XVXeXrXBXBXBXuX",
"iX2XxXdXI.2 S 4 1 ) ! Q ( ` P ` ` P J ' R X e x N G ` / / S U Y T Q ` 7.5.4.4.4.q.5.P ! ) ! G x 4 v S ' B - P.jX'.VXeXrXxX:X<X`.",
"nXuX<X`.w 4 A , : _ Q K ` P P P L ^ ! ) B X r H ( ) W / E Q L P 4.<.<.9.<.2.2.3.=.3.6.P Q K ^ Q x , F A b z 1 !.ZXzXxXpX`.(.).iX",
"NXaXiXZ.> n v = 6 ! ! Q ' W Q / T D G E x ; B @.L ~ Q T G I 5.6.9.0.9.9.1.<.<.4.0.2.5.^ Q Q ( / G > : v A F * i.NXnXNXxX<X:XrXCX",
"mXhXCXC h A 2 = A ^ ! ~ ! ! L L _ D G A x . x ( K L ~ Q L P q.3.<.<.2.2.2.<.9.9.P P L ( / Q Q / Q C : x S b z 1 [.ZXhXMXZXrXiXmX",
"MXjXVXC j A 8 X A K ! Q K ) T Q ( ! ~ R x X B ` ! ( / ) J P 4.2.3.<.4.P P ` ` ` / ~ Q ( ! K K ` ] H e , b Y v r yXMXjXnXxX>X1XpX"
};
