/* XPM */
static char *_1fd747337924bb9b31647d06108ea5fUMEojjee8ChBLhLH[] = {
/* columns rows colors chars-per-pixel */
"64 64 243 2 ",
"   c #010101",
".  c #050A07",
"X  c #09160D",
"o  c #0A0E14",
"O  c #0C1514",
"+  c #131616",
"@  c #111F0E",
"#  c #122716",
"$  c #19381E",
"%  c #0F291E",
"&  c #141A25",
"*  c #193B24",
"=  c #1A252D",
"-  c #302E2E",
";  c #291F27",
":  c #56070F",
">  c #552E34",
",  c #431C21",
"<  c #1D4326",
"1  c #164532",
"2  c #234E2B",
"3  c #36553C",
"4  c #2D523A",
"5  c #2A6534",
"6  c #33753C",
"7  c #2F6F38",
"8  c #405A3F",
"9  c #5A7B3D",
"0  c #243242",
"q  c #1E2F43",
"w  c #314A50",
"e  c #236A4B",
"r  c #28694B",
"t  c #386448",
"y  c #287A55",
"u  c #357557",
"i  c #32724B",
"p  c #3E516E",
"a  c #19684A",
"s  c #4A4A4A",
"d  c #575A5A",
"f  c #49514C",
"g  c #4D6651",
"h  c #5A6D55",
"j  c #566855",
"k  c #577957",
"l  c #4A704C",
"z  c #61685B",
"x  c #667B5D",
"c  c #727D45",
"v  c #435469",
"b  c #507368",
"n  c #686867",
"m  c #687C62",
"M  c #757C6C",
"N  c #7C7C7C",
"B  c #767976",
"V  c #6E7270",
"C  c #98091D",
"Z  c #820517",
"A  c #BE0D27",
"S  c #FB3B57",
"D  c #FA2541",
"F  c #887577",
"G  c #FB5C73",
"H  c #FB5069",
"J  c #FA657A",
"K  c #F6445E",
"L  c #398746",
"P  c #248D5E",
"I  c #268459",
"U  c #389555",
"Y  c #288D62",
"T  c #269968",
"R  c #359B6D",
"E  c #339C70",
"W  c #34A373",
"Q  c #3BAD7B",
"!  c #38AA76",
"~  c #3DB27C",
"^  c #38B778",
"/  c #2CA06F",
"(  c #2DA159",
")  c #44894C",
"_  c #55865D",
"`  c #4A9855",
"'  c #56985B",
"]  c #498D51",
"[  c #678854",
"{  c #6D874F",
"}  c #4DAB5B",
"|  c #47A756",
" . c #52A85D",
".. c #4CB45B",
"X. c #4ABB5B",
"o. c #52B15E",
"O. c #589169",
"+. c #6A8666",
"@. c #75876B",
"#. c #688577",
"$. c #75867B",
"%. c #6C9571",
"&. c #789779",
"*. c #63976A",
"=. c #59A565",
"-. c #53BB62",
";. c #42B57A",
":. c #46B979",
">. c #4DB565",
",. c #6CA173",
"<. c #4FC25F",
"1. c #4FC660",
"2. c #57C968",
"3. c #58D66C",
"4. c #4CC37A",
"5. c #53C97A",
"6. c #5AD579",
"7. c #5BD976",
"8. c #62DC77",
"9. c #5CE46E",
"0. c #5DE775",
"q. c #64E47A",
"w. c #66E97B",
"e. c #69EC7C",
"r. c #64E675",
"t. c #66F27C",
"y. c #6CF27E",
"u. c #65F177",
"i. c #70F77F",
"p. c #898957",
"a. c #8E8A4F",
"s. c #A8985A",
"d. c #AB9550",
"f. c #999868",
"g. c #8B8D74",
"h. c #A39B69",
"j. c #93A578",
"k. c #BAA969",
"l. c #AAA772",
"z. c #B1AA6F",
"x. c #BEA650",
"c. c #D4B758",
"v. c #CDB451",
"b. c #CBB561",
"n. c #D1BC72",
"m. c #D8C66E",
"M. c #F0D570",
"N. c #FFE57E",
"B. c #E2CB58",
"V. c #547096",
"C. c #637AA2",
"Z. c #FC6D81",
"A. c #FC7789",
"S. c #ED7E8E",
"D. c #3FBA83",
"F. c #768C82",
"G. c #698F82",
"H. c #41B680",
"J. c #708CB1",
"K. c #52D281",
"L. c #66EA83",
"P. c #6DF581",
"I. c #6EF982",
"U. c #67F587",
"Y. c #71FC85",
"T. c #74FD88",
"R. c #7595C7",
"E. c #848584",
"W. c #888B8B",
"Q. c #86998A",
"!. c #8A9493",
"~. c #959595",
"^. c #9B9B9B",
"/. c #959E9D",
"(. c #9B9B85",
"). c #88A786",
"_. c #96A59A",
"`. c #97B18B",
"'. c #B0AF93",
"]. c #8A96A7",
"[. c #9EA4A1",
"{. c #9DA5B2",
"}. c #A3A4A4",
"|. c #ACADAC",
" X c #A6A9A7",
".X c #B4B4B4",
"XX c #BBBBBB",
"oX c #B8BAB8",
"OX c #B6B2AB",
"+X c #A8959B",
"@X c #FB8797",
"#X c #FB919F",
"$X c #FD97A5",
"%X c #FDB3BE",
"&X c #FCA9B5",
"*X c #CEABA9",
"=X c #BBC0BC",
"-X c #E8D982",
";X c #F2E48B",
":X c #FFF38B",
">X c #FFF190",
",X c #C6C2B6",
"<X c #D7D88A",
"1X c #BFBDC0",
"2X c #8BB3EB",
"3X c #C4BEC4",
"4X c #FBB7C1",
"5X c #BAC3C4",
"6X c #98C4FE",
"7X c #AECBF1",
"8X c #C3C3C4",
"9X c #CBCCCD",
"0X c #C8C5C9",
"qX c #D3CCD2",
"wX c #CED2D7",
"eX c #D4D4D4",
"rX c #DCDCDC",
"tX c #D8D6DA",
"yX c #CECACF",
"uX c #FDC4CC",
"iX c #FCD8DD",
"pX c #EFD1D8",
"aX c #DFDFE1",
"sX c #E3DCE2",
"dX c #FEDDE2",
"fX c #D6E7F8",
"gX c #E3E3E4",
"hX c #ECEBEC",
"jX c #E9E3E9",
"kX c #FFE2E6",
"lX c #FCEBEC",
"zX c #F7E8EC",
"xX c #EAECF5",
"cX c #F4EDF2",
"vX c #FAEBF4",
"bX c #ECF4FC",
"nX c #F3F3F3",
"mX c #FCF4F5",
"MX c #F4F5FB",
"NX c #FFF5FD",
"BX c #F5FCFD",
"VX c #FFFFFF",
"CX c #FAF9F7",
/* pixels */
"VXVXVXVXVXVXVXVXVXVXVXVXVXVXVXVXVXVXVXVXVXVXVXVXVXVXVXVXVXVXVXVXVXVXVXVXVXVXVXVXVXVXVXVXVXVXVXVXVXVXVXVXVXVXVXVXVXVXVXVXVXVXVXVX",
"VXVXVXVXVXVXVXVXVXVXVXVXVXVXVXVXVXVXVXVXVXVXVXVXVXVXVXVXVXVXVXVXVXVXVXVXVXVXVXVXVXVXVXVXVXVXVXVXVXVXVXVXVXVXVXVXVXVXVXVXVXVXVXVX",
"VXVXVXVXVXVXVXVXVXVXVXVXVXVXVXVXVXVXVXVXVXVXVXVXVXVXVXMXwX5XoXOXoX,X9XgXCXVXVXVXVXVXVXVXVXVXVXVXVXVXVXVXVXVXVXVXVXVXVXVXVXVXVXVX",
"VXVXVXVXVXVXVXVXVXVXVXVXVXVXVXVXVXVXVXVXVXVXVXVXVXMX}.h.b.n.c.v.v.c.b.c.n.,XnXVXVXVXVXVXVXVXVXVXVXVXVXVXVXVXVXVXVXVXVXVXVXVXVXVX",
"VXVXVXVXVXVXVXVXVXVXVXVXVXrXVXVXVXVXVXVXVXVXVXVXjXp.m.M.x.l.'.OX,X,X'.k.v.M.z.tXVXVXVXVXVXVXVXVXVXVXnXgXVXVXVXVXVXVXVXVXVXVXVXVX",
"VXVXVXVXVXVXVXVXVXVXVXVXaXz hXVXVXVXVXVXVXVXVXVXg.M.M.g.wXBXVXVXVXVXVXMXqXz.N.k.gXVXVXVXVXVXVXVXCXVXOXg.VXVXVXVXVXVXVXVXVXVXVXVX",
"VXVXVXVXVXVXVXVXVXVXVXVX=X[ (.VXVXVXVXVXVXVXVXbXk.:Xd.MXVXVXVXVXVXVXVXVXVXxXk.M.'.VXCXVXVXVXVXCXVXaX+.l.hXVXVXVXVXVXVXVXVXVXVXVX",
"VXVXVXVXVXVXVXVXVXVXVXVXoX+.l.'.VXVXVXVXVXVXVXNXg.B.c.V G.$.$.F.F.F.#.#.#.b x.c.M VXVXVXVXVXCXVXgXd j.z.hXVXVXVXVXVXVXVXVXVXVXVX",
"VXVXVXVXVXVXVXVXVXVXVXVX8Xm '.a.g.nXVXVXVXjX!.b y l c.d.i P T T T T T T y c b.8 e b oXVXVXVXVX9Xm j f.z.xXVXVXVXVXVXVXVXVXVXVXVX",
"VXVXVXVXVXVXVXVXVXVXVXVXgXm j f.M.f.tXnX!.i P ! ~ E i p.d.a.{ [ [ [ [ c a.a.l ..K.^ y !.VXVX Xh x ).a.g.VXVXVXVXVXVXVXVXVXVXVXVX",
"VXVXVXVXVXVXVXVXVXVXVXVXVXn m j.;Xm.p.j a ^ ~ ! W 4.0.3.} ' { { c c c [ ] ..w.I.e.P.U.( W.M h `.j j.m. XVXVXVXVXVXVXVXVXVXVXVXVX",
"VXVXVXVXVXVXVXVXVXVXVXVXVXoX+.).g.a.;X-Xf.k O.~ q.e.e.y.i.t.0.7.7.7.7.w.y.I.e.w.e.8.] k +.m +.).g.s.p.hXVXVXVXVXVXVXVXVXVXVXVXVX",
"VXVXVXVXVXVXVXVXVXVXVXVXVXVX$.h j j.-X>Xs.M.l.7.y.e.e.w.w.w.e.y.P.y.e.e.e.w.e.w.I.-.j m `.&.g `.;Xb. XVXVXVXVXVXVXVXVXVXVXVXVXVX",
"VXVXVXVXVXVXVXVXVXVXVXVXVXVXjXh ).).).f.s.:Xp.0.e.e.e.e.e.e.e.w.w.w.w.e.e.e.e.w.P.2.+.h &.).{ k.m.(.VXVXVXVXVXVXVXVXVXVXVXVXVXVX",
"VXVXVXVXVXVXVXVXVXVXVXVXVXCXVX X3 @.h k `.h. .P.w.e.e.e.e.e.e.e.e.e.e.e.w.e.e.e.e.r._ @.x <X>Xd.E.VXVXVXVXVXVXVXVXVXVXVXVXVXVXVX",
"VXVXVXVXVXVXVXVXVXVXVXVXVXVXVX#.P 4 h j.@.l w.e.e.e.e.e.e.e.e.e.e.e.e.e.e.e.e.e.w.y.1.p.d.s.z.l 9XVXVXVXVXVXVXVXVXVXVXVXVXVXVXVX",
"VXVXVXVXVXVXVXVXVXVXVXVXVXVXsXu ~ Q >.' ` w.y.w.w.w.e.w.w.w.w.w.w.w.e.e.e.e.e.e.e.w.P.3.' ] 3.0.+.VXVXVXVXVXVXVXVXVXVXVXVXVXVXVX",
"VXVXVXVXVXVXVXVXVXVXVXVXVXVX|.I Q 4.I.y.y.e.w.w.w.e.P.P.I.I.I.P.Y.P.e.e.e.e.e.w.e.e.w.y.t.I.y.I...3XVXVXVXVXVXVXVXVXVXVXVXVXVXVX",
"VXVXVXVXVXVXVXVXVXVXVXVXVXVX$.T Q 7.e.w.w.e.P.I.I.u.3.1...}  . .} 2.3.9.9.r.y.I.P.e.e.w.e.w.e.y.9.&.VXVXVXVXVXVXVXVXVXVXVXVXVXVX",
"VXVXVXVXVXVXVXVXVXVXVXVXVXcXu ! ;.e.e.e.I.0.2... .*.Q.|.0XtXsXsX0X[.Q.&.&.%.' } 3.t.I.e.e.e.e.e.P.' jXVXVXVXVXVXVXVXVXVXVXVXVXVX",
"VXVXVXVXVXVXVXVXVXVXVXVXVX|.I Q 5.e.P.u.} ).=X0XsXNXVXVXVXVXVXVXVXVXVXVXVXVXcX0X!.' <.I.e.w.e.w.I...1XVXVXVXVXVXVXVXVXVXVXVXVXVX",
"VXVXVXVXVXVXVXVXVXVXVXVXVXb W ;.w.P.9._ 0XVXVXVXVXVXVXVXCXCXVXVXVXVXVXVXVXVXVXVXVXNX}.` e.e.e.w.P.2._.VXVXVXVXVXVXVXVXVXVXVXVXVX",
"VXVXVXVXVXVXVXVXVXVXCXVX}.I Q 6.y.9._ jXVXVXVXVXVXVXVXVXVXVXVXVXVXVXVXVXVXVXCXVXgXrXVX+X6 Y.e.e.e.9.&.VXVXVXVXVXVXVXVXVXVXVXVXVX",
"VXVXVXVXVXVXVXVXVXVXVXjXu ! :.e.e.b jXVXCXVXnXgX8X.XVXVX|.~.hXVXnXtXVXVXhXhXVXVX}.W.VXgX+ 3.P.e.e.u.*.NXVXVXVXVXVXVXVXVXVXVXVXVX",
"VXVXVXVXVXVXVXVXVXVXVX$.T ;.q.T.5 C.VXCXVXrX~.E.B qXVXE. X8XB VX.X0XVXCXVX.X|.eXd eXVXVX; 7 Y.w.w.y.' jXVXVXVXVXVXVXVXVXVXVXVXVX",
"VXVXVXVXVXVXVXVXVXVX8Xy ~ 6.Y.-.  J.VXVXVXVXVXVX^.VX^..XVXVXB VX~.hXVXVXVXVX8X Xn nXVXVXs X y.e.w.I.} yXVXVXVXVXVXVXVXVXVXVXVXVX",
"VXVXVXVXVXVXVXVXVXVXb / 5.y.P.$   J.VXVXVXVXVXCXE.VXN nXVXE..XVXN 9X.X XVXVXVXVXE.VXCXVXV   2.P.w.P.1. XVXVXVXVXVXVXVXVXVXVXVXVX",
"VXVXVXVXVXVXVXVXVXeXy ~ q.I.o.    J.VXVXVXVXVXhXB VXXXB B |.VXVXeXN }.hXVXXX|.|.^.VXnXVXW.  ) Y.w.e.9.&.VXVXVXVXVXVXVXVXVXVXVXVX",
"VXVXVXVXVXVXVXCXVX_.P 5.e.Y.7     J.VXVXVXVXVXCX0XVXVXnXVXVXVXVXVXVXVXVXVX XE./.VXVXVXVX}.  2 I.w.e.y.' hXVXVXVXVXVXVXVXVXVXVXVX",
"VXVXVXVXVXVXVXVXmXt W 6.e.y.#     J.BXVXVXtX5XXXOXF N !.W.E.N hXnX}.+X~.!.N n *X8X5X9XVX.X  X 8.e.w.I.} qXVXVXVXVXVXVXVXVXVXVXVX",
"VXVXVXVXVXVXBXVX[.1 H.q.i.2.      V.BXVX8X- : ; C Z = : , + N nXnXV > A , w C C * : +XVX8X    ..I.q.P...0XVXVXVXVXVXVXVXVXVXVXVX",
"VXVXVXVXVXVXVXmXt e :.q.Y.i   . p 7XVXVXBXlXZ.A.$X$XA.H iXBXVXVXVXVXBXZ.A.$X$XA.S.S VXVXXX    6 Y.q.P.2.tXVXVXVXVXVXVXVXVXVXVXVX",
"VXVXVXVXVXBXVX.Xy y :.e.8.X   J.BXVXVXVXlXkXA.lXmXVXuX#XVXVXVXVXVXVXVX%X$X4XmX%X@X@XlXVX.X    $ y.w.I.} yXVXVXVXVXVXVXVXVXVXVXVX",
"VXVXVXVXVXVXVX#.T e 4.Y.L   0 fXrXMXVXVXuXD A.mXVXVXkX@X4XVXVXVXVXCXH G 4XVXVXVXdXH K VX|.    . 2.y.Y.L  XVXVXVXVXVXVXVXVXVXVXVX",
"VXVXVXVXVXVXrXu W e 6.w.#   v VX].oXVXVXVXuX@XVXVXVXlX$XS Z.VXVXVXVXdX@XuXVXVXVXVX@XmXVX^.  .   L Y.e.L  XVXVXVXVXVXVXVXVXVXVXVX",
"VXVXVXVXBXVX}.P ! a L.|     n VX{..XVXCXVXdXA.VXVXVXlXJ mXmXVXVXVXVXVXlXG VXVXVXlXH 4XVX~.  .   * Y.8.L _.VXVXVXVXVXVXVXVXVXVXVX",
"VXVXVXVXVXVX#.E ;.r L.2     f VXCXCXVXVXBX@XZ.@XBX#X&X#XdXVXVXVXVXVXVXJ G &XdX%X%XJ J VXW.  .   . 3.q.L ).VXVXVXVXVXVXVXVXVXVXVX",
"VXVXVXVXVXcXl ! 6.L 4.@     o wXVXVXVXVXVXmXlX#X%X@XuXH @XVXVXVXVXVXVXkXmX@XZ.A.H lXBXVXE.  .     L e.U %.VXVXVXVXVXVXVXVXVXVXVX",
"VXVXVXVXVXeXy Q q.| U         O !.bXVXVXVXVXVX%XS kXVXmXiXVXVXVXVXVXVXVXVX$XG VXA.kXBXVXB   .     $ e.| _ cXVXVXVXVXVXVXVXVXVXVX",
"VXVXVXVXVXoXI Q 7.q.4   .   .     7XVXVXVXVXVXuXA.VXCXVXVXVXVXVXVXVXVXVXVXkXiXVXVXVXCXVXn   .     . 2.3.) sXVXVXVXVXVXVXVXVXVXVX",
"VXVXVXVXVX|.P Q 6.I.*             R.BXVXVXVXVXVXVXVXVXVXVXVXVXVXVXVXVXVXVXVXVXVXVXVXCXVXn   .       ` T.` 3XVXVXVXVXVXVXVXVXVXVX",
"VXVXVXBXVX[.P Q 8.r.O         .   V.BXVXVXVXVXVXVXVXVXVXVXVXVXVXVXVXVXVXVXVXVXVXVXVXVXVXd   .       5 T.X.|.VXVXVXVXVXVXVXVXVXVX",
"VXVXVXBXVX_.Y Q q.r.X         .   p bXVXVXVXVXVXVXVXVXVXVXVXgXnXVXVXVXnXVXVXVXVXVXVXVXVXs   .       2 Y.3.Q.VXVXVXVXVXVXVXVXVXVX",
"VXVXVXBXVX[.P Q 7.y.#         .   w fXVXVXVXVXVXVXVXVXVXVXVXhXW.gXVX.X XVXVXVXVXVXVXVXVX-   .       < P.0.%.VXVXVXVXVXVXVXVXVXVX",
"VXVXVXVXVXoXI Q 5.Y.5             q fXVXVXVXVXVXVXVXVXVXVXVXVXhX~.^..XVXVXVXVXVXVXVXVXVX-           < P.u.' cXVXVXVXVXVXVXVXVXVX",
"VXVXVXVXVXjXi ! 4.Y.-.            = 7XVXVXVXVXVXVXVXVXVXVXVXVXVXVXnXVXVXVXVXVXVXVXVXVXhXO       .   2 P.y. .sXVXVXVXVXVXVXVXVXVX",
"VXVXVXVXVXVX#.T :.w.P.<           & 7XVXVXVXVXVXVXVXVXVXVXVXVXVXVXVXVXVXVXVXVXVXVXVXVXtX        .   5 I.P.o.qXVXVXVXVXVXVXVXVXVX",
"VXVXVXVXVXVXXXy H.q.Y.|           O 7XVXVXVXVXVXVXVXVXVXVXVXVXVXVXVXVXVXVXVXVXVXVXVXVX8X        .   L I.P.o.9XVXVXVXVXVXVXVXVXVX",
"VXVXVXVXVXVXjXu Q 7.y.r.X         o 2XVXVXVXVXVXVXVXVXVXVXVXVXVXVXVXVXVXVXVXVXVXVXCXVX}.  .         >.P.y.=.qXVXVXVXVXVXVXVXVXVX",
"VXVXVXVXVXVXVXb / 5.e.P.*         o 2XVXVXVXVXVXVXVXVXVXVXVXVXVXCXVXVXVXVXVXVXVXVXVXVXd   .       % L.e.P.=.sXVXVXVXVXVXVXVXVXVX",
"VXVXVXVXVXVXVX!.Y 4.e.I.<         o 2XBXVXVXVXCXXX.XtXnXVXVXVXVXVXVXVXVXVXVXgXrXVXVXhXO           U P.w.u.*.vXVXBXVXVXVXVXBXVXVX",
"VXVXBXVXVXCXVX8Xy ;.q.I.<         O 2XbXVXVXVXVXCXeX X~.~.^. X|.|.|. X}.~.~.~.tXVXVXE.  .       r L.e.L.9.&.VXVXVXVXVXNXVXVXVXVX",
"VXVXVXVXVXVXVXnXu ! 7.i.$         + 2XxXVXVXVXVXVXVXVXVXCXhXrXeXeXtXtXgXnXVXVXVXVXgX.         e K.e.w.P.1..XVXrX.XQ.%.,.,._.hXVX",
"VXoX$.&.&.)..XvX#.T 5.I.$         & 2XfXVXVXVXVXVXVXVXVXVXVXVXVXVXVXVXVXVXVXCXCXVXs   .   X I ;.q.e.q.I.L M *.` <.1.X.| ' l 4 9X",
" X~.Q.] | X.X.=.g Y :.Y.2         = 2XxXVXVXVXVXVXVXVXVXVXVXVXVXVXVXVXVXVXVXVXVXN       1 W ~ 8.e.w.I.2.` 2.r.I.e.-.*.yXcXVX=XE.",
"BXVXVXvX%.-.8.Y.-.y ~ I.i         0 2XxXVXVXVXVXVXVXVXVXVXVXVXVXVXVXVXVXCXVXVXE.    X y ~ ;.q.y.w.y.r.6 2.-.3.P.e.| yXVXVXVXVXVX",
"VXVXCXVX8X..3.7. .r Q q.-.    .   w 6XbXVXVXVXVXVXVXVXCXCXCXCXCXCXVXVXVXVXtXs     1 E Q :.e.e.w.P.r.i U 2.3.2.o.q.o.qXVXVXVXVXVX",
"VXVXCXVX=X| =.g M t / 5.e.#   .   v 6XbXVXVXVXVXVXhXVXVXVXVXVXVXVXVXnXoXd     . e ~ ;.6.e.e.w.P.3.g 4 E R 7.8.1.1.L _.VXCXVXVXVX",
"VXVXVXcX3 f z x @.j Y :.Y.6   .   V.6XMXVXVXVXVXVX9X; f n B W.W.V s +       1 R ~ :.q.y.e.w.y.X.E.n m ) Y Q ` &._.%.3 mXVXVXVXVX",
"VXVXnX}.oXcXnX Xm @.y Q 7.r.#     C.6XMXVXVXVXVXVXVX].              . % 1 y ~ ;.6.y.e.e.w.I.-.~.W.+.&.m U T W.VXVXVX.X|.VXVXVXVX",
"VXVXCXVXVXVXVXVXM @.t Q :.I.8.#   R.6XBXVXVXVXVXVXCXVXd   . X y E ! :.4.K.K.7.e.y.e.e.w.Y...f V +.&.@.&.%.r eXVXCXVXVXhXCXVXVXVX",
"VXVXVXVXVXVXVXVX$.h 3 W Q 7.i.w.L b J.MXVXVXVXVXVXVXVXs     r D.4.w.y.e.e.e.y.e.e.e.w.y.7.8 @.k x h h h +.t 0XVXVXVXVXVXVXVXVXVX",
"VXVXVXVXVXVXVXVX- m N Y Q ;.w.e.I.r..._ tXVXVXVXVXVXVXs   X E 4.e.e.e.w.w.e.e.e.e.e.w.y.) g.+.z oXaXgXeX.Xj ~.VXVXVXVXVXVXVXVXVX",
"VXVXVXVXVXVXVXoXN VXsXy ~ W 4.e.q.e.Y.9.k cXVXVXVXCXVXn   1 ~ q.e.e.e.e.e.e.e.e.e.w.P.2.m +.E.VXVXVXVXVXVXhX~.VXVXVXVXVXVXVXVXVX"
};
