/* XPM */
static char *_56d4497fe624893ce6a3c7083ca0ba9FuutclfnRyqVgm4g[] = {
/* columns rows colors chars-per-pixel */
"64 64 212 2 ",
"   c #020203",
".  c #0B0B0C",
"X  c #090708",
"o  c #100E0F",
"O  c #0E0E10",
"+  c #141413",
"@  c #161A1C",
"#  c #1D1D1B",
"$  c #181715",
"%  c #23221E",
"&  c #2C2B19",
"*  c #35321F",
"=  c #1A1E21",
"-  c #1E2225",
";  c #242423",
":  c #282724",
">  c #2B2A26",
",  c #232529",
"<  c #25292C",
"1  c #2C2C2B",
"2  c #292728",
"3  c #312F2C",
"4  c #2F302B",
"5  c #32322D",
"6  c #39382E",
"7  c #383527",
"8  c #2A2D31",
"9  c #2E3235",
"0  c #353533",
"q  c #383733",
"w  c #373833",
"e  c #3A3A35",
"r  c #343639",
"t  c #3C3C3B",
"y  c #403F3B",
"u  c #3F403B",
"i  c #42412F",
"p  c #2D2E40",
"a  c #3A3C43",
"s  c #3A3A4B",
"d  c #353441",
"f  c #2B2F54",
"g  c #383A53",
"h  c #363866",
"j  c #454445",
"k  c #494945",
"l  c #47484A",
"z  c #4C4B4B",
"x  c #4E4F51",
"c  c #4E545C",
"v  c #545453",
"b  c #595954",
"n  c #5C5C5C",
"m  c #575758",
"M  c #605F5D",
"N  c #60605E",
"B  c #575C66",
"V  c #5D6164",
"C  c #58626E",
"Z  c #5E6874",
"A  c #636363",
"S  c #646669",
"D  c #6C6B6B",
"F  c #6A6A67",
"G  c #71706E",
"H  c #666A77",
"J  c #6B7178",
"K  c #737373",
"L  c #797875",
"P  c #7C7C7C",
"I  c #777777",
"U  c #96947D",
"Y  c #353B87",
"T  c #313893",
"R  c #2F37A2",
"E  c #5E6498",
"W  c #6D7786",
"Q  c #727392",
"!  c #717A89",
"~  c #5159A2",
"^  c #4B53B6",
"/  c #5F65AF",
"(  c #6B6FB8",
")  c #7379BB",
"_  c #6468A8",
"`  c #4E59CD",
"'  c #5B65D8",
"]  c #6D74DC",
"[  c #797FDF",
"{  c #747BD7",
"}  c #7074CA",
"|  c #626DE3",
" . c #767CE4",
".. c #7E8284",
"X. c #7F8289",
"o. c #7B8698",
"O. c #7B82DD",
"+. c #7A83E1",
"@. c #848484",
"#. c #8C8C8C",
"$. c #898884",
"%. c #858B97",
"&. c #918F90",
"*. c #8C939C",
"=. c #8D9194",
"-. c #949494",
";. c #9B9B9B",
":. c #92959C",
">. c #9EA09F",
",. c #A7A79F",
"<. c #8B8EA9",
"1. c #8C95A3",
"2. c #8A98AA",
"3. c #979DA6",
"4. c #8B9AB1",
"5. c #9EA1A4",
"6. c #97A6BC",
"7. c #A4A4A4",
"8. c #ACACAC",
"9. c #A7A9AA",
"0. c #A9ABB1",
"q. c #ACB2BB",
"w. c #B3B3B3",
"e. c #BABAB6",
"r. c #B6B9BA",
"t. c #BBBBBB",
"y. c #9BABC3",
"u. c #A3B5CC",
"i. c #AFBACB",
"p. c #AAB5D5",
"a. c #ABB0CA",
"s. c #868DE4",
"d. c #8C92E7",
"f. c #979DE5",
"g. c #9A9EE6",
"h. c #9398EA",
"j. c #8F96F0",
"k. c #9BA1E7",
"l. c #9CA0E9",
"z. c #9FA4F5",
"x. c #A6AAE8",
"c. c #AAAFEB",
"v. c #A3A6E7",
"b. c #AEB3ED",
"n. c #B3B8EF",
"m. c #ABAEF1",
"M. c #AEB3F2",
"N. c #B2B7F6",
"B. c #8A92D1",
"V. c #BDC2C4",
"C. c #B3C0D0",
"Z. c #C4C4C4",
"A. c #CCCCCC",
"S. c #C9C9C8",
"D. c #CACFD2",
"F. c #CCD3DD",
"G. c #D2D2D2",
"H. c #D5D5D5",
"J. c #D3D3D3",
"K. c #D2D4DC",
"L. c #D9D9D9",
"P. c #DEDEDE",
"I. c #DCDCDC",
"U. c #D8D7D5",
"Y. c #DBD8C5",
"T. c #E0DFDD",
"R. c #C2C6EE",
"E. c #C7CBEE",
"W. c #D7DBE6",
"Q. c #C6CAF0",
"!. c #C6C9F8",
"~. c #CED1F2",
"^. c #CBD7F9",
"/. c #DDDEF2",
"(. c #DDE3E3",
"). c gray89",
"_. c #E1E1E1",
"`. c #E7E7E7",
"'. c #E4E4E4",
"]. c #E4E4E4",
"[. c #EAEAEA",
"{. c #EDEDED",
"}. c #EFEFEF",
"|. c #ECECEC",
" X c #E6E6E8",
".X c #F0EFED",
"XX c #E3E5F6",
"oX c #E4E5FC",
"OX c #EBECFA",
"+X c #E5EBF8",
"@X c #E3F2FF",
"#X c #EDF5FA",
"$X c #F1F1F1",
"%X c #F5F5F5",
"&X c #F7F7F7",
"*X c #F6F6F6",
"=X c #F4F4F4",
"-X c #FAF9F6",
";X c #F6F6FC",
":X c #F6FAFD",
">X c #FBFBFB",
",X c gray98",
"<X c #F9F9F8",
"1X c gray99",
"2X c #FDFDFD",
"3X c #FFFFFD",
"4X c #FEFEFE",
"5X c white",
"6X c #FFFFFF",
"7X c #FEFEFE",
"8X c #FEFEFE",
"9X c #F8F7F5",
/* pixels */
"5X5X5X5X5X5X5X5X5X5X5X5X5X5X5X5X5X5X5X5X5X5X5X5X5X5X5X5X5X5X5X5X5X5X5X5X5X5X5X&X5X>Xt.&XI t.5X5X5X5X5X5X5X5X5X5X5X5X5X5X5X5X5X5X",
"5X5X5X5X5X5X5X5X5X5X5X5X5X5X5X5X5X5X5X5X5X5X5X5X5X5X5X5X5X5X5X5X5X5X5X&Xt.5X5X5X5X5X].#.n 8.5X>X5X5X5X5X5X5X5X5X5X5X5X5X5X5X5X5X",
"5X5X5X5X5X>X5X5X5X5X5X5X5X5X5X5X5X&Xw.5X5X5X5X}.).5X5X5X5X5X5X5X5X5X5Xt.I H.P.S.5X>X5XG.7.].5X5X5X5X5X5X5X5X5X5X5X5X5X5X5X5X5X5X",
"5XS.w.w.H.5X5X5X5X5X5X5X5X5X].@.S.5X@.&XG.t.S.;.D 7.5X5X5X5X5X5X5X5X5Xt.9.Z.8.P.5X5X5X5X5X5X5X5X5X5X5X5X5X5X5X5X5X5X5X5X5X5X5X5X",
"5Xz v 3 n -.#.).A.5X5X5X5X5Xw.#.-.H.9.w.@.7.#.-.P ].5X5X5X5X5X5X5X5X5X}.P 8.#.7.-.].|.5X>X5X9.t G Z.5X5X5X5X5X5X5X5X5X5X5X5X5X5X",
"5XH.w.P I A A 7.D 5X5X5X5X5X>XI G.-.8.A ;.Z.@.@.H.5X5X5X5X5X5X5X5X5X5X5X>XA.D ;.8.#.@.7.5X>X+ 0 1 m 5X>X5X5X5X5X5XH.P.;.7.}.5X5X",
">X5Xw.;.&X;.G.L.z 7.5X5X5X5X5X].@.#.H.D 7.5XH.5X5X5X5X5X5X5X5X5X5X5X5X5X5X5XL.>X9.#.-.S.5X5X9.z M ).5X5X5X5X5X}.w.@.-.7.8.=X5X5X",
"5X5XH.L.5X5X|.@.;.|.5X5X5X5X5X5X5X>X5X).>X5X5X5X5X5X).I A.5X5X5X5X5X5X5X5X5X5X5X5X5X5X5X5X5X5XZ.I t m >X5X5X5Xr.7.w.L.5X5X5X5X5X",
"5X5X5X5X5X>X5X5X5X5X5X5X5X5X5X5X5X5X5X5X5X5X5X5X>X5XI $ #.m ].5X>X5X5X5X5X5X5X5X5X5X5X5X).#.1 .   j o |.5X5X5XZ.t.=X=X5X5X5X5X5X",
"5X5X5X5X5X5X5X5X5X5X5X5X5X5X5X5X5X5X5X5X5X5X5X5X5X5X].A.t ; 7.>X5X>X5X5X5X5X5X5X5X5X5XZ.+ 2 #.=X-.2 @.5X5X5X5X5X5X5X5X5X5X5X5X5X",
"5X5X5X5X5X5X5X5X5X5X5X5X5X5X5X5X5X5X5X5X5X5X5X5X5X>X5XP -.@.D A S.5X5X5X5X5X5X5X5X5X5X}.A.5X5X}.n t t.5X5X5X5X5X5X5X5X5X5X5X5X5X",
"5X5X>X5X5X5X5X5X5X5X5X5X5X5X5X5X5X5X5X5X5X5X5X5X5X5XH.m 5X..D m #.Z.P.5X5X5X5X5X5X5X5X5X5X5X5Xn q ;.X w.5X5X5X5X5X5X5X5X5X5X5X5X",
"D 8.5X5X5X7.=X5X5X5X5X5X5X5X5X5X5X5X5X5X5X5X5X5X5X5X&X5X|.&XZ.S.P.j }.5X5X5X5X5X5X5X5X5X5X>X5XI 0 5X#.t 5X5X5X5X5X5X5X5X5X5X5X5X",
"A.].;.7.&XA 5X5X5X5X5X5X5X5X5X5X5X5X5X5X5X5X5X5XS.U.-.:.J ..-.I 7.t w.H.Z.5X>X5X5X5X5X5X5X5X5X&X3 0 A 2 5X5X5X5X5X5X5X5X5X5X5X5X",
"@.P D m #.I Z.G.5X5X5X5X5X5X=X5X5X5X5X5X}.|.t.@.c 6.1.0.=.I.].-.G.Z.Z.K -.;.I >X5X=X5X5X5X5X5X5X&XK t S.5X5X5X5X5X5X5X5X5X5X5X5X",
").t.I ;.# A 2 #.5X5X5X5XA.G.D 8.&X5X>X5X`.A J %.F.5X5X&X@.5X=X>X5X5X>X8.5X8.;.#.;.5X5X5X5X5X5XZ.].5X5X;.7.5X5X5X5X5X5X5X5X5X5X5X",
"5X5X5X5X9.A.9.}.5X5XP @.D D P.j Z.5X5X|.X.C @X|.5XL.P.&XG.>XG.5X5X&X>X=X5X7.Z.}.-.L.5X5X5X>X5Xn n 5Xw.o 1 Z.5X>X5X5X5X5X5X5X5X5X",
"5X5X5X5X5X5X5X5XA.n j D D Z.w.7.5X5XG...6.i.I.>X5X5X7.&X5X;.P.5XP.P.>X].&X5XL.&X].A |.=X5X5X5XZ.X }.@.v &XS.5X5X5X5X5X5X5X5X5X5X",
"5X5X5X5X5X5X>X5XH.K 7.7.5X5X>X5X>X5XA 6.i.w.5X).|.5X).5X5XG.}.&XZ.5X7.}.5X|.].t.5Xt.A 5X5X5X5X5XA 2 0 D 5X5X5X5X5X5X5X5X5X5X5X5X",
"5X5X5X5X5X5X5X5X5X5X>X-.5X5X5X>X5Xe.W 1.5X|.5X5X5X_.Z.}.=X5X].>X|.5X-.=X&XH.>X5X|.7.;.Z.5X5X5X5X5XK 1 H.5X5X5X5X5X5X5X5X5X5X5X5X",
"5X5X5X5X5X5X5X5X5X5X5X5X5X5X5X5X5X-.u.+X9X5X7.].5X7.7.}.|.Z.&X5X5X].&X5XA.=X5X5X}.5XL.#.5X5X5X5X5X5X5X5X5X5X5X5X5X5X5X5X5X5X5X5X",
"5X5X5X5X5X5X5X>XF 7.5X5X>X5X5X5X.XS ^.K.T.=XS.>.5X].A.5XZ.t.5X8.=X5XP.>X5X}.).}.t.5X}.A S.5X5X5X5X5X5X5X5X5X5X5X5X5X5X5X5X5X|.7.",
"5X5X5X5X5X5X5X9.$ 2 M H.5X5X>X5X=Xm i.,X5X8.|.>X5X5X5X5X}.&X5Xt.&X5X5XP.}.;.L.}.=X5XZ.#.Z.5X5X5X5X5X5X5X5X5X5X5X5X5X5X5X5X5XZ.w.",
"5X5X5X5X5X5X5X-., , @ ; @.&X5X5XT.B @Xw.).I.P.&X&X5X].Z.>X5XZ.|.5X7.>X#.L.=X&X#.].A.5XZ.-.5X5X5X5X5X5X5X5X5X5X5X5X5X5X5X5X5X5X5X",
"5X5X5X5X5X5X5X5X].9.K t . r -.D A H @Xe.Z.5X5X8.|.5X9.G.5X5X#.&X$XH.>XA.5X5X5X}.P.Z.5Xt.#.5X5X5X5X5X5X5X5X5X>X5X5X5X5X5X5X5X5X5X",
"5X5X5X5X5X5X5X5X5X5X5X5XG.n   4 # < a x D ;.t.;.A.5X9.).5X=X).5X9X9X}.|.I.A.w.;.L n u % b 5X5X5X5X5X5X5X5X5X5X5X>X8.}.&X&X9.5X5X",
"5X5X5X5X].}.5X>X5X5X,XZ.K 0 z 8 , 8 < < - = = 1 0 e y v %.*.1.%.*.5.3.5.=.e % ; > 1 0 5 k 5X5X5X5X5X5X5X5X5XI ].7.  7.z ;.n D >X",
"5X5X5X&Xz @.&X5X].-.z ; O #.5Xw.j < r r r r 9 0 0 w > c y.! 4.Z y.0.D.V.(.n 5 t e e t e t =X5X5X5X5X5X5X5X7.; 8.I #.I 0 Z.=Xn >X",
"5X5X5X5Xt.t n @.5 : 2 , 8.5X=X#.I - - = , < 8 r 6 t 1 W 6.H ! 2.o.D r.K  Xn 3 q 0 1 > ; ; ].5X5X5X5X5X5X>XA v ].I Z.A.w.5X&X5X5X",
"5X5X5XH.@.;.z ; e 8 8 Z.5X>X5X).-.%.q.@.n j 0 # f r $ V u.6.y.u.p.C.D.V.e.5 1 d t b G 7.&.G.5X5X5X5X5X5X5X-.-.5Xt.A.5X5X5X5X5X}.",
"5X5X5X].5XZ.I 0 = t L.5X,X5X5X&X#.2.#X5X5X/.p.Y.} ~ U H ` <.*.*.*.:.7.<.E ,.( { [.n.;X5XS.Z.5X5X5X5X5X5X5X5X5X5X5X5X>X5X5X5X@.j ",
"5X5X5X5X5X5XG.-.0 ].5X>X5X5X5XI B W.#X<X5X;X| M.l.m.N.h.d.5X>X>X5X5X5XOX .v.N.b.d.+.OX5Xt.S.5X5X5X5X5X5X5X>X5X5X5X5X5X5X5XA.X 9.",
"5X5X5X5X5X5X8.D ;.5X>X5X5X5Xw.q.5X5X5X5X;X<Xk.f.R.<XR.c.R.5X5X5X5X5X5X5Xx.E.5X>XOXg.XX,Xe.A.5X5X5X5X5X5X5X5X5X5X5X5X5X5X5Xn v 5X",
"5X5X5X5X5X5X5Xw.H.5X5X5X5X5X-.5XL.>X5X5X,X] [ XX5X5X5XQ.+.] ,X5X5X5X5XQ.k.+X5X5X,Xf.` oXe.G.5X5X5X5X5X5X5X5X5X5X5X5X5X5X5X2 -.t.",
"5X5X5X5X5X5X5X5X5X5X5X5X5X=X;.5X3.t.5X>X5X,Xk.5X,X5X5X~.g.XX5X5X5X5Xd.' x.OX5X5X5Xg.~.5X8.L.5X5X5X5X5X5X5X5X5X5X5X5X5X5X5Xt X $ ",
"5X5X5X5X5X5X5X>X5X5X5X5X5X=X7.:Xq.w.5X>X5XQ.[ OX5X5X5XO.OX5X,X5X>X>XOX<Xs.OX5X5X5Xd.XX5X9.P.5X5X5X5X5X5X5X5X5X5X5X5X5X5X5XL.;.).",
"5X5X5X5X5X5X5X5X5X5X5X5X5X>X;.5X>X>X5X5X5Xd.d.R.^.oX!.j.j.5X5X5X5X5X5XOXc.^.M.5Xv.h.v.5X9.}.5X5X5X5X5X5X5X5X}.Z.}.5X5X5X5X5X5X5X",
"5X5X5X5X5X5X5X5X5X5X5X5X5X5X7.Z.5X5X5X5X5X-XW. ./ } _ @.J L L L I @.$.) ^ Q ) a.B.K.'.5X;.;.}.5X5X5X5X5X5X5Xn $ t.5X5X5X5X5X>X5X",
"5X5X5X5X5X5X5X5X5X5X5X5X5X5X>X;.7.9.@.F b k a Y 7 T h & 3 > > > > > : p 0 * d R h i k b m 9.8.5X5X5X5X5X5X5XP.I A 7.5X5X5X5X5X5X",
"5X=X].5X5X5X5X5X5X5X5X5X5X5X5X5X;.+ 1 1 5 5 0 6 q s s e e e e e e e e 6 q t 6 Y g 7 0 ; k 5X5X5X5X5X5X5X5X=X#.m ; #.5X>X5X5X5X5X",
"5X@.n n G.=X5X5X5X5X5X5X5X5X5X5XS.- t e e e q q q q 6 q q q q q q q q q q q q 6 q q e 5 z 5X5X5X5X5X5X5X5XP @.|.n P 5X5X5X5X5X5X",
"5X|.-.D n I w.|.5X5X>X>X5X5X5X5X).< 0 q q q q q q q q q q q q q q q q q q q q q q q e 1 v 5X5X5X5X5X5X5X5X>X5Xw.n #.I 5X5X5X5X5X",
"5X5X;.}.7.Z.I 8.5X>X5X5X5X5X5X5X&Xr 1 e q 0 q q q q q q q q q q q q q q q q q q q q e > A 5X5X5X5X5X5X5X5X5X5X5X-.z -.5X5X5X5X5X",
"5X5X&X5X5XA.@.Z.5X5XH.-.;.t.5X5X5Xl < e q q q 0 q q q q q q q q q q q q q q q q q q e : D 5X5X5X5X5X5X5X5X5X5X5X].5X-.@.5X5X5X5X",
"5X5X5X5X5X5X5X5X5XP.A t.7.@.].L.5Xm ; e q q q q q q q q q q q q q q q q q q q q q q e ; P 5X>X5X5X5X5X5X5X5X5X5XA t.A 8.5X5X5X5X",
"5X5X5X5X5X5X5X5X5X}.;.;.t.Z.D K 5XS - e q q q q q q q q q q q q q q q q q q q q q q t % ;.5X>X5X5X5X5X5X5X5X5X5X|.z j >X5X5X5X5X",
"5X5X5X5X5X5X5X5X5X5X5X5XL.I -.-.>XI = e q q q q q q q q q q q q q q q q q q q q q q t % w.5X>X5X5X5X5X5X5X5X5X5X5X>X).5X5X5X5X5X",
"5X5X5X5X5X5X5X5X5X5X5XL.@.5X#.w.w.0 < e q q q q q q q q q q q q q q q q q q q q q q e ; S.5X>X5X5X5X5X5X5X5X5X5X5X5X5X5X5X5X5X5X",
"5X5X5X5X5X5X5X5X5X5X5X&X5X5XZ.#.;.; < e q q q q q q q q q q q q q q q q q q q q 0 q e 1 P.5X5X-.#.5X5X5X5X5X5X5X5X5X5X5X5X5X5X5X",
"5X5X5X5X5X5X5X5X5X5X5X5X5X5X5XP.7.A = e q q e q q q q q q q q q 0 q q q q q q q q e 1 b @.D &XD $ Z.5X5X5X5X5X5X5X5X5X5X5X5X5X5X",
"5X5X5X5X5X5X5X5X5X5X5X5X5X5X5X5X9.t , e q q q q q q q q q q q q q q q q q q q q q t % ;.5X;.z I -.].5X5X5X5X5X5X5X5X5X5X5X5X5X5X",
"5X5X5X5X5X5X5X5X5X5X5X5X5X5X5X5X5XA = e q q e q q q q q q q q q q q q q q q q q q 0 3 |.5XP.@.  #.5X>X5X5X5X5X5X5X5X5X5X5X5X5X5X",
"5X5X5X5XZ.5X=Xt.5X5X5X5X5X5X5X>X5XK = e q q q q q q q q q q q q q q 0 0 q q q 0 t # #.5X7.t n #.L.5X5X5X5X5X5X5X5X5X5X5X5X5X5X5X",
"5X5X5X5Xw.I w.# G.5X5X5X5X5X5X>X5XA - e q q 0 q q q q q q q q q q q q q q q 0 e 1 z &X5XD 9.D ).K t.|.5X5X5X5X5XG.7.Z.P.5X5X5X5X",
"5X5X5X5X&X;.0 ;.}.5X5X5X5X5X5X5X5Xn - e q q q q q q q q q q q q q q q q q 0 e 0 # |.@.w.P.2 -.w.0 D ; P.5X5X5X>X-.t.@.;.Z.5X5X5X",
"5X5X5XP.A D j A.5X5X5X5X5X5X5X5X5Xm ; e q q q q q q q q q q q q 0 q q q e t > % t.5Xv ).7.Z.5X5X|.m A K @.}.5X5X5XP.H.Z.@.8.5X5X",
"5X).;.Z.n @.5X5X5X5X5X5X5X5X5X5X5Xl , e w q q q q q q 0 e e q e e e t e 1 # k H.5X&Xj z j 8.5X5X@.8.9.A v -.w.|.5X5X5X5XP.Z.5X5X",
"5X@.#.Z.@.P.5X5X5X5X5X5X5X5X5X5X=X0 < w q q q q q 0 q e 3 5 0 5 5 > % : z 9.5X5X5X5XG.P.>X].5X5X8.&X>X7.Z.).m &X5X5X5X5X5X5X5X5X",
"5X9.K D 5X5X5X5X5X5X5X5X5X5X5X5X].1 9 w q q q w e 1 X + j k t t j N #.G.5X5X5X5X-.8.5X5X5X5X5X5X5X5X5X5X8.-.z S.5X5X5X5X5X5X5X5X",
"5X5X5X>X>X5X5X5X5X5X5X5X5X5X5X5XG.- 9 0 q q q q q e ,   S.;.v &X5X5X5X5X5X5X5X5Xw.t w.5X>X5X5X5X5X5X5X5X}.9.9.&X5X5X5X5X5X5X5X5X",
"5X5X5X5X5X5X5X5X5X>X5X5XP.}.5X5Xt.= r q w q q q q e w 0 z n G.&X5X5X>X5X5X5X5X>X8.-.A P.5X5X5X5X5X5X5X5X5X5X5X5X5X5X5X5X5X5X5X5X",
"5X5X5X5X5X5X5X5XG.Z.}.t.8.H.5X5X7.@ r 0 q q q q q e : D t.S.5X5X5X5X5X5X5X5X5X>X5X|.-.7.|.5X5X5X5X5X5X5X5X5X5X5X5X5X5X5X5X5X5X5X",
"5X5X5X5X5X5X5X5X&Xt.Z.P.=X&X>X5X@.= r q q q q q q e > n 5X5X5X5X5X5X5X5X5X5X5X5X5X5XZ.K H.5X5X5X5X5X5X5X5X5X5X5X5X5X5X5X5X5X5X5X",
"5X5X5X5X5X5X5X5X}.H.5X5X5X5X5X5XV - r q q q q q q e 1 v 5X5X5X5X5X5X5X5X5X5X5X5X5X5X].w.5X5X5X5X5X5X5X5X5X5X5X5X5X5X5X5X5X5X5X5X"
};
