/* XPM */
static char *_a9601428fae484bd2b8ede6bd270660b066hRGullVfm66M[] = {
/* columns rows colors chars-per-pixel */
"64 64 256 2 ",
"   c #06070A",
".  c #0B0B17",
"X  c #140C1B",
"o  c #0D131D",
"O  c #091619",
"+  c #13121C",
"@  c #171519",
"#  c #0F110C",
"$  c #0C0D22",
"%  c #160D26",
"&  c #0D1423",
"*  c #0B1828",
"=  c #141424",
"-  c #1A1325",
";  c #151A25",
":  c #1A1A26",
">  c #14142A",
",  c #1B152B",
"<  c #14192A",
"1  c #1B1C2B",
"2  c #1D1D34",
"3  c #191936",
"4  c #130F33",
"5  c #231928",
"6  c #231C33",
"7  c #221C3B",
"8  c #281938",
"9  c #341F39",
"0  c #1D212C",
"q  c #1A2429",
"w  c #1D2233",
"e  c #192538",
"r  c #173232",
"t  c #21232E",
"y  c #28282C",
"u  c #222432",
"i  c #262935",
"p  c #2A2B36",
"a  c #24233B",
"s  c #2A253C",
"d  c #242B3B",
"f  c #2C2D3B",
"g  c #292735",
"h  c #332D3D",
"j  c #37283D",
"k  c #2E313D",
"l  c #293839",
"z  c #31323E",
"x  c #353A3C",
"c  c #30202B",
"v  c #18281B",
"b  c #532A36",
"n  c #692C33",
"m  c #33433C",
"M  c #2D503B",
"N  c #32763A",
"B  c #1D5F31",
"V  c #1A1C43",
"C  c #1D1A51",
"Z  c #251C45",
"A  c #341C46",
"S  c #2B1F55",
"D  c #1A2746",
"F  c #172F51",
"G  c #262443",
"H  c #2B2344",
"J  c #2C2C43",
"K  c #2D244B",
"L  c #2C2C4B",
"P  c #242947",
"I  c #332B44",
"U  c #332A4B",
"Y  c #352847",
"T  c #2D3343",
"R  c #2D3C43",
"E  c #2B3949",
"W  c #323542",
"Q  c #333C45",
"!  c #3A3C44",
"~  c #33334C",
"^  c #3B334C",
"/  c #343D4A",
"(  c #3B3D4B",
")  c #383644",
"_  c #272956",
"`  c #352C52",
"'  c #372C58",
"]  c #2A3858",
"[  c #343354",
"{  c #3A3454",
"}  c #353B53",
"|  c #3A3B53",
" . c #36355B",
".. c #3C345A",
"X. c #3A3A5C",
"o. c #271C67",
"O. c #282968",
"+. c #373A64",
"@. c #2F336D",
"#. c #44394B",
"$. c #423454",
"%. c #43345B",
"&. c #443A5C",
"*. c #483B59",
"=. c #472854",
"-. c #6E3655",
";. c #4A3C63",
":. c #453965",
">. c #563D66",
",. c #51326A",
"<. c #6D3A6C",
"1. c #501646",
"2. c #2D424C",
"3. c #2C4544",
"4. c #324344",
"5. c #34424C",
"6. c #334B4B",
"7. c #3A454A",
"8. c #2C5749",
"9. c #375549",
"0. c #2C4758",
"q. c #344452",
"w. c #344B54",
"e. c #334B5B",
"r. c #3A4857",
"t. c #2E5658",
"y. c #3C535C",
"u. c #375658",
"i. c #356A4A",
"p. c #377848",
"a. c #386658",
"s. c #387654",
"d. c #2C704B",
"f. c #2A4667",
"g. c #374864",
"h. c #3A5563",
"j. c #344A75",
"k. c #397065",
"l. c #1D414D",
"z. c #46475A",
"x. c #43595A",
"c. c #4C4A55",
"v. c #446F56",
"b. c #4C4263",
"n. c #4A4568",
"m. c #534365",
"M. c #54446B",
"N. c #5B446C",
"B. c #5B4A6C",
"V. c #574769",
"C. c #445764",
"Z. c #565569",
"A. c #4D4471",
"S. c #5B4573",
"D. c #5C4B73",
"F. c #5C4B7B",
"G. c #584777",
"H. c #5B5478",
"J. c #425B71",
"K. c #614A7B",
"L. c #634975",
"P. c #64557A",
"I. c #63466B",
"U. c #4F6A71",
"Y. c #6A6A7B",
"T. c #65737F",
"R. c #933652",
"E. c #934355",
"W. c #2B8938",
"Q. c #338738",
"!. c #358747",
"~. c #38944B",
"^. c #388754",
"/. c #348F4F",
"(. c #3C9367",
"). c #37A36F",
"_. c #419459",
"`. c #438C51",
"'. c #46966B",
"]. c #46A973",
"[. c #303E88",
"{. c #4C3E82",
"}. c #34508C",
"|. c #3B69AB",
" X c #3A5E9D",
".X c #5C4C83",
"XX c #5E4A86",
"oX c #5E5486",
"OX c #5D4B97",
"+X c #49568E",
"@X c #634C86",
"#X c #64528B",
"$X c #655787",
"%X c #644E97",
"&X c #655394",
"*X c #6A5493",
"=X c #64529A",
"-X c #685799",
";X c #755296",
":X c #55708B",
">X c #666887",
",X c #637384",
"<X c #657788",
"1X c #78798A",
"2X c #696496",
"3X c #737896",
"4X c #6956A4",
"5X c #6B55A7",
"6X c #577AA5",
"7X c #4B74B1",
"8X c #6B78BC",
"9X c #537AC8",
"0X c #3672C8",
"qX c #748793",
"wX c #5783B2",
"eX c #6489B9",
"rX c #7497AD",
"tX c #5EADA3",
"yX c #548CCF",
"uX c #6A98D3",
"iX c #73ACD6",
"pX c #6698E3",
"aX c #69A6E7",
"sX c #74A9E8",
"dX c #7DB8E7",
"fX c #77B4F5",
"gX c #6AACE9",
"hX c #7EC6F8",
"jX c #858597",
"kX c #9496AD",
"lX c #88A9B5",
"zX c #8EADB7",
"xX c #A6A8B1",
"cX c #A59D9B",
"vX c #8FB1C7",
"bX c #84BBE6",
"nX c #86B7F4",
"mX c #ACAEC5",
"MX c #8EC8D4",
"NX c #ACCED6",
"BX c #88C4E6",
"VX c #87C5F8",
"CX c #94CCF7",
"ZX c #8AD5F8",
"AX c #98D9FB",
"SX c #96CCE7",
"DX c #ACD6ED",
"FX c #A7E5FD",
"GX c #B7ECFE",
"HX c #B2EFF5",
"JX c #9DE6EC",
"KX c #C4FAFD",
"LX c #D0FFFF",
"PX c #FAFDFF",
"IX c #E9F2F4",
"UX c #CFD6DF",
/* pixels */
"u t u u u t u p h z f k f u u i u u u u u u u u u u 1 t u t u t u u u u u u u u t u i f z z k k J W z k T J f l h f u w w w u u ",
"u u u t u i f z f k f k f i u u u u u u 0 0 u i 1 i i u u i a 2 u u u u u u u u i 0 u f k f k k W Q Q L p p h j k f p p g u 0 0 ",
"t u i i p f k k k W k k k f i w u u u u i i t t u u 0 i i 1 u i u u t u u u u u i t i k f k W W ! Q / ! W E E l R T W W h p f f ",
"u i f k z z k k Q ) ) Q W k f i u u u u t t t u u i 0 0 0 0 t 0 u u u u u u u u t i k k f W / Q l Q / 5.m x ! ~ ) / 7.4.x k z h ",
"k f k z k f k W Q Q Q / W k z f z f u 0 1 2 2 1 1 1 ; ; ; 1 u u u u u u u u u u i f W k f W / Q ! 5.8.d.^.s.6.4.Q Q Q Q Q Q W h ",
"W k k z f f k Q Q Q Q 5.W k z f 0 t u a a a a 2 7 7 a L G 2 2 u u u u u u u u u z k f f W Q Q Q k N `.tXtX).W.`.9.4.R Q ( / R R ",
"k f f h h k T Q Q Q Q / Q k k u > G X.X.[ [ { | | { J a 2 w i i u u u u u u u u f k f f W Q Q 5.d._._./._.^.M r M 9.6./ / / R R ",
"k k f f z W / / / Q Q / Q W f : ` [  . .[ L a 1 2 = o ; 0 q q q 1 1 : : : : : : 1 k W f Q 7.5.5.W./.(.(.^.3.< % # m u.2.2.w.5.Q ",
"k T L W / W #.E ~ Q / 4.3.l f t L X.[ [ { ` &.V.;.~ q q a s , 1 J L.m.m.>.N.b.>.1 @ i h t i 5 e.!.!.!./.s.] V ; + & G h.0.g.e.2.",
"#.Q m x 4.M M 9.N 8.6.T / ) h < [ [  .L L ..&.b.I.N.L.I.>.N.V.:.j s *.P.V.>.L.A. .6 = i { e.U.3.p.!.Q.N a.%.A < @ . o 4.w.e.e.| ",
"R c.^ T i.].(.~.Q.!.s.4.( ^ W q [ [  .L P ` U { ..>.S.S.L.N.U D cXlXw.8 >.D.;._ +.Y - w kXDXlXqXM W.Q.v.a.g._ D < < + 6.a.2.q.( ",
"R ! R d.~.].tX(.(.Q.Q.p.m ~ 5.; 2 X.[ [  .L G H ] P | G b.$.jXUXPXIXvXrXQ t q c 5 j #.U kXIXrXrXd 8.a.y.u.g.o._ V 4 = s.'.u./ Q ",
"( / d.!.i.i.'.).^.!.W.!.9.Q R p , { [ [  .[ U L s d 6 9 X Z.PXIXqXqXlXHXrX5 -.R.-.*.%.%.kXIXNXrXU.& O q r.x.3. .` 7 l (.'.6./ 4.",
"W w.8.v , L i.!.Q.!.!.v.9.Q ( / > a X.[ ` X.U a 6 A =.>.#.xXPXzXqXrX3XvXvXg.<.<.=.%.%.' >XIXUXMXrX= t X ; i.^.8.i.d.p.^.i.R / Q ",
"! w.l # , o.O.x.p.d.r T y./ ) Q 1 < J X. .[ H , I ,.,.Z z.PXNXMXvXiXrX3XDXrX8 >.,.Y ' =.%.vXzXlXiX7 ' Z . T e.M !./.!.p.M ( } W ",
"5.E > = < 3 H w.x.4.$ a E / Q m ! 0 > L [ G H Y =.$.` Y ( DXzXqXNXlXlXrXMXqX=.<.-.E.-.=.U f.zXvXrXd ] O.w M a.a.!.!.p._.a.e.q.7.",
"e.i X < 3 * 7 C.C.l - , _ x 7.~ Q W w ; + 9 <.<.E.R.E.-.J vXIXlXqXMXzXNXzX- 1.1.b n b & . - f e p Q q.u.d.!.!.Q./.'.^.s.9.r.h.t.",
") 6.v X = 1 o.t.p.l , 3 _ / x / ! p k W = 5 b b b n n b - <XSXSXzXNXPXPXqXU.U.U.J.h.rX6X0.6 A Z i ) R 6.v.s.p.^.p.`.^.h.0.w.u.x.",
"q.t.2.> 4 ` t.s.(.l 0 O Q ( 4.R T z z : , ^ ^ Y :.| :.X.,...:XzXNXPXxXZ.zXLXKXKXAXZXhXVXBXh.6 ` w Q 5.x 7.3.8.'.i.i.u.0.0.h.6.4.",
"0.k.].^.s.i.W.!.t.8.v.M x.W ! 4.k g H 8 *.D..X&X5X5X5X4X5XF.T i r.r.:XrXGXFXGXBXVXFXdXnXdXhXf.e a i Q W ~ / 4.9.9.w.y.u.u.r.| Q ",
"z.a.^.s.~.W.!.!.v.!.N 8./ } ( ) J Y *.>.B.M.@X*XOX-X$X=XoXB.G.] wXuXgXAXCXiXdXsXCXbXuXuXuXgXuXP L 6 p ( ( / Q x ~ y.a.x.7.4./ | ",
"x.t.5.a.`.v.].v.i.p.8.{ ~ 4.Q s H *.V.B.F.%X-X-X-XXX&X4X@X;XA eXAXiXrXrXrXGXKXGXGXAXhXVXbXsXsX}.a I u ) Q R ! #.~ w.w.w./ Q 5.] ",
"e.t.r.p.i.a.(.x.w.8.5.~ ! m T Y $.B.M..X=X4XOX&X=X%X5X%X=X{.C.dX+XD . = 3 +XBXAXCXdXhXVXBXuXaXuX, I a p Q 4.5.5.9.r.r.2.E | w.e.",
"0.5.^ 6.} m 9.M ~ x / 4.z z P ;.S.F.$X>X,X>X2X-X=X=X#XoXG.= 6X+X  @ = 1 H C  XpXpXaXiXuXaXaXpXyXa a L u x 7.2.h.x.u.h.} / u.0.g.",
"5.q.q.w.u.w.R ~ ! Q R Q t 5 ;.F.F.$X<X<X,X,X,X,X5XoXL.*.* E +XD & = + X < G @.7XiXdXdXfXVXbXsXaX6XE u o f 7.2.w.h.u.e.e.q.q.q.5.",
"5.q.w.h.C.y.5./ ) Q k f - Y D.#X>X>X<X,XT.,X,X,X=XF.>.: o % e 7XP 3 3 G 3 Z _ O.@.9XyXyXuXiXeX+X9XyXf.- w 4.W g.w.y.h.e.5./ / / ",
"/ E 0.u.u.w.5./ Q Q T 6 6 ;.@X&X<X,X,X,X,X,X,X,X$Xm.%.O - # f.}.3 Z Z 3 D Z S ' @.7X|.7X XF 3 : @.0Xf.A , i ! Q / r.C.r.5./ / Q ",
"/ q.u.y.q.Q Q Q Q Q f - *.D..X&XT.<X<X:X:X<X>X$XL.%.< & > _ _ _ H K K K P _ O.}. X7Xf.D D 3 _ ' ] F e L p : 5.4.Q 5.q.5./ / / Q ",
"( q.y.h.r./ / Q Q Q u 6 V.N..X2X>X>X>X,XT.,X$X@X>.a . # _ [.= , % , > 2 3 ' @.7XpXpXf.# # 3 @.@.}.- 8 P { > d m ! Q R / / Q Q Q ",
") / 5.w.q.} Q Q 4.Q u #.B.N..X2X2X>X&X2X2XP.M.;.P @ -   ] :X  > ; o < < 7 S }.yXyXwX] X + 2 @.O.}.@ H P +.G y ! ) Q 6.y.r.5.Q Q ",
"Q Q Q / q.q.5.Q Q / i *.B.N.F.&X$X2X4X%XXXB.#.0 * # + _ l.wXP o o & < < ..C +XgXfX}.. o * 6 O.}.}.O o q a a i &.Q 5.y.C.y.5.Q Q ",
"R Q / q.e.e.2.Q Q / u U N.S.G.#X%X=X=XoXm.j , $ = @ ] ] eXVXk.. + 6 7 Z D j.iXVXFXJ.. , 3 V O.}.D w J _ a H i 4.Q 5.w.w.q./ / / ",
"Q / / q.q.5./ Q Q Q i w ~ { &.D..X$XF.m.a = + @ = o f.F MXGXSXt.=   . V f.dXVXGXSX+X& ; G O.}.}.< d w 2 6 a w / Q / q.q.q.5./ / ",
"Q / 5.q.5./ Q Q Q 7.u & a U U { $.m.%.8 1 - + = @ X _ D 6XKXKXAXeXU.<XiXFXSXAXMX4 j.6X4 8 D eXP 3 } e w 7 2 1 W / Q / / 5.q.5.R ",
"Q 5.5.5./ Q Q Q Q k k p 1 a U U ^ $.*.%.- = o o @ + X + o 6XCXVXfXCXVXnXBXiXaX|.+X7XsX Xf.:XpX] ] ] P 4 ~ s 1 i z W W Q / 5.5.Q ",
"Q Q 5.5./ / Q Q ~ k k f 0 < a { [ n.F.M.$.- + @ > o - e # q D  XsXAXJXJXDXCXCXCXAXdXiXhXZXfXpXF w e D D { f : t f f W W Q Q Q Q ",
"Q Q Q Q / Q ) z i k z z z u < < G ....D.B.b.I X = < # J.[  .e 6XyXSXDXFXGXSXSXBXZXfXbXuXeX6Xf.o + 6 2 [ J = t i z f f k W ) Q Q ",
"Q Q Q Q W W z k ~ z f k f k f u : = J *.N.N.P...# o o h.P P +XsXbXCXbXbXbXiXuXaXiXaX8XD $ + % + - 6 G ~ a + i d k k f f k W Q ( ",
"Q Q Q W k k k f p z f f ~ z f W f ; $ 6 $.L.F.#X{.s o X.D z }.hXGXCXFXKXJXZXgXAXHXCX:X  , @ @ o = 7 [ ~ 1 f i T f T z k f k W Q ",
"Q ) Q k f k W f z f z W p f z f p & d < 6 $.M.G.-X:.} e F   :XZXAX7XeXLXFXBX7XiXAXfXf.X @ & & 1 L [  .3 1 z ! ~ T T k k k k i u ",
"k W W z f k k f f k u i i k k k @ s :.+.` s { A.@X` P P a . h.uXwX_ 8XZXZX8XC 6XuXj.= @ . o I >.A.[ w @ y W 5.m 5.Q T f T k t 5 ",
"k k k f f k z W W i u 0 u u W t > z.B.m.;.` H { D.~ E V P < = 3 Z 4 @.eX+XV 5 3 e * . + a { A.A.a 3 1 p Q } / ! / W Q Q T d d q ",
"i i p f k k k k p u u u 0 p i = ` V.N.N.B.D.%.` ' *.Y ^ h + . G G ] }.f.] ] > 3 1 0 i J { Y 7 < + u p k T } / x 4.Q x k k k d a ",
"u t u f k k f f p u u t 0 i - a b.F.*X#XG.N.B.N.*.U &.S.N.j = O o _ [.j.+.D = @ K ` { 7 2 6 : q y i T d T W 9.i.N s.a.6.f j h f ",
"u t t i f f f k i 1 u u p = 6 z.oX#X=X=X-X#XF.S.S.b.[  .;.B.j - Z ] }.}.O.4 1 } } H 7 1 < u t u p f T J Q M p.!.~.].].^.M z ~ k ",
"u u u i f k k k u u u u 1 , $.D.4X%X-X=X=X=X-XG.#XS.N.;.X.{ n.G = % _ P > 8 #.{ L [ { f & 0 u u d T I I m p.!.Q._.(.s.B s.8.T I ",
"u u u i f k k f f f 0 : - $.D.$X4X&X*X&XOX%X&X.XF.N.I.<.G.n.[ } e 2 Z = e +.;.:.>.:. .[ a = : f f k f #.9.!.!.!.!.u.7 . 7.6.3.m ",
"u u u u i f k k f t i , *.P.S.K.G.*X%X=X4X-XG.$XS.B.m.V.N.N.N.>.^ + , U m.M.m.K.I.V.+. .{ 6 u k j x 4.) 9.d.!.i.h.] V X + T r.R ",
"u u u u u u i f u t 0 = G ..H.>X&XH.$X2XOXF.K.S.S.N.N.N.N.V.m.D.n.K U &.D.M.L.m.N.m.V.%...$.- t J ( ( ( 6.2 L h.u.O.7 * * w r.m ",
"u u u u u u i i u t ; 2 L K H { A.Z.Z.>X2XoXH.$XD.m.V.S.S.M.N.K.F.' ' K F.F.>.S.S.P.D.b...H s - W l m 5.f.e # l t.@.P O X i y.} ",
"u u u u u u u u p ; < { :.M.&.{ L G u ~ n.n.n.H.3X>XH.XX.XS.S.K.' ..m.K :.F.G.F.@XA.` { H { { 3 5 x l } +._ % @ ^.6.3 6 . l t.f.",
"u u u u u u u t 0 < f b..X#X$XS.>.M.m.*.$.Y G [ [ } X.A..XK.K.S.A &.M.$.U G.F.:...K U ` 7 { { U 5 k q.( 7.e.3 l u.k.8.g.0.'.k.x.",
"t u u u u u u 0 o G | M.&X&X@X&X*X@XK.N.B.m.H L ..~ G H K H H ' $.V.B.m.Z K ' Z K ;.B.V.$.7 b.D., e m x 6.s.N ^.e.p.Q.N s.v.9.h.",
"u u u u u u u 1 1 U &.D.=X4X&X4X=X=X&XS.B.&.G n.D.m.*.:.;.{ ` G.D.D.D.M.A.;.b.&.I B.N.N.*., $.D.{ w y x 3.8.!.W.!.Q./._.i.] e.0.",
"u u u u u u 0 ; J K $.D.OX=X2X&X=X4X%XG.D.%.K n.S.N.D.XX#X:.Y D.#X*X-XXX@XF.S.B.I B.N.D.b.G J n.m., , j / E 2.i.d.`.k.(.p.6.Q 5.",
"u u u u u u 1 = L ' m.B.&X&X>X&X#X=X%XF.V.%.%.V.N.N.#X=X5XG.K b.=X=X%X=X=X#XD.>.~ M.S.N.m.G G X. .X.1 t q.) x w.x.d.i.u.t.2.( Q ",
"t i u u t 1 < = : s P.S.@X*X*X&XOX-XF.N.D.$.Y V.N.>.K.#X#X@X:.H %X*XS.L.@XK.S.B.U ;.D.D.b.G H $.{ L u ; k ( Q Q Q Q q.r.r.y.y.w.",
"t i u t t < a w u g ^ M..X*X4X4X-XG.S.B.V.s % z.B.L.K.S.S.D.*.{ H 6 #.I 6 Y $.s % s Y H { L a 2 2 a ( w = T Q Q 5.Q 2.2.q.y.y.6.",
"u u w t t < ~ 1 a J g f H A.=XOXK.M.B.^ a J 6 *.b.H H b.b.I J 7 qXY.p 1XjXZ.~ 1XjXz.1XjXw ~ 2 Z.Y.~ | L 1 + k Q Q 5.w.w.q.w.r./ ",
"u u u t 1 2 { < G a W ! z J H H 8 s 6 W T f , - Z.xXY.h ! Y.Z.kXc.Q >XmXH.( qX1XQ Z.jXY.xXz.Z.z.z.>XZ.b.f : ; W ) 5.y.y.w.2./ Q ",
"u u i 0 = G [ 2 ~ w a / 7.7.( c.( ( | E d d a Y.qXq W jXkXz.1XT.f W *.~ Y.Y.z.H.) W Z.Y.z.z.c.W J Z.{ L ~ W 1 p 7./ 5.w.w.5./ ( ",
"u u i : 1 [ J ; u G a L ~ z.z.z.C.| T 2 d d > 1XU.z.Z.{ >XH.n.Y.1X*.J B.' K A.:.Y.Z.I ~ Z.W z.P.&.s Z.| L a $ p Q Q / / 5.q.7.Q ",
"u u u - G  .2 . 1 a J ~ | z.z.z.z.r.~ ( d T n.^ Z.Z.#.z.U ' :.' ' K K S.#X4X-X&XU U m.m.3 { b.Y ..{ + = G L ~ = z / 5./ / 5./ Q ",
"t u u - ~  .w @ w = 6 : ( z.7.z.r.| 6 1 , 1 ^ Y ` Y m.m.N.$X*X-X*X:.H m.F.>.F.S.B.B.N.M.U ;.M.L.G.z.t + H X.{ u k Q ) / / Q R 5."
};
