/* XPM */
static char *e42aa4b591704843f59ca354564aa195VucycKPABDJSUeTd[] = {
/* columns rows colors chars-per-pixel */
"64 64 224 2 ",
"   c #0F0F0F",
".  c gray14",
"X  c #071E5A",
"o  c #3A3D4B",
"O  c #1A276A",
"+  c #1D2C75",
"@  c #1E2E7C",
"#  c #09216B",
"$  c #21307F",
"%  c #63465B",
"&  c #6F6F6E",
"*  c #7B7B7B",
"=  c #515151",
"-  c #BE645E",
";  c #DD7359",
":  c #FF7A56",
">  c #FF7A5B",
",  c #FF7757",
"<  c #FB6B5A",
"1  c #FD7662",
"2  c #FF7D63",
"3  c #FF7C6B",
"4  c #F57A6A",
"5  c #E7797A",
"6  c #F27971",
"7  c #FA7F7B",
"8  c #ED7C6B",
"9  c #FB8268",
"0  c #FE8875",
"q  c #FC907E",
"w  c #1A2E87",
"e  c #213185",
"r  c #22348C",
"t  c #233693",
"y  c #25399B",
"u  c #1838A4",
"i  c #263BA2",
"p  c #283DA5",
"a  c #293EAA",
"s  c #2137A6",
"d  c #243DB7",
"f  c #384B92",
"g  c #2A40AD",
"h  c #374CA7",
"j  c #2C42B3",
"k  c #2E45BB",
"l  c #3249BB",
"z  c #3E56BD",
"x  c #4B5A9A",
"c  c #4E5095",
"v  c #455CBC",
"b  c #4558B8",
"n  c #505FA9",
"m  c #4E62B9",
"M  c #5769BA",
"N  c #5B6BA8",
"B  c #687CAB",
"V  c #6978B6",
"C  c #6A69B0",
"Z  c #6D568B",
"A  c #1F3DD5",
"S  c #233DC1",
"D  c #2E47C1",
"F  c #2F48C4",
"G  c #2346C5",
"H  c #314AC4",
"J  c #324BCC",
"K  c #3750CD",
"L  c #3953C5",
"P  c #2E4ADE",
"I  c #2947D6",
"U  c #334ED4",
"Y  c #324EDA",
"T  c #3551DC",
"R  c #3852D8",
"E  c #2B50DE",
"W  c #2D4BE3",
"Q  c #2B4BEB",
"!  c #2349E3",
"~  c #314EE6",
"^  c #314FEE",
"/  c #3753E2",
"(  c #3855E6",
")  c #3351EC",
"_  c #3956EA",
"`  c #3A58EE",
"'  c #365BEF",
"]  c #2C4DF3",
"[  c #224AFA",
"{  c #2F52FA",
"}  c #2E5BFF",
"|  c #3251F2",
" . c #3B5AF4",
".. c #3355FD",
"X. c #345BFF",
"o. c #3D5DFD",
"O. c #3F60FF",
"+. c #3760FF",
"@. c #435AC7",
"#. c #4158D1",
"$. c #6E5FC0",
"%. c #5467C4",
"&. c #5267CF",
"*. c #7B6DC9",
"=. c #646ADE",
"-. c #6B6BD8",
";. c #6B70CB",
":. c #405EFB",
">. c #4963EE",
",. c #5668E9",
"<. c #4162FF",
"1. c #4666F9",
"2. c #BA7499",
"3. c #AE739E",
"4. c #9671B8",
"5. c #936EB0",
"6. c #A773AA",
"7. c #B174A3",
"8. c #A672B3",
"9. c #8D628F",
"0. c #CA768E",
"q. c #DD7982",
"w. c #D2788B",
"e. c #C87793",
"r. c #E17A82",
"t. c #8771C5",
"y. c #836FC6",
"u. c #7F8284",
"i. c #6E83B2",
"p. c #6E85BB",
"a. c #7289BD",
"s. c #7888B5",
"d. c #7284A7",
"f. c #7784C5",
"g. c #778BCA",
"h. c #8C8C8C",
"j. c #959595",
"k. c #9D9D9D",
"l. c #9DAF9E",
"z. c #8A97BA",
"x. c #9299B9",
"c. c #8F95B3",
"v. c #9EB9A5",
"b. c #94A2BE",
"n. c #A2A2A3",
"m. c #ADADAD",
"M. c #A4A5A9",
"N. c #A4BAA5",
"B. c #ABADB6",
"V. c #B3B3B4",
"C. c #BBBBBB",
"Z. c #AFB0B3",
"A. c #FA9584",
"S. c #FDA393",
"D. c #FAA995",
"F. c #F1A08E",
"G. c #D8B8A9",
"H. c #FDB6A6",
"J. c #FFBCB0",
"K. c #CAB199",
"L. c #ABC2AD",
"P. c #A6C0A8",
"I. c #B6CAB8",
"U. c #BBD1BE",
"Y. c #FEC6B7",
"T. c #869AC6",
"R. c #8089C3",
"E. c #93A6CA",
"W. c #9CB5D3",
"Q. c #88A0C4",
"!. c #A6ABC7",
"~. c #ADB1C6",
"^. c #B8BBC7",
"/. c #A1BAD5",
"(. c #BDC4C5",
"). c #BACED4",
"_. c #BAD3EB",
"`. c #B3CAE2",
"'. c #CCCDCD",
"]. c #C3C6C5",
"[. c #C4D4C5",
"{. c #C9D9CA",
"}. c #CBCEDC",
"|. c #CDD9D3",
" X c #D4D4D4",
".X c #D2DFD3",
"XX c #DCDCDC",
"oX c #D8D9D7",
"OX c #F8D2C4",
"+X c #FBDDD3",
"@X c #E1DED1",
"#X c #CBE3D7",
"$X c #DCE6DC",
"%X c #E4E3DB",
"&X c #F8E9DC",
"*X c #C8DBED",
"=X c #DEE4E5",
"-X c #CBE4FE",
";X c #CFE3F5",
":X c #D5EAFF",
">X c #DBEDFF",
",X c #D0E6FD",
"<X c #E4E4E4",
"1X c #E4ECE5",
"2X c #ECECE6",
"3X c #EBECEC",
"4X c #EAE7E9",
"5X c #F8ECE2",
"6X c #F4F4ED",
"7X c #FEFBEF",
"8X c #F9F4E8",
"9X c #E4F2FF",
"0X c #EFF9FD",
"qX c #EBF4FA",
"wX c #F3F4F3",
"eX c #F5FAF5",
"rX c #FDFBF4",
"tX c #F4FBFF",
"yX c white",
"uX c #FEFEFF",
"iX c #FDFDFD",
"pX c #FEFEFE",
"aX c #F7F7F8",
"sX c #E4EFEE",
/* pixels */
"o.o.o.o.o.o.o.o.o.o.o.o.o.o.o.o.o.o.o.o.o.o.o.o.o.o.o.o.o.o.o.o.o.o.o.o.o.o.o.o.o.o.o.o.o.o.o.o.o.o.o.o.o.o.o.o.o.o.o.o.o.o.o.o.",
"o.o.o.o.o.o.o.o.o.o.o.o.o.o.o.o.o.o.o.o.o.o.o.o.o.o.o.o.o.o.o.o.o.o.o.o.o.o.o.o.o.o.o.o.o.o.o.o.o.o.o.o.o.o.o.o.o.o.o.o.o.o.o.o.",
"o.o.o.o.o.o.o.o.o.o.o.o.o.o.o.o.o.o.o.o.o.o.o.o.o.o.o.o.o.o.o.o.o.o.o.o.o.o.o.o.o.o.o.o.o.o.o.o.o.o.o.o.o.o.o.o.o.o.o.o.o.o.o.o.",
"o.o.o.o.o.o.o.o.o.o.o.o.o.o.o.o.o.o.o.o.o.o.o.o.o.o.o.o.o.o.o.o.o.o.o.o.o.o.o.o.o.o.o.o.o.o.o.o.o.o.o.o.o.o.o.o.o.o.o.o.o.o.o.o.",
"o.o.o.o.O.o.T o.o.o.o.o.o.o.o.o.o.o.o.o.o.o.o.o.o.o.o.o.o.o.o.o.o.o.o.o.o.o.o.o.o.o.o.o.o.o.o.o.o.o.o.o.o.o.o.o.o.o.o.o.o.o.o.o.",
"o.o.O.J / J a U O.o.o.o.o.o.o.o.o.o.o.o.o.o.o.o.o.o.o.o.o.o.o.o.o.o.o.o.o.o.o.o. .F o./ o.o.o.o.<.o.o.o.o.o.o.o.o.O.( k o.o.o.o.",
"o.o.H t y p  . .o.o.o.o.o.o.o.o.o.o.o.o.o.o.o.o.o.o./ o.o.o.o.o.o.o.o.o.o.o.o.O.T e T t J J H j J  .o.o.o.o.o.o.o.O.k / o.o.o.o.",
"o._ k + J Y o.o.o.o.o.o.o.o.o.o.o.o.o.o.o._ T O.T J g / o.o.o.o.o.o.o.o.o.o.o.O.J y T j J a Y k p ( o.o.o.o.o.o.o.o.g T O.o.o.o.",
"o. .k k  .O.o.o.o.o.o.o.o.o.o.o.o.o.o.o.O.J / ` k e j o.o.o.o.o.o.o.o.o.o.o.o.o. .o.o.o.o.o.o. .O.o.o.o.o.o.o.o.o./ J  .o.o.o.o.",
"o.o.T  .o.o.o.o.o.o.o.o.o.o.o.o.o.o.o.o.o.U J Y j O ( O.o.o.o.o.o.o.o.o.o.o.o.o.o.o.o.o.o.o.o.o.o.o.o.o.o.o.Y  . .k ` o.o.o.o.o.",
"o.o.o.o.o.o.o.o.o.o.o.o.o.o.o.o.o.o.o.o.o.o.H t k p ` o.o.o.o.o.o.o.o.o.o.o.o.o.o.o.o.o.o.o.o.o.o.o.o.o.o._ k  .k <.o.o.o.o.o.o.",
"o.o.o.o.o.o.o.o.o.o.o.o.o.o.o.o.o.o.o.o.o.o.j ( o._  .o.o.o.o.o.o.o.o.o.o.o.o.o.o.o.o.o.o.o.o.o.o.o.o.o.o.H T Y k U o.o.o.o.o.o.",
"o.o.o.o.o.o.o.o.o.o.o.o.o.o.o.o.o.o.o.o.o.o. .o.<.<.X.....X.X.o.o.o.o.O.<.<.o.o.o.o.o.o.o.o.o.o.o.o.o.o. ._ <. .Y _ o.o.o.o.o.o.",
"o.o.o. ._ o.o.o. .o.o.o.o.o.o.o.o.o.o.o.o.o.<.o.W H v M M m v v @.L J U P ] X.<.o.o.o.o.o.o.o.o.o.o.o.o.o.o.o.o.O.o.o.o.o.o.o.o.",
"o.o.O.i a y p D j o.o.o.o.o.o.o.o.o.o.o.o.<.) h d.).sXwXeXeX6X2X2X<XXX X^.x.m W o.o.o.o.o.o.o.o.o.o.o.o.o.o.o.o.o.o.o.o.o.o.o.o.",
"o.o.<.p p H _  . .o.o.o.O.o.o.o.o.o.o.o.<.P N *XyXyXyXyXyXyXyXyXyXyXyXyXyXyXrXB.H X.o.o.o.o.o.o.o.o.o.o.o.o.o.o.o.o.o.o.o.o.o.o.",
"o.o.o. .o.<.o.o.o.o.o.O.U j ` o.o.o.o.<.P B 9XyXyXiXC.'. XoXyXyXyXyXyXiXyXyXyXyXoXb X.<. ._  .o.o.o.o.o.o.o.o.o.o.o.o.o.o.o.o.o.",
"o.o.o.o.o.o.o.o.o.o.O.t y ` o.o.` o.g P B 9XyXyXyXyX* j.n.& 4XyXyXyXyXyXyXaXyXyXyX Xl j k T t T <.o.o.<.<.o.<.O.o.<.o.o.o.o.o.o.",
"o.o.O.o.o.o.o.o.o.o.o.U T y y F r g s x ;XyXyXyXyXyXk.C.3X].h.XXV.m.'.m.<X* V.XXyX6Xo ) <.<.t k  .(  .U / J k  . .T  .<.o.o.o.o.",
"o. .T  . .o.o.o.o.o.o.o.k i / _ / <.D b.tXyXyXyXyXyXh.C.'.C.wX].V.XXoX'.C.C.j.m.yXwX& j Y O j T y j k + y k $ + R O i _ o.o.o.o.",
"o. .U i J o.o.o.o.o.o. ._ O.o.o.O.X.b _.tXyXyXyXyXyX4X3XiXyXyXyXyXyXyXyXyXyXyXiXyXyX%Xo w U o.o.<.<.<.:.o.o.<./  .o. . .o.o.o.o.",
"o.O.g g O.o.o.o.o.o.o.o.o.o.o.o.o.| V -XyXyXyXyXyXyXyXyXyXyXyXyXyXyXyXyXyXyXyXyXyXiXyX(.W <.o.o.{ P I X.<.o.o.<.o.o.o.o.o.o.o.o.",
"O.Y r k  .o.o.o.o.o.o.o.o.o.o.o.<.Y Q.>XyXyXyXyXyXyXyXyXyXyXyXyXyXyXyXyXyXyXyXyXyXyXyX2X@.o.o.Y z.^.^.M | <.o.o.o.o.o.o.o.o.o.o.",
"o. .` /  .o.o.o.o.o.o.o.o.o.o.o.O.K W.9XyXyXyXyXyXyXyXyXyXyXyXyXyXyXyXyXyXyXyXyXyXyXyXiXV X./ ~.yXyXyX8XM X.<.o.o.o.o.o.o.o.o.o.",
"o.o.o.o.o.o.o.o.o.o.o.o.o.o.o.o.o.K /.0XyXyXyXyXyXyXyXyXyXyXyXyXyXyXyXyXyXyXyXyXyXyXiXyXz.[ V %XyX X'.yX XY <.o.o.o.o.o.o.o.o.o.",
"o.o.o.o.o.o.o.o.o.o.o.o.o.o.o.o.o.L `.tXyXyXyXyXyXyXyXyXyXyXyXyXyXyXyXyXyXyXyXyXyXyXiXyX!.I M. XwXZ.n.XXyXV ..<.o.o.o.o.o.o.o.o.",
"o.o.o.o.o.o.o.o.o.o.o.o.` T o.o.o.z `.iXyXyXyXyXyXyXyXyXyXyXyXyXyXyXyXyXyXyXyXyXyXyXiXyX^.h rX].n. X3XaXyX^.W <.o.o.o.o.o.o.o.o.",
"o.o.o.o.o.o.o.o.o.o.o.o.k j  ./ ..v _.iXyXyXyXyXyXyXyXyXyXyXyXyXyXyXyXyXyXyXyXyXyXyXyXyX).n yX4XwXyXyXyXyX2X#.o.o.o.o.o.o.o.o.o.",
"o.o.o.o.o.o. .o.o.o.o. .j H  .r s f *XyXyXyXyXyX<X3X3XwXiXyXyXyXyXyXyXyXyX3X[.(.4X3X4XyX}.N yXaXyXyXyXwX4XrX;...o.o.o.o.o.o.o.o.",
"o.o.o.o.o. .j T o.o.o._ g g o.H | v _.iXyXyXeXXX'.v.4X<X'. XyXyXyXyXyXI.1X XN.[.aXI.].rX=Xx yXZ.m.m.V.m.'.rXf.{ <.o.o.o.o.O.o.o.",
"o.o.o.o.o. .@ H O.o.o. .T o.o.<.o.v _.tXyXyX{.N.I.{.{.U.U.4XiXyXyXyXyX.XL.l.$X[.U.I.4XrX<Xc wXaX3XC.<X4X3XyXs.{ <.o.o.o. .J o.o.",
"o.o.o.o.o.a y o.o.o.o.o.O.o.o.o.I i.,XiXyXyX1X$X1XyXsXL.4XoXiXyXyXyXyXiX[.$XyX3X[.[.(.iXwXh }.yX<XwXyXyXiXyXf...:.o.o.o. .t J O.",
"o.o.o.o. .F o.o.o.o.o.o.o.o.<.P z.yXyXyXyX[.N..XyXY.5X).U. XyXyXyXyX[.L..XyXyXyXeXI.N.yX6XH T.yXn.C.iX4X^.rX@.o.o.o.o.o.o.J D  .",
"o.o.o.o.H F o.o.o.o.o.o.o.:...V yXyXyXyXyXeXU.wXyXH.0 J.U.v.yXyXyXyXiX{.$XyXyXD.F.I.=XyX8X#.#.2XZ.n.oXM.%X~.Q <.o.o.o.o.o.i J O.",
"o.o._ o.U H o.o.o.o.o.o.o.<.Q ~.wX(.yXyXiXyX=X{.yXyXrXS.9 G.yXyXyXyXyXyXL.wXyX&XF.; G.yX6X@...V %XrXrX@X^.R o.o.o.o.o.o.o.j ( o.",
"o.o.T t i J o.o.o.o.o.o.o.<.Q ~.yX^.3XyXyX1XP..X1X1XU.#XK.q S.rXyXyXyX[.L.[.3X#X#XOXq D.&XL o.| %.E.!.f.T o.o.o.o.o.o.o.a t o.o.",
"o.o.o._ a T O.o.o.o.o.o.o.<.] x.yXyXyXyXyX$X.X3X[.U.aX$X).iXD.9 Y.yXyXwXyX1XL.{.N.0XyXH.9 5.X.X.X.] Q ..o.o.o.o.o.o.o.o.k g o.o.",
"o.o.o.o.o.o.o.o.o.o.o.o.o.o.X.m &XyXyXyXyXyXyXyX[.U.yXyXyXyXyX+X0 A.5XyXyXwXP.yX$XwXyXyX+X8 r.=.} o.<.o.o.o.o.o.o.o.o./ y + ` o.",
"o.o.o.o.o.o.o.o.o.o.o.o.o.o.o...v x.].iXyXyXyXyXwXwXyXyXyXyXyXyXyXH.1 H.yXyXiXyXyXyXyXyX6X@.8.2 7.1.X.o.o.o.o.o.o.o.o.o.U a T o.",
"o.o.o.o.o.o.o.o.o.o.o.o.o.o.o.o.o.A s.iXyXyXyXyXoXyXyXyXyXyXyXiXyXyX&X0 0 +XyXyXiXyXyXyX5X@.} =.5 6 *.X.X.:.o.o.o.o.o.o.O.O.o.o.",
"o.o.o.o.o.o.o.o.o.o.o.o.o.o.o.o.<.) T.tXyXyXyX4X* yXyXyXyXyXyXyXyXiXyXyXJ.1 S.rXyXyXyXyX%XL :.X.X.4.2 0.,.} o.o.o.o.o.o.o.o.o.o.",
"o.o.o.o.o.o.o.o.o.o.o.o.o.o.o.o.<.~ g.9XyXiXyXh.  yXyXyXyXyX3Xk.4XyXyXn.|.7Xq 1 Y.yXyXyX%XR o.o.o.} ,.q.2 4.+.X.:.o.o.o.o.o.o.o.",
"o.o.o.o.o.o.o.o.o.o.o.o.o.o.o.o.<.~ i.9XyXyXaX    XXyXyXyXyXyXXXj.j.h.C.yXyXyXY.1 q &XyX XJ O.o.o.:.X.X.4.2 5 =.} X.:.o.o.o.o.o.",
"o.o.o.o.O.o. .o.o.o.o.o.o.o.o.o.<.| p.>XyXyXaX. = yXyXyXyXyXyXyXyXXXaXyXyXyXyXyX8XA.< Y.].! <.o.o.o.o.o.} >.0.> 7.1.X.<.<.O.o.o.",
"o.o.o.<.j + T O.o.o.o.o.o.o.o.o.<.| a.:XyXyXyXaXyXyXyXyXyXyXyXyXyXyXyXyXyXyXyXyXyXyXOX3 4 *.X.X.:.o.o.o.:.X.X.y.3 7 Z G s J O.o.",
"o.o.o.y O  .` / o.o.o.o.o.o.o.o.<.) a.:XyXyXyXyXyXyXyXyXyXyXyXyXyXyXyXyXyXyXyXyXyXyXyXrXA., e.,.} o.:.o.o.o.o.X.#.2.: - b #  .:.",
"o.o.J H a o.U r o.o.o.o.o.o.O. .` | a.-XyXyXyXyXyXyXyXyXyXyXyXyXyXyXyXyXyXyXyXyXyXyXiXyXE.$.3 2 4.O.X.:.o.o.o.<.s X C 7 0 9.' X.",
"o.o.o.<.T a r p ` o.o.o. ./ / t H | i.-XyXyXyXyXyXyXyXyXyXyXyXyXyXyXyXyXyXyXyXyXyXyXyXyXR.[ 1.2.: q.=.} o.<.o.` k e { 1.3.2 r.-.",
"o.o.o.o.O.U j Y T o.o.O.T r y Y ` d B -XiXyXyXyXyXyXwXiXiXiXiXiXiXiXiXiXwX4X'.4XyXyXyXiXf...o.X.-.6 > 7.>.E $ + y <.o.X.} -.6 > ",
"o.o.o.o.o.o.1.i y <. .o.` g  .U k P p.-XiXyXyXyXyXaXV.k.n.k.k.n.n.k.n.j.j.k.m.4XyXyXyXrX&.X.:.:.X.<.3.> 6 % E d j <.o.o.:.X.1.6.",
"o.o.o.o.o.o. .<.p j <. .o.o.o.` o.| i.-XiXyXyXyXyXyXyXyXyXyXyXyXyXyXyXyXyXyXyXyXyXyXyX XU O.o.o.:. .u c 5 9 0.v X.o.:.o.o.:.o.X.",
"o.o.o.o.o.o.o.o. .F _ o.o.o.o.o.<.^ a.-XiXyXyXyXyXyXyXyXyXyXyXyXyXyXyXyXyXyXyXyXyXiXyXs.] <.o.o. .t e w 1.6.> 3 4.O.X.:.o.o.o.o.",
"o.o.o.o.o.o.o.o.Y O r ( o.o.o.o.<.| a.-XiXyXyXyXyXyXyXyXyXyXyXyXyXyXyXyXyXyXyXyXiXyXoXH O.o.o.o.O.t + R o.} =.q.: q.-.X.X.:.o.o.",
"o.o.o.o.` o.o.o./ T w k <.o.o.o.<.| a.-XiXyXyXyXyXyXyXyXyXyXyXyXyXyXyXyXyXyXyXiXyX7XN ..:.o.o.o.o.O.y  .o.:.X.O.4.2 > 7.>.X.o.o.",
"o.o.o. .k _ O.o.o.<.o.o.o.o.o.o.<.| a.-XiXyXyXyXyXyXyXyXyXyXyXyXyXyXyXyXyXyXyXyXrXV ] <.o.o.o.o.o.o. . .o.o.:.o.} ,.w.: 6 y.X.X.",
"o.o.o.k j U / o.o.o.o.o.o.o.o.o.<.^ i.-XiXyXyXyXyXyXyXiXiXyXyXiXiXyXyXyXyXyXyX'.x S <.o.o.o.o.o.o.o.o.o.o.o.o.o.:.X.o.4.3 : e.,.",
"o.T o.J a j U O.o.o.o.o.o.o.o.O.<.W s.,XyXyXyXyXyXyXyXyXyXyXyXyXyXyXiXrX%XB.N U s l o. . .o.o.o.o.o.o.o.o.o.o.o.o.o.o.} ,.e.> 3 ",
" .F ( D k k  .o.o.o.o.o.o.o. .D <.~ T.-XyXyXyXyXyXyXoXu.k.!.!.b.z.s.V m K W ..O.+ g <.a / O.o.o.o.o.o.o.o.o.o.o.o.o.o.:.X.X.t.6 ",
"O.H U U o.T o.o.o.o.o.o.o.O.D e o.~ T.:XyXyXyXyXyXyXiX(.f ] Q Q ] { ..X.o.<.<./ J J k y J o.o.o.o.o.o.o.o.o.o.o.o.o.o.o.o.o.X.,.",
"o.` U o. .o.o.o.o.o.o.o.o.U g o.<.U z.>XyXyXyXyXyXyXyXyX%.o.<.<.<.<.o.o.o.o.o.o.<. .U ` g t O.o.o.o.o.o.o.o.o.o.o.o.o.o.o.o.:.X.",
"o.o.O.o.o.o.o.o.o.o.o.<.T y j ` <.Y E.>XyXyXyXyXyXyXyX7X%.o.H p o.o.o.o.o.o.o.o.o.o.O.o. .a k  .o.o.o.o.o.o.o.o.o.o.o.o.o.o.o.o.",
"o.o.o.o.o.o.o.o.o.o.o.H a / Y  .<.J E.9XyXyXyXyXyXyXyXrX%.X.H y @ J o.o.o.o.o.o.o.o.o.o.o.<.F y  .o.o.o.o.o.o.o.o.o.o.o.o.o.o.o.",
"o.o.o.o.o.o.o.o.o.o.o.t p <.o.o.o.K W.9XyXyXyXyXyXyXyX7X%.) g U J F o.o.o.o.o.o.o.o.o.o.o.o.O. .o.o.o.o.o.o.o.o.o.o.o.o.o.o.o.o.",
"o.o.o.o.o.o.o.o.o.o.o.O.T  .o.o.o.H /.0XyXyXyXyXyXyXyXrXM ..T j r a O.o.o.o.o.o.o.o.o.o.o.o.o.o.o.o.o.o.o.o.o.o.o.o.o.o.o.o.o.o."
};
