/* XPM */
static char *_818d4d90b1e4d4baf2a40bc213f8779ZDxxAmjG3d1yExVF[] = {
/* columns rows colors chars-per-pixel */
"64 64 251 2 ",
"   c #0C0B15",
".  c #0C0D1A",
"X  c #070714",
"o  c #120C19",
"O  c #0D111C",
"+  c #0E1A18",
"@  c #12121D",
"#  c #16141B",
"$  c #08030A",
"%  c #0A0C22",
"&  c #150B20",
"*  c #141422",
"=  c #191626",
"-  c #151925",
";  c #1A1925",
":  c #15162A",
">  c #16192B",
",  c #1B1B2C",
"<  c #19152A",
"1  c #161C32",
"2  c #1C1E33",
"3  c #1D1E3B",
"4  c #171939",
"5  c #0C142C",
"6  c #211E2D",
"7  c #261B2A",
"8  c #221E33",
"9  c #261D39",
"0  c #351D2F",
"q  c #1D212D",
"w  c #1D2027",
"e  c #1E2135",
"r  c #1F203B",
"t  c #1D2A3D",
"y  c #23212C",
"u  c #242329",
"i  c #242234",
"p  c #22233C",
"a  c #29263C",
"s  c #25293C",
"d  c #292A3C",
"f  c #292B35",
"g  c #36353A",
"h  c #34293B",
"j  c #4A1A33",
"k  c #482C34",
"l  c #692C3A",
"z  c #1F1F41",
"x  c #241847",
"c  c #1F2442",
"v  c #1E2A54",
"b  c #242543",
"n  c #292645",
"m  c #262A44",
"M  c #292B45",
"N  c #26254A",
"B  c #2B264B",
"V  c #272A4B",
"C  c #2B2B4B",
"Z  c #322B4D",
"A  c #372A4A",
"S  c #2C3244",
"D  c #2D314C",
"F  c #2F3849",
"G  c #31334D",
"H  c #353A4C",
"J  c #3B3D4D",
"K  c #383746",
"L  c #2B2653",
"P  c #2C2B52",
"I  c #292856",
"U  c #322C54",
"Y  c #3D2D53",
"T  c #332E5B",
"R  c #3A2E5E",
"E  c #2F3250",
"W  c #2E3059",
"Q  c #333553",
"!  c #3D3255",
"~  c #363B54",
"^  c #3A3C55",
"/  c #35325B",
"(  c #3B355C",
")  c #363B5A",
"_  c #3A3D5A",
"`  c #262B62",
"'  c #352D63",
"]  c #352D69",
"[  c #392E6A",
"{  c #392D67",
"}  c #363264",
"|  c #3A3365",
" . c #3B3C63",
".. c #3C336B",
"X. c #3B3B6B",
"o. c #353E64",
"O. c #3B3473",
"+. c #2D3160",
"@. c #462A4C",
"#. c #47374C",
"$. c #442E54",
"%. c #492D55",
"&. c #422E5F",
"*. c #572D5A",
"=. c #433255",
"-. c #43335A",
";. c #4B325A",
":. c #493654",
">. c #54325B",
",. c #5B335C",
"<. c #5C3556",
"1. c #5B3040",
"2. c #642D57",
"3. c #66355D",
"4. c #6B345C",
"5. c #653959",
"6. c #733459",
"7. c #6E304F",
"8. c #433968",
"9. c #5C3664",
"0. c #423A72",
"q. c #692C62",
"w. c #643463",
"e. c #6A3363",
"r. c #683867",
"t. c #733567",
"y. c #722F66",
"u. c #3A414D",
"i. c #3C4255",
"p. c #3D435B",
"a. c #3E4A5C",
"s. c #39455A",
"d. c #3B4464",
"f. c #3D436B",
"g. c #364161",
"h. c #3E5461",
"j. c #45474D",
"k. c #424354",
"l. c #42455C",
"z. c #424C5E",
"x. c #4A4A5A",
"c. c #50535A",
"v. c #7D4653",
"b. c #444D61",
"n. c #494968",
"m. c #445062",
"M. c #4B5265",
"N. c #4D566C",
"B. c #57596C",
"V. c #565968",
"C. c #5B5C73",
"Z. c #555577",
"A. c #49466D",
"S. c #5A6276",
"D. c #566167",
"F. c #62647B",
"G. c #686977",
"H. c #6C717E",
"J. c #77777E",
"K. c #6C6B72",
"L. c #645F75",
"P. c #913B5B",
"I. c #B43C5F",
"U. c #953862",
"Y. c #831A45",
"T. c #DF3D54",
"R. c #8F4E54",
"E. c #AB495C",
"W. c #A65668",
"Q. c #AE4C6A",
"!. c #AB526A",
"~. c #DC4B5B",
"^. c #D6515A",
"/. c #E74A5B",
"(. c #DC586B",
"). c #E65968",
"_. c #EC5170",
"`. c #DD6672",
"'. c #DD747B",
"]. c #C96877",
"[. c #E96C79",
"{. c #EC747D",
"}. c #E7777B",
"|. c #F3757A",
" X c #ED6774",
".X c #5A6484",
"XX c #686782",
"oX c #6C7188",
"OX c #777788",
"+X c #747390",
"@X c #827E8F",
"#X c #DB7884",
"$X c #D36381",
"%X c #EA7584",
"&X c #E47983",
"*X c #EC7B84",
"=X c #E87A89",
"-X c #F47885",
";X c #E47D92",
":X c #F47DA2",
">X c #7E8998",
",X c #7E98A4",
"<X c #87878B",
"1X c #868896",
"2X c #89929D",
"3X c #819095",
"4X c #94959A",
"5X c #8894A9",
"6X c #969BA8",
"7X c #8891A9",
"8X c #96A6B1",
"9X c #A6A8AB",
"0X c #A8ACB3",
"qX c #B6B8B6",
"wX c #B2B2B0",
"eX c #A9A19E",
"rX c #F58189",
"tX c #EA8697",
"yX c #F5838D",
"uX c #ED8DA5",
"iX c #F58AA4",
"pX c #EB93AB",
"aX c #F595A8",
"sX c #ED95B5",
"dX c #F495B4",
"fX c #F38EB6",
"gX c #C3BCB6",
"hX c #B9C0BC",
"jX c #C8C6BD",
"kX c #BBBDC1",
"lX c #C1BFC2",
"zX c #FB95C7",
"xX c #BEC1C6",
"cX c #CCCAC4",
"vX c #CCCBCB",
"bX c #C7C6C6",
"nX c #D0CCC5",
"mX c #D3CEC9",
"MX c #D3D2CD",
"NX c #D7D5CB",
"BX c #D9D8D4",
"VX c #CFCED0",
"CX c #E2DDDB",
"ZX c #E6E2DC",
"AX c #E9E2DC",
"SX c #E8E8E8",
"DX c #F1EDE7",
"FX c #F2F2EC",
"GX c #FAF8F7",
"HX c #F1EFF0",
"JX c #E0E0DF",
/* pixels */
"2 r r p p p M Q E Q Q ) ) Q ~ _ ~ ^ _ ^ i.p.a.z.z.l.p.)  . .) ) ) ) ) / / ! $.%.8.! @.%.;.>.2.5.6.3.9.>.;.$.8.&.-.Z A U P P Z C ",
"p r p 3 3 3 p m M M M Q p.p.p.s.p.z.b.b.z.a.z.z.z.b.s.D D Q E m B B Z C Z Y >.w.<.$.>.5.3.9.9.,.2.,.9.q.y.<.:.@.$.! Y Z V P L P ",
"2 2 p p r b C D D ^ ^ p.z.z.z.m.b.b.z.z.z.z.z.z.b.a.~ s.i.~ _ ) A A C C Z $.,.e.e.,.w.w.,.P.I.Q.!.Q.E.6.,.e.e.<.%.-.=.Y C P U I ",
"2 2 r r 2 b G D G ^ ^ p.M.b.a.a.a.z.b.m.m.z.z.m.m.N.z.z.i.z.N.d.U C V C Y >.w.4.6.t.q.6.].[.}.-X=X{.|.`.!.t.9.r.>.=.$.-.Z Z -.U ",
"2 2 r 2 1 p D D C D M Q _ s.a.m.M.z.~ H H H H H H H i > - s _ ~ P P C Y >.r.e.w.9.7.Q.%XtXiXaX#X}.{.-X{.-X`.E.*.w.>.;.$.Y Y %.! ",
"2 2 e 2 2 s G D G Q C C M D ^ l.F s : * > , , - > , = , 8 p C C V C U %.3.e.e.3.,.Q.rXaXpXfXdXiX`.%X=X'.}.|.`.E.6.w.9.$.=.%.@.-.",
"2 e 2 2 2 e p b D D D E D D M 1 * , i i i , 8 i y i , < 9 C U P Z Z Y :.,.3.3.5.^.:XzXsXpXdXiX;XiXtXrX%X=X&X&X[.U.6.w.;.=.:.@.=.",
"2 2 2 2 e e 3 r s M D G M G G > 6 i i i 8 6 , = ; @ * 8 C C N P 9 2 > 2 9 0 0 8 l &XiXpXdXiX#XaXsXdXiX%X{.&X*X%X$X7.3.9.Y =.%.-.",
"2 2 2 2 2 2 r p p 3 p b b M M 2 , a p 6 y i a C s 2 > > > > = @ 3 b b N C b 3 c % 1.].%X'.'.iXaXiXsXdX*X&XdXpX=X*XW.:.e.%.4.*.! ",
"2 2 2 2 2 2 r r r 3 r r 3 s p : y i 8 , , y p C C C C C C M n M n C Q C b M b.b.:.u $ v.-X{.tXdXaXsXdX*X=XdXsXtX*X(.6.e.>.3.;.Y ",
"2 2 2 2 2 2 r r p 3 p r 3 p e : y i i 8 6 , 2 p b n C C P P P P P V C n l.F.N.k.j.i.S $ R.rXtXfXdXsXuX*X%XpXsXuX=X XU.9.r.3.>.=.",
"2 2 2 e 2 2 2 r p p p p 3 p r 1 = y i i 8 8 , > y 6 2 p m C V C P V V C.C.H - . O * ^ D X R.rXpXdXpXtX{.{.tXsXsX=X{.W.>.t.3.3.=.",
"2 2 2 2 2 2 3 p r r p r 3 p r 2 * 6 i i 8 8 6 = 6 ; = i m M M m V E N.C.g . * ; ; = e :.t k }.tXuXtX=X}.{.tXuXuX&X}.W.>.y.3.e.%.",
"2 2 2 2 2 2 r p 3 r r r r r 3 3 * > i i i i i ; * = 2 b C V V C b _ F.d . @ @   @ = - 7 b.* E.yX%X&X'.}.}.&X%X%X&X-XE.,.y.3.w.$.",
"s r 2 2 2 r 3 p r p r r p r 3 r > = , i a i 6 * = 2 b C C C C C G C.^ O * @ = * - @ 7 ; u.p.j `.-X}.*X}.{.|.{.-X{.[.U.w.4.3.9.Y ",
"D b 2 2 r r 3 r r p 3 3 p r 3 p p = * 6 i 8 , = > a C C C C C n ^ C.e @ * .   . X O & . - ~ 1 R.*X}.{.).).).(.'.|.].4.e.4.3.*.C ",
"D D m r b b p 2 r r r 3 3 2 3 p N p > * = = * * V C n I ' U C C S.J @   . i g g K K g g   9 ! 6 {.|.).~.~.~.~.[.=XW.2.r.e.e.$.C ",
"M D D M D G M m b b b b m b p 3 2 3 n p @ O 2 n P P | | | I C i.B.O   j.J.vXSXBXBXvXMXcXK.#.y g R. X/.~././.^.}.$X7.3.9.3.y.Y U ",
"D Q D D D D M D D D D D E D M b r s p = = p C P / ..[ ..| } N V.K f K.bXHXGXGXGXDXNXNXbXZXqXg K g #X)./.~.^.{. XP.2.e.%.>.*.! Y ",
"D D M M D D D G D D E D C D D D G p * > M P L / | ....| | P N.V.- 4XMXMXFXFXDXDXnXZXCXvXbXNXbX^ A v.*X X[.|.[.P.<.t.*.%.=.Y %.=.",
"D M D D G D D S S D D D D D G G f 2 b C C C T ..] ....O.T l.OXH c.MXMXjXBXDXCXmXZXDXBXVXvXjXMX6Xq ; R.yX'.$XU.<.r.>.Y ;.@.-.$.=.",
"D M M D D D D M D D D D Q G M s > b C P C / ....0.' | | P G.j.O bXbXnXnXhXjXvXCXZXNXcXmXcXnXnXbXz.S 5.].W.2.e.2.r.>.;.$.=.-.Y %.",
"D S D D M D Q D M m b m m s 2 > b C M P X...} ..] ..| U OXJ.# K.cXmXcXvXhX1XvXVXMXMXMXnXMXjXqXnXJ.h A h 5.q.e.3.,.r.,.Y ( Y %.$.",
"s.p.l.s.Q D C n p r 3 3 3 2 2 i C P | X. . .8.[ ..[ | +XJ.u   9XCXjXmXvXbXK.f x.K.OXwXbXqX@X6XBX6Xh J 9 w.e.w.4.4.2.! ;.%.! >.Y ",
"z.z.z.b.b.b.~ 2 3 3 b i , > p P W  .d.d.f.f.d.p.[  .H.J.u X J 2XqXcXVXcXBX<X$ X = 0 d +.+.s eXMXcXM.~ y k q.t.5.;.A Z Y %.%.Y Z ",
"a.z.b.b.a.a.p.~ M 3 9 2 * , Q } X.f.d.d.d.o.d.f.| XXOXu   , H.2X1X6X0XwXMXbXH.d & j 7 x x G.cXmXqXB.r g h r.9.%.A B U ! $.Y U C ",
"b.z.z.z.a.z.m.m.l.D p 2 = p / } X.f.d.s.g.f.f.X.n.oXf   @ M 1X2X2X7X3X2X0X0X8X+XS.V.S..X.X6XwX8X2XC.% m.= A Y C U U / ( Y Y Z C ",
"z.z.z.z.a.a.a.s.M.~ 1 > s C T ..f.o.d.d.A.A.)  .OXx.  ; . d G.J m f f M.S.>X>X5X5X,X,X5X7X1X1X7X5XB.. k.e = G L B B C C Z Z C D ",
"z.z.z.a.a.z.m.m.b.G : > M C / 0.) d.f.X.f.) d.+XV.- *   . J u.X . + o k k R B.+XXX7XoX1X5X2X+X+X+X#.# i i.* n P C Q ~ p.l.z.l.a.",
"z.b.z.z.b.z.i.~ D s > p M B / .. . .+.X.( N.OXB.; O * * @ k.k.  - o % T._.` b C.G.,XL.V.D.M.Q ` _ #.o 6 k.= 8 / ~ p.z.z.b.z.z.b.",
"a.z.z.m.m.~ r : r p 1 s C C / | X...| ( XXOXK , @ * * @ X j.J.- . O * l 1.] 4 H.qX0Xi.X 7.j 4 { n.x.o q K A p z.a.m.b.a.a.a.a.b.",
"m.b.a.a.p.G m M M G 2 2 Z B P / [ 0.T oXOXf   * @ & = . g 0XbX9XoX#.> 1 v I OXqXBXCXu.o I.Y.c O.Z.6 ; @ f ^ p h.a.b.z.a.m.m.b.b.",
"k.i.M 2 e s S H D p.d = i a p M W C G.<Xu   = * @ @ ;   g FXDXZXnXbX9X2X2X2XqXBXFX0Xz.. 8 L I Z.x.o * = d H S m.a.z.z.z.z.z.z.z.",
"2 1 1 e s S ~ b.m.z.H * * a 8 n C C.B.= @ * @ @ * * @   f 9XGXHXBXcXvXvXVXvXcXAX6X4 Z.M.% % U oX= @ ; = d H m b.z.z.z.z.z.b.b.b.",
"e e s H p.z.z.a.z.p.z.J > = d 8 m B.B.i % = @ # @ @ * * @ u 4XSXJXvXnXnXcXvXNXgXL.x.OXxXJ.J.9X9X, . = > d J G b.z.a.p.p.p.p.p.p.",
"> e H b.b.b.b.a.z.M.z.z.F * = y i a B.F.l.* . # ; @ = @ @ @ , K <XvXmXjXnXcXjXMXqXqXjXNXNXBXJX4X= * , = x.> S b.i.^ ^ ^ ^ ~ ~ ~ ",
"2 2 S b.b.a.a.z.a.a.a.a.m.H , = , i a D S.N.i   @   @ @ * * . , oX4XMXnXjXMXMXcXMXnXjXcXkX9X1Xd @ , * S J % ^ z.i.~ ~ ^ ^ ^ ~ ~ ",
"i = 2 S i.z.M.b.z.m.m.b.a.b.z.d = = , d S S.B.S @ @ * @ @ @ O = >XkXFXBXcXMXBXMXVXmXMXvXL.. . * * = i J > s M.z.b.p.^ ^ _ ^ ^ _ ",
"2 2 e 2 2 s S m S M.z.l.p.~ p.M m * * = i M n.F.i.= * * . * * * <XSXSXwXcXHXCXnX0XHXZXlXe @ # @ . e k.2 2 H p.b.b.p._ ^ _ ~ ~ ~ ",
"2 2 2 2 2 1 2 1 2 a d m s p b 3 1 , = = > p b Q F.M.= * * @ O , qXBXcXc.lXHXAXwXV.BXBX4X2 . O = f J i = , z.a.z.p.i.~ ~ _ ) ~ ) ",
"2 2 2 2 2 2 2 2 , 2 1 4 p p 3 b * , 8 6 6 , 9 C G XXx.> O @ @ * J.kXc.  kXSXbXg u wX4Xf . * d k.k.i * 2 G ~ _ _ _ Q ~ ) ~ ~ ) ) ",
", 2 2 2 2 2 2 2 2 2 e r 3 p r 1 # y a n n i , , M G F.k.* @ @ @ @ . o # V.<XJ   @ . . . d J k.a > * 2 G p.^ ~ _ p.Q G C C C P C ",
"2 2 2 2 2 2 2 2 4 2 i r 3 b 2 * ; i b B C m i q b p p.F.i * * @ @ @ = @     . @ * > d J J f * = > s G ^ ~ _ ~ _ _ ^ ^ Q C C C C ",
"2 2 2 2 2 2 2 2 4 p 2 3 b 3 = > B B n p a M M C m n b B.B., . - * = @ o = * * . i x.K i * 2 H D G l.p.~ Q _ _ ) ~ _ _ ^ C C C C ",
"e 2 2 2 2 2 2 2 e p z 3 i > > n ..| U s i s C I C n D D C.B.i . * . * * * . , S i.> i * 8 G G ~ Q Q ~ _ p._ _ _ _ _ Q n 3 3 b C ",
"s r 2 2 e e 2 1 q 4 b b = * n | ....../ B n C L C C C b G F.B., @ @ @ @ = , i.l.2 i > * , 2 p b 3 r m C ~ Q ~ Q ~ Q C b b b 3 r ",
"M m p p p p r 2 e 2 p 2 * i ( ..] [ ..| P C C C M C C P C n F.V., @ @ * i l.C m M M 8 i = = 1 p 3 p r 3 r n C C C C C Z Z M 3 3 ",
"M m m M M M m m m m i = > U 8.........| P C C M M C C P P C M F.c.. 6 a k.C C P P C p , i > , S C b r c 3 3 3 n N C C C C b 3 p ",
"m m m M M m m M m D a = n X.} d.} X.| | B M p M M P C C L P i M j.i ^ l.D P V D n P N p , , : i G C m 3 r c b 3 p r r p p r 3 3 ",
"m m m M M M M M C m = > C ..A. .X.X...| P C p a M C B b X.P e M D n.) C C L C p s B P 8 * i 2 = M G m c c 3 3 p p r r r r 3 3 p ",
"M M m m m m m m C , * p T ..A.} X.| [ | L C p i p P C U ..P x.z.Q C P C C P P z.M.C C a * i i * p G m m V b 3 p r 3 3 r r 3 3 p ",
"m m m m M M m M p * , B ' X.| ..| ] ....P C 8 8 M n / | | U s F.G.M C M C C z S.C.C C M , i p 8 > M G M S G b p p r 3 r p r r r ",
"M M M m M M b p < ; i U | ..' ..| { ..| P n 8 i C b | 0...8.b G.H.C B C b D C M ~ C C C 2 > d M = 2 ~ D M D M C M b 3 3 r p r r ",
"m m b p p r 2 > * y i P ..| ..........' C p 2 p C C T ..' | / x.U ] O.} C C N M b C C P b > a C e = M D D D D Q G M p 3 3 r p p ",
"r 3 2 2 2 e , = = p p C | ....| ....| U C p 1 n C M T [ 8.8.P B.Z.[ O.} P P C M C C C P C > , n d > 1 M G D M M M b r 3 3 3 r p ",
"m b r 2 2 2 > = u 8 B P / O.[  .....| P C p 2 Z C M T 0.| | I ^ C.( } } C C P C C M C P C , = n i i : m D m m b 3 3 3 p p 3 3 3 ",
"V M m r 2 > * i w 1 P C / ......[ | P P P 2 p P C C Q / | | / C n.C P m C C P C M P V C s = 6 9 8 i , * q p 3 3 r r r p p r r r ",
"V m m e 2 > > i ; 3 C C U ......{ / C C C 2 p P C C C B L P C m b.b b C b B b b b p s s p 2 , 6 a , i > * e p b r r r r r p p p ",
"M m M e > = i 6 > n C C P } } | ' P C C b = i C P C M C C n d f H K 2 b b 9 b n b G x.M p b 2 = 6 i s a = * s 3 r r r r r r r p ",
"M m s e = = i = > C C C C T T T T C C C s * i C V V M C M b s a d B.1X8.|  .U ( T A.XX_ M C m p * a b M i @ 2 3 r r 2 2 2 2 3 r ",
"b s 2 2 = , i * = C C C C P T U U C C C p @ i P M V V C n N C P p x.1XA.[ ..| [ | ..0.P C b C C q = p p 8 , * 8 r e 2 2 2 2 2 2 ",
"e e > > = i 6 * > C P M C P P C C n n C 8 @ i P M C C C C P | ..P J k.| O.[ 0.O...] ' I C M D P M * > i 8 i , = r e 2 2 2 2 2 2 ",
"2 e 2 = , i , * i C P C M C P C n n n n ,   i P n C C C C U | ..] _ M.| [ 0.T ..T T T C C M C N M e * u i i i @ 2 2 2 e 2 2 2 2 ",
"2 e i = i i * @ a n P V M V P C C C C n 8 @ i P C P P C C U | ..O.C M.A.T U C / P n M M C P C C P d ; # 8 a 2 = 2 2 2 2 2 2 2 2 "
};
